<?xml version="1.0" encoding="UTF-8" standalone="no"?>
<!-- Created with Inkscape (http://www.inkscape.org/) -->

<svg
   xmlns:ns0="http://www.iki.fi/pav/software/textext/"
   xmlns:dc="http://purl.org/dc/elements/1.1/"
   xmlns:cc="http://creativecommons.org/ns#"
   xmlns:rdf="http://www.w3.org/1999/02/22-rdf-syntax-ns#"
   xmlns:svg="http://www.w3.org/2000/svg"
   xmlns="http://www.w3.org/2000/svg"
   xmlns:xlink="http://www.w3.org/1999/xlink"
   xmlns:sodipodi="http://sodipodi.sourceforge.net/DTD/sodipodi-0.dtd"
   xmlns:inkscape="http://www.inkscape.org/namespaces/inkscape"
   width="303.93286"
   height="207.85123"
   id="svg2"
   version="1.1"
   inkscape:version="0.48.5 r10040"
   sodipodi:docname="concavity.svg">
  <sodipodi:namedview
     id="base"
     pagecolor="#ffffff"
     bordercolor="#666666"
     borderopacity="1.0"
     inkscape:pageopacity="0.0"
     inkscape:pageshadow="2"
     inkscape:zoom="2.8284272"
     inkscape:cx="100.70789"
     inkscape:cy="90.330208"
     inkscape:document-units="px"
     inkscape:current-layer="layer1"
     showgrid="true"
     inkscape:snap-global="false"
     inkscape:window-width="1918"
     inkscape:window-height="1061"
     inkscape:window-x="0"
     inkscape:window-y="18"
     inkscape:window-maximized="0"
     inkscape:snap-bbox="true"
     inkscape:snap-bbox-midpoints="true"
     fit-margin-top="0"
     fit-margin-left="0"
     fit-margin-right="0"
     fit-margin-bottom="0">
    <inkscape:grid
       type="xygrid"
       id="grid2985"
       empspacing="5"
       visible="true"
       enabled="true"
       snapvisiblegridlinesonly="true"
       originx="-163.14472px"
       originy="-783.26789px" />
  </sodipodi:namedview>
  <defs
     id="defs4">
    <marker
       inkscape:stockid="Arrow1Send"
       orient="auto"
       refY="0"
       refX="0"
       id="Arrow1Send"
       style="overflow:visible">
      <path
         id="path3778"
         d="M 0,0 5,-5 -12.5,0 5,5 0,0 z"
         style="fill-rule:evenodd;stroke:#000000;stroke-width:1pt"
         transform="matrix(-0.2,0,0,-0.2,-1.2,0)"
         inkscape:connector-curvature="0" />
    </marker>
    <marker
       inkscape:stockid="Arrow2Mend"
       orient="auto"
       refY="0"
       refX="0"
       id="Arrow2Mend"
       style="overflow:visible">
      <path
         id="path3790"
         style="fill-rule:evenodd;stroke-width:0.625;stroke-linejoin:round"
         d="M 8.7185878,4.0337352 -2.2072895,0.01601326 8.7185884,-4.0017078 c -1.7454984,2.3720609 -1.7354408,5.6174519 -6e-7,8.035443 z"
         transform="scale(-0.6,-0.6)"
         inkscape:connector-curvature="0" />
    </marker>
    <marker
       inkscape:stockid="Arrow1Sendj"
       orient="auto"
       refY="0"
       refX="0"
       id="Arrow1Sendj"
       style="overflow:visible">
      <path
         id="path4958"
         d="M 0,0 5,-5 -12.5,0 5,5 0,0 z"
         style="fill:#b7c8b7;fill-rule:evenodd;stroke:#b7c8b7;stroke-width:1pt"
         transform="matrix(-0.2,0,0,-0.2,-1.2,0)"
         inkscape:connector-curvature="0" />
    </marker>
    <marker
       inkscape:stockid="Arrow1Send3"
       orient="auto"
       refY="0"
       refX="0"
       id="Arrow1Send3"
       style="overflow:visible">
      <path
         id="path4961"
         d="M 0,0 5,-5 -12.5,0 5,5 0,0 z"
         style="fill:#b7c8b7;fill-rule:evenodd;stroke:#b7c8b7;stroke-width:1pt"
         transform="matrix(-0.2,0,0,-0.2,-1.2,0)"
         inkscape:connector-curvature="0" />
    </marker>
    <marker
       inkscape:stockid="Arrow1Sendo"
       orient="auto"
       refY="0"
       refX="0"
       id="Arrow1Sendo"
       style="overflow:visible">
      <path
         id="path4964"
         d="M 0,0 5,-5 -12.5,0 5,5 0,0 z"
         style="fill:#b7c8b7;fill-rule:evenodd;stroke:#b7c8b7;stroke-width:1pt"
         transform="matrix(-0.2,0,0,-0.2,-1.2,0)"
         inkscape:connector-curvature="0" />
    </marker>
  </defs>
  <metadata
     id="metadata7">
    <rdf:RDF>
      <cc:Work
         rdf:about="">
        <dc:format>image/svg+xml</dc:format>
        <dc:type
           rdf:resource="http://purl.org/dc/dcmitype/StillImage" />
        <dc:title />
      </cc:Work>
    </rdf:RDF>
  </metadata>
  <g
     inkscape:label="Calque 1"
     inkscape:groupmode="layer"
     id="layer1"
     transform="translate(-163.14472,-61.243066)">
    <path
       style="fill:#f2f2f2;stroke:#000000;stroke-width:2.84775925;stroke-linecap:butt;stroke-linejoin:miter;stroke-miterlimit:4;stroke-opacity:1;stroke-dasharray:none"
       d="m 167.37143,174.01989 34.17312,-90.193388 79.73726,67.411308 68.34622,-68.346223 56.95519,0 -22.78209,91.128303 22.78209,68.34622 -113.91039,22.78207 -11.39102,-79.73727 z"
       id="path2987"
       inkscape:connector-curvature="0"
       sodipodi:nodetypes="cccccccccc" />
    <path
       style="fill:#dbe3db;stroke:#b7c8b7;stroke-width:2.2782073px;stroke-linecap:butt;stroke-linejoin:miter;stroke-opacity:1;marker-end:url(#Arrow1Sendj)"
       d="m 383.80113,174.01989 11.39104,0"
       id="path4203"
       inkscape:connector-curvature="0" />
    <path
       style="fill:#dbe3db;stroke:#b7c8b7;stroke-width:2.2782073px;stroke-linecap:butt;stroke-linejoin:miter;stroke-opacity:1;marker-end:url(#Arrow1Send3)"
       d="m 281.28181,151.23781 0,-11.39104"
       id="path4391"
       inkscape:connector-curvature="0" />
    <path
       style="fill:#dbe3db;stroke:#b7c8b7;stroke-width:2.2782073px;stroke-linecap:butt;stroke-linejoin:miter;stroke-opacity:1;marker-end:url(#Arrow1Sendo)"
       d="m 281.28181,185.41091 -7.6845,8.93743"
       id="path4763"
       inkscape:connector-curvature="0" />
    <path
       style="fill:none;stroke:#e9afaf;stroke-width:2.2782073px;stroke-linecap:butt;stroke-linejoin:miter;stroke-opacity:1"
       d="m 164.28382,175.65002 126.71737,92.30517 118.59076,-23.5887 -0.111,-163.937293 -209.38254,-0.0043 z"
       id="path4949"
       inkscape:connector-curvature="0"
       sodipodi:nodetypes="cccccc" />
    <path
       sodipodi:nodetypes="cc"
       inkscape:connector-curvature="0"
       id="path4994"
       d="m 281.28008,150.42827 10e-4,-70.577671"
       style="fill:#b7c8b7;stroke:#b7c8b7;stroke-width:2.2782073;stroke-linecap:butt;stroke-linejoin:miter;stroke-miterlimit:4;stroke-opacity:1;stroke-dasharray:2.27820741, 4.55641481;stroke-dashoffset:5.69551852" />
    <path
       sodipodi:nodetypes="cc"
       inkscape:connector-curvature="0"
       id="path4994-3"
       d="m 384.34829,173.97362 25.12955,-0.0557"
       style="fill:#b7c8b7;stroke:#b7c8b7;stroke-width:2.2782073;stroke-linecap:butt;stroke-linejoin:miter;stroke-miterlimit:4;stroke-opacity:1;stroke-dasharray:2.27820741, 4.55641481;stroke-dashoffset:5.01205629" />
    <path
       sodipodi:nodetypes="cc"
       inkscape:connector-curvature="0"
       id="path4994-0"
       d="m 280.2639,186.52666 -39.07794,45.6298"
       style="fill:#b7c8b7;stroke:#b7c8b7;stroke-width:2.2782073;stroke-linecap:butt;stroke-linejoin:miter;stroke-miterlimit:4;stroke-opacity:1;stroke-dasharray:2.27820741, 4.55641481;stroke-dashoffset:5.69551852" />
    <path
       transform="matrix(0.61689284,0,0,0.92896809,144.96926,-85.431462)"
       d="m 226.65179,178.47826 c 0,2.09572 -2.55838,3.79464 -5.71429,3.79464 -3.15591,0 -5.71429,-1.69892 -5.71429,-3.79464 0,-2.09573 2.55838,-3.79465 5.71429,-3.79465 3.15591,0 5.71429,1.69892 5.71429,3.79465 z"
       sodipodi:ry="3.7946429"
       sodipodi:rx="5.7142859"
       sodipodi:cy="178.47826"
       sodipodi:cx="220.9375"
       id="path5029"
       style="fill:none;stroke:#ff0000;stroke-width:1.57025802;stroke-linecap:round;stroke-linejoin:round;stroke-miterlimit:4;stroke-opacity:1;stroke-dasharray:none;stroke-dashoffset:2.2"
       sodipodi:type="arc" />
    <path
       transform="matrix(0.61689284,0,0,0.92896809,272.75295,8.0853059)"
       d="m 226.65179,178.47826 c 0,2.09572 -2.55838,3.79464 -5.71429,3.79464 -3.15591,0 -5.71429,-1.69892 -5.71429,-3.79464 0,-2.09573 2.55838,-3.79465 5.71429,-3.79465 3.15591,0 5.71429,1.69892 5.71429,3.79465 z"
       sodipodi:ry="3.7946429"
       sodipodi:rx="5.7142859"
       sodipodi:cy="178.47826"
       sodipodi:cx="220.9375"
       id="path5029-2"
       style="fill:none;stroke:#ff0000;stroke-width:1.57025802;stroke-linecap:round;stroke-linejoin:round;stroke-miterlimit:4;stroke-opacity:1;stroke-dasharray:none;stroke-dashoffset:2.2"
       sodipodi:type="arc" />
    <path
       transform="matrix(0.61689284,0,0,0.92896809,105.32835,65.646049)"
       d="m 226.65179,178.47826 c 0,2.09572 -2.55838,3.79464 -5.71429,3.79464 -3.15591,0 -5.71429,-1.69892 -5.71429,-3.79464 0,-2.09573 2.55838,-3.79465 5.71429,-3.79465 3.15591,0 5.71429,1.69892 5.71429,3.79465 z"
       sodipodi:ry="3.7946429"
       sodipodi:rx="5.7142859"
       sodipodi:cy="178.47826"
       sodipodi:cx="220.9375"
       id="path5029-4"
       style="fill:none;stroke:#ff0000;stroke-width:1.57025802;stroke-linecap:round;stroke-linejoin:round;stroke-miterlimit:4;stroke-opacity:1;stroke-dasharray:none;stroke-dashoffset:2.2"
       sodipodi:type="arc" />
    <g
       ns0:text="$d_1 = 6.0$"
       ns0:preamble=""
       transform="matrix(1.4258761,0,0,1.4258761,-61.040066,-121.04539)"
       style="fill:#ff0000"
       id="g5211">
      <defs
         id="defs5213">
        <g
           id="g5215">
          <symbol
             overflow="visible"
             id="textext-5f72675b-0"
             style="overflow:visible">
            <path
               style="stroke:none"
               d=""
               id="path5218"
               inkscape:connector-curvature="0" />
          </symbol>
          <symbol
             overflow="visible"
             id="textext-5f72675b-1"
             style="overflow:visible">
            <path
               style="stroke:none"
               d="m 5.140625,-6.8125 c 0,0 0,-0.109375 -0.125,-0.109375 -0.15625,0 -1.09375,0.09375 -1.265625,0.109375 -0.078125,0.015625 -0.140625,0.0625 -0.140625,0.1875 0,0.125 0.09375,0.125 0.234375,0.125 0.484375,0 0.5,0.0625 0.5,0.171875 L 4.3125,-6.125 3.71875,-3.765625 C 3.53125,-4.140625 3.25,-4.40625 2.796875,-4.40625 c -1.15625,0 -2.390625,1.46875 -2.390625,2.921875 0,0.9375 0.546875,1.59375 1.3125,1.59375 0.203125,0 0.703125,-0.046875 1.296875,-0.75 0.078125,0.421875 0.4375,0.75 0.90625,0.75 0.359375,0 0.578125,-0.234375 0.75,-0.546875 0.15625,-0.359375 0.296875,-0.96875 0.296875,-0.984375 0,-0.109375 -0.09375,-0.109375 -0.125,-0.109375 -0.09375,0 -0.109375,0.046875 -0.140625,0.1875 -0.171875,0.640625 -0.34375,1.234375 -0.75,1.234375 -0.28125,0 -0.296875,-0.265625 -0.296875,-0.453125 0,-0.25 0.015625,-0.3125 0.046875,-0.484375 z m -2.0625,5.625 C 3.015625,-1 3.015625,-0.984375 2.875,-0.8125 2.4375,-0.265625 2.03125,-0.109375 1.75,-0.109375 c -0.5,0 -0.640625,-0.546875 -0.640625,-0.9375 0,-0.5 0.3125,-1.71875 0.546875,-2.1875 0.3125,-0.578125 0.75,-0.953125 1.15625,-0.953125 0.640625,0 0.78125,0.8125 0.78125,0.875 0,0.0625 -0.015625,0.125 -0.03125,0.171875 z"
               id="path5221"
               inkscape:connector-curvature="0" />
          </symbol>
          <symbol
             overflow="visible"
             id="textext-5f72675b-2"
             style="overflow:visible">
            <path
               style="stroke:none"
               d="m 1.90625,-0.53125 c 0,-0.28125 -0.234375,-0.53125 -0.515625,-0.53125 -0.296875,0 -0.53125,0.25 -0.53125,0.53125 C 0.859375,-0.234375 1.09375,0 1.390625,0 1.671875,0 1.90625,-0.234375 1.90625,-0.53125 z"
               id="path5224"
               inkscape:connector-curvature="0" />
          </symbol>
          <symbol
             overflow="visible"
             id="textext-5f72675b-3"
             style="overflow:visible">
            <path
               style="stroke:none"
               d=""
               id="path5227"
               inkscape:connector-curvature="0" />
          </symbol>
          <symbol
             overflow="visible"
             id="textext-5f72675b-4"
             style="overflow:visible">
            <path
               style="stroke:none"
               d="m 2.328125,-4.4375 c 0,-0.1875 0,-0.1875 -0.203125,-0.1875 -0.453125,0.4375 -1.078125,0.4375 -1.359375,0.4375 l 0,0.25 c 0.15625,0 0.625,0 1,-0.1875 l 0,3.546875 c 0,0.234375 0,0.328125 -0.6875,0.328125 l -0.265625,0 0,0.25 c 0.125,0 0.984375,-0.03125 1.234375,-0.03125 0.21875,0 1.09375,0.03125 1.25,0.03125 l 0,-0.25 -0.265625,0 c -0.703125,0 -0.703125,-0.09375 -0.703125,-0.328125 z"
               id="path5230"
               inkscape:connector-curvature="0" />
          </symbol>
          <symbol
             overflow="visible"
             id="textext-5f72675b-5"
             style="overflow:visible">
            <path
               style="stroke:none"
               d=""
               id="path5233"
               inkscape:connector-curvature="0" />
          </symbol>
          <symbol
             overflow="visible"
             id="textext-5f72675b-6"
             style="overflow:visible">
            <path
               style="stroke:none"
               d="m 6.84375,-3.265625 c 0.15625,0 0.34375,0 0.34375,-0.1875 C 7.1875,-3.65625 7,-3.65625 6.859375,-3.65625 l -5.96875,0 c -0.140625,0 -0.328125,0 -0.328125,0.203125 0,0.1875 0.1875,0.1875 0.328125,0.1875 z m 0.015625,1.9375 c 0.140625,0 0.328125,0 0.328125,-0.203125 0,-0.1875 -0.1875,-0.1875 -0.34375,-0.1875 l -5.953125,0 c -0.140625,0 -0.328125,0 -0.328125,0.1875 0,0.203125 0.1875,0.203125 0.328125,0.203125 z"
               id="path5236"
               inkscape:connector-curvature="0" />
          </symbol>
          <symbol
             overflow="visible"
             id="textext-5f72675b-7"
             style="overflow:visible">
            <path
               style="stroke:none"
               d="m 1.3125,-3.265625 0,-0.25 c 0,-2.515625 1.234375,-2.875 1.75,-2.875 0.234375,0 0.65625,0.0625 0.875,0.40625 -0.15625,0 -0.546875,0 -0.546875,0.4375 0,0.3125 0.234375,0.46875 0.453125,0.46875 0.15625,0 0.46875,-0.09375 0.46875,-0.484375 0,-0.59375 -0.4375,-1.078125 -1.265625,-1.078125 -1.28125,0 -2.625,1.28125 -2.625,3.484375 0,2.671875 1.15625,3.375 2.078125,3.375 1.109375,0 2.0625,-0.9375 2.0625,-2.25 0,-1.265625 -0.890625,-2.21875 -2,-2.21875 -0.671875,0 -1.046875,0.5 -1.25,0.984375 z M 2.5,-0.0625 c -0.625,0 -0.921875,-0.59375 -0.984375,-0.75 -0.1875,-0.46875 -0.1875,-1.265625 -0.1875,-1.4375 0,-0.78125 0.328125,-1.78125 1.21875,-1.78125 0.171875,0 0.625,0 0.9375,0.625 0.171875,0.359375 0.171875,0.875 0.171875,1.359375 0,0.484375 0,0.984375 -0.171875,1.34375 C 3.1875,-0.109375 2.734375,-0.0625 2.5,-0.0625 z"
               id="path5239"
               inkscape:connector-curvature="0" />
          </symbol>
          <symbol
             overflow="visible"
             id="textext-5f72675b-8"
             style="overflow:visible">
            <path
               style="stroke:none"
               d="m 4.578125,-3.1875 c 0,-0.796875 -0.046875,-1.59375 -0.390625,-2.328125 -0.453125,-0.96875 -1.28125,-1.125 -1.6875,-1.125 -0.609375,0 -1.328125,0.265625 -1.75,1.1875 -0.3125,0.6875 -0.359375,1.46875 -0.359375,2.265625 0,0.75 0.03125,1.640625 0.453125,2.40625 0.421875,0.796875 1.15625,1 1.640625,1 0.53125,0 1.296875,-0.203125 1.734375,-1.15625 0.3125,-0.6875 0.359375,-1.46875 0.359375,-2.25 z M 2.484375,0 C 2.09375,0 1.5,-0.25 1.328125,-1.203125 1.21875,-1.796875 1.21875,-2.71875 1.21875,-3.3125 c 0,-0.640625 0,-1.296875 0.078125,-1.828125 0.1875,-1.1875 0.9375,-1.28125 1.1875,-1.28125 0.328125,0 0.984375,0.1875 1.171875,1.171875 0.109375,0.5625 0.109375,1.3125 0.109375,1.9375 0,0.75 0,1.421875 -0.109375,2.0625 C 3.5,-0.296875 2.9375,0 2.484375,0 z"
               id="path5242"
               inkscape:connector-curvature="0" />
          </symbol>
        </g>
      </defs>
      <g
         style="fill:#ff0000"
         id="textext-5f72675b-9">
        <g
           style="fill:#ff0000;fill-opacity:1"
           id="g5245">
          <use
             style="fill:#ff0000"
             xlink:href="#textext-5f72675b-1"
             x="223.43201"
             y="134.765"
             id="use5247"
             width="744.09448"
             height="1052.3622" />
        </g>
        <g
           style="fill:#ff0000;fill-opacity:1"
           id="g5249">
          <use
             style="fill:#ff0000"
             xlink:href="#textext-5f72675b-4"
             x="228.618"
             y="136.259"
             id="use5251"
             width="744.09448"
             height="1052.3622" />
        </g>
        <g
           style="fill:#ff0000;fill-opacity:1"
           id="g5253">
          <use
             style="fill:#ff0000"
             xlink:href="#textext-5f72675b-6"
             x="235.854"
             y="134.765"
             id="use5255"
             width="744.09448"
             height="1052.3622" />
        </g>
        <g
           style="fill:#ff0000;fill-opacity:1"
           id="g5257">
          <use
             style="fill:#ff0000"
             xlink:href="#textext-5f72675b-7"
             x="246.37251"
             y="134.765"
             id="use5259"
             width="744.09448"
             height="1052.3622" />
        </g>
        <g
           style="fill:#ff0000;fill-opacity:1"
           id="g5261">
          <use
             style="fill:#ff0000"
             xlink:href="#textext-5f72675b-2"
             x="251.35201"
             y="134.765"
             id="use5263"
             width="744.09448"
             height="1052.3622" />
        </g>
        <g
           style="fill:#ff0000;fill-opacity:1"
           id="g5265">
          <use
             style="fill:#ff0000"
             xlink:href="#textext-5f72675b-8"
             x="254.119"
             y="134.765"
             id="use5267"
             width="744.09448"
             height="1052.3622" />
        </g>
      </g>
    </g>
    <g
       ns0:text="$d_3 = 5.6$"
       ns0:preamble=""
       transform="matrix(1.402442,0,0,1.402442,-123.85019,58.354626)"
       style="fill:#ff0000"
       id="g5869">
      <defs
         id="defs5871">
        <g
           id="g5873">
          <symbol
             overflow="visible"
             id="textext-ea238395-0"
             style="overflow:visible">
            <path
               style="stroke:none"
               d=""
               id="path5876"
               inkscape:connector-curvature="0" />
          </symbol>
          <symbol
             overflow="visible"
             id="textext-ea238395-1"
             style="overflow:visible">
            <path
               style="stroke:none"
               d="m 5.140625,-6.8125 c 0,0 0,-0.109375 -0.125,-0.109375 -0.15625,0 -1.09375,0.09375 -1.265625,0.109375 -0.078125,0.015625 -0.140625,0.0625 -0.140625,0.1875 0,0.125 0.09375,0.125 0.234375,0.125 0.484375,0 0.5,0.0625 0.5,0.171875 L 4.3125,-6.125 3.71875,-3.765625 C 3.53125,-4.140625 3.25,-4.40625 2.796875,-4.40625 c -1.15625,0 -2.390625,1.46875 -2.390625,2.921875 0,0.9375 0.546875,1.59375 1.3125,1.59375 0.203125,0 0.703125,-0.046875 1.296875,-0.75 0.078125,0.421875 0.4375,0.75 0.90625,0.75 0.359375,0 0.578125,-0.234375 0.75,-0.546875 0.15625,-0.359375 0.296875,-0.96875 0.296875,-0.984375 0,-0.109375 -0.09375,-0.109375 -0.125,-0.109375 -0.09375,0 -0.109375,0.046875 -0.140625,0.1875 -0.171875,0.640625 -0.34375,1.234375 -0.75,1.234375 -0.28125,0 -0.296875,-0.265625 -0.296875,-0.453125 0,-0.25 0.015625,-0.3125 0.046875,-0.484375 z m -2.0625,5.625 C 3.015625,-1 3.015625,-0.984375 2.875,-0.8125 2.4375,-0.265625 2.03125,-0.109375 1.75,-0.109375 c -0.5,0 -0.640625,-0.546875 -0.640625,-0.9375 0,-0.5 0.3125,-1.71875 0.546875,-2.1875 0.3125,-0.578125 0.75,-0.953125 1.15625,-0.953125 0.640625,0 0.78125,0.8125 0.78125,0.875 0,0.0625 -0.015625,0.125 -0.03125,0.171875 z"
               id="path5879"
               inkscape:connector-curvature="0" />
          </symbol>
          <symbol
             overflow="visible"
             id="textext-ea238395-2"
             style="overflow:visible">
            <path
               style="stroke:none"
               d="m 1.90625,-0.53125 c 0,-0.28125 -0.234375,-0.53125 -0.515625,-0.53125 -0.296875,0 -0.53125,0.25 -0.53125,0.53125 C 0.859375,-0.234375 1.09375,0 1.390625,0 1.671875,0 1.90625,-0.234375 1.90625,-0.53125 z"
               id="path5882"
               inkscape:connector-curvature="0" />
          </symbol>
          <symbol
             overflow="visible"
             id="textext-ea238395-3"
             style="overflow:visible">
            <path
               style="stroke:none"
               d=""
               id="path5885"
               inkscape:connector-curvature="0" />
          </symbol>
          <symbol
             overflow="visible"
             id="textext-ea238395-4"
             style="overflow:visible">
            <path
               style="stroke:none"
               d="m 1.90625,-2.328125 c 0.546875,0 0.9375,0.375 0.9375,1.125 0,0.859375 -0.515625,1.125 -0.90625,1.125 -0.28125,0 -0.90625,-0.078125 -1.1875,-0.5 0.328125,0 0.40625,-0.234375 0.40625,-0.390625 0,-0.21875 -0.171875,-0.375 -0.390625,-0.375 -0.1875,0 -0.390625,0.125 -0.390625,0.40625 0,0.65625 0.71875,1.078125 1.5625,1.078125 0.96875,0 1.640625,-0.65625 1.640625,-1.34375 0,-0.546875 -0.4375,-1.09375 -1.203125,-1.25 0.71875,-0.265625 0.984375,-0.78125 0.984375,-1.21875 0,-0.546875 -0.625,-0.953125 -1.40625,-0.953125 -0.765625,0 -1.359375,0.375 -1.359375,0.9375 0,0.234375 0.15625,0.359375 0.359375,0.359375 0.21875,0 0.359375,-0.15625 0.359375,-0.34375 0,-0.203125 -0.140625,-0.359375 -0.359375,-0.375 0.25,-0.296875 0.71875,-0.375 0.984375,-0.375 0.3125,0 0.75,0.15625 0.75,0.75 0,0.296875 -0.09375,0.625 -0.28125,0.828125 -0.21875,0.265625 -0.421875,0.28125 -0.765625,0.3125 -0.171875,0.015625 -0.1875,0.015625 -0.21875,0.015625 -0.015625,0 -0.078125,0.015625 -0.078125,0.09375 0,0.09375 0.0625,0.09375 0.1875,0.09375 z"
               id="path5888"
               inkscape:connector-curvature="0" />
          </symbol>
          <symbol
             overflow="visible"
             id="textext-ea238395-5"
             style="overflow:visible">
            <path
               style="stroke:none"
               d=""
               id="path5891"
               inkscape:connector-curvature="0" />
          </symbol>
          <symbol
             overflow="visible"
             id="textext-ea238395-6"
             style="overflow:visible">
            <path
               style="stroke:none"
               d="m 6.84375,-3.265625 c 0.15625,0 0.34375,0 0.34375,-0.1875 C 7.1875,-3.65625 7,-3.65625 6.859375,-3.65625 l -5.96875,0 c -0.140625,0 -0.328125,0 -0.328125,0.203125 0,0.1875 0.1875,0.1875 0.328125,0.1875 z m 0.015625,1.9375 c 0.140625,0 0.328125,0 0.328125,-0.203125 0,-0.1875 -0.1875,-0.1875 -0.34375,-0.1875 l -5.953125,0 c -0.140625,0 -0.328125,0 -0.328125,0.1875 0,0.203125 0.1875,0.203125 0.328125,0.203125 z"
               id="path5894"
               inkscape:connector-curvature="0" />
          </symbol>
          <symbol
             overflow="visible"
             id="textext-ea238395-7"
             style="overflow:visible">
            <path
               style="stroke:none"
               d="m 4.46875,-2 c 0,-1.1875 -0.8125,-2.1875 -1.890625,-2.1875 -0.46875,0 -0.90625,0.15625 -1.265625,0.515625 l 0,-1.953125 c 0.203125,0.0625 0.53125,0.125 0.84375,0.125 1.234375,0 1.9375,-0.90625 1.9375,-1.03125 0,-0.0625 -0.03125,-0.109375 -0.109375,-0.109375 0,0 -0.03125,0 -0.078125,0.03125 C 3.703125,-6.515625 3.21875,-6.3125 2.546875,-6.3125 2.15625,-6.3125 1.6875,-6.390625 1.21875,-6.59375 1.140625,-6.625 1.125,-6.625 1.109375,-6.625 1,-6.625 1,-6.546875 1,-6.390625 L 1,-3.4375 c 0,0.171875 0,0.25 0.140625,0.25 0.078125,0 0.09375,-0.015625 0.140625,-0.078125 C 1.390625,-3.421875 1.75,-3.96875 2.5625,-3.96875 c 0.515625,0 0.765625,0.453125 0.84375,0.640625 0.15625,0.375 0.1875,0.75 0.1875,1.25 0,0.359375 0,0.953125 -0.25,1.375 C 3.109375,-0.3125 2.734375,-0.0625 2.28125,-0.0625 c -0.71875,0 -1.296875,-0.53125 -1.46875,-1.109375 0.03125,0 0.0625,0.015625 0.171875,0.015625 0.328125,0 0.5,-0.25 0.5,-0.484375 0,-0.25 -0.171875,-0.5 -0.5,-0.5 C 0.84375,-2.140625 0.5,-2.0625 0.5,-1.609375 0.5,-0.75 1.1875,0.21875 2.296875,0.21875 3.453125,0.21875 4.46875,-0.734375 4.46875,-2 z"
               id="path5897"
               inkscape:connector-curvature="0" />
          </symbol>
          <symbol
             overflow="visible"
             id="textext-ea238395-8"
             style="overflow:visible">
            <path
               style="stroke:none"
               d="m 1.3125,-3.265625 0,-0.25 c 0,-2.515625 1.234375,-2.875 1.75,-2.875 0.234375,0 0.65625,0.0625 0.875,0.40625 -0.15625,0 -0.546875,0 -0.546875,0.4375 0,0.3125 0.234375,0.46875 0.453125,0.46875 0.15625,0 0.46875,-0.09375 0.46875,-0.484375 0,-0.59375 -0.4375,-1.078125 -1.265625,-1.078125 -1.28125,0 -2.625,1.28125 -2.625,3.484375 0,2.671875 1.15625,3.375 2.078125,3.375 1.109375,0 2.0625,-0.9375 2.0625,-2.25 0,-1.265625 -0.890625,-2.21875 -2,-2.21875 -0.671875,0 -1.046875,0.5 -1.25,0.984375 z M 2.5,-0.0625 c -0.625,0 -0.921875,-0.59375 -0.984375,-0.75 -0.1875,-0.46875 -0.1875,-1.265625 -0.1875,-1.4375 0,-0.78125 0.328125,-1.78125 1.21875,-1.78125 0.171875,0 0.625,0 0.9375,0.625 0.171875,0.359375 0.171875,0.875 0.171875,1.359375 0,0.484375 0,0.984375 -0.171875,1.34375 C 3.1875,-0.109375 2.734375,-0.0625 2.5,-0.0625 z"
               id="path5900"
               inkscape:connector-curvature="0" />
          </symbol>
        </g>
      </defs>
      <g
         style="fill:#ff0000"
         id="textext-ea238395-9">
        <g
           style="fill:#ff0000;fill-opacity:1"
           id="g5903">
          <use
             style="fill:#ff0000"
             xlink:href="#textext-ea238395-1"
             x="223.43201"
             y="134.765"
             id="use5905"
             width="744.09448"
             height="1052.3622" />
        </g>
        <g
           style="fill:#ff0000;fill-opacity:1"
           id="g5907">
          <use
             style="fill:#ff0000"
             xlink:href="#textext-ea238395-4"
             x="228.618"
             y="136.259"
             id="use5909"
             width="744.09448"
             height="1052.3622" />
        </g>
        <g
           style="fill:#ff0000;fill-opacity:1"
           id="g5911">
          <use
             style="fill:#ff0000"
             xlink:href="#textext-ea238395-6"
             x="235.854"
             y="134.765"
             id="use5913"
             width="744.09448"
             height="1052.3622" />
        </g>
        <g
           style="fill:#ff0000;fill-opacity:1"
           id="g5915">
          <use
             style="fill:#ff0000"
             xlink:href="#textext-ea238395-7"
             x="246.37251"
             y="134.765"
             id="use5917"
             width="744.09448"
             height="1052.3622" />
        </g>
        <g
           style="fill:#ff0000;fill-opacity:1"
           id="g5919">
          <use
             style="fill:#ff0000"
             xlink:href="#textext-ea238395-2"
             x="251.35201"
             y="134.765"
             id="use5921"
             width="744.09448"
             height="1052.3622" />
        </g>
        <g
           style="fill:#ff0000;fill-opacity:1"
           id="g5923">
          <use
             style="fill:#ff0000"
             xlink:href="#textext-ea238395-8"
             x="254.119"
             y="134.765"
             id="use5925"
             width="744.09448"
             height="1052.3622" />
        </g>
      </g>
    </g>
    <g
       id="g6149"
       style="fill:#ff0000"
       transform="matrix(1.4258761,0,0,1.4258761,98.786774,-14.208559)"
       ns0:preamble=""
       ns0:text="$d_2 = 2.1$">
      <defs
         id="defs6151">
        <g
           id="g6153">
          <symbol
             id="textext-eb9f314d-0"
             overflow="visible"
             style="overflow:visible">
            <path
               id="path6156"
               d=""
               style="stroke:none"
               inkscape:connector-curvature="0" />
          </symbol>
          <symbol
             id="textext-eb9f314d-1"
             overflow="visible"
             style="overflow:visible">
            <path
               id="path6159"
               d="m 5.140625,-6.8125 c 0,0 0,-0.109375 -0.125,-0.109375 -0.15625,0 -1.09375,0.09375 -1.265625,0.109375 -0.078125,0.015625 -0.140625,0.0625 -0.140625,0.1875 0,0.125 0.09375,0.125 0.234375,0.125 0.484375,0 0.5,0.0625 0.5,0.171875 L 4.3125,-6.125 3.71875,-3.765625 C 3.53125,-4.140625 3.25,-4.40625 2.796875,-4.40625 c -1.15625,0 -2.390625,1.46875 -2.390625,2.921875 0,0.9375 0.546875,1.59375 1.3125,1.59375 0.203125,0 0.703125,-0.046875 1.296875,-0.75 0.078125,0.421875 0.4375,0.75 0.90625,0.75 0.359375,0 0.578125,-0.234375 0.75,-0.546875 0.15625,-0.359375 0.296875,-0.96875 0.296875,-0.984375 0,-0.109375 -0.09375,-0.109375 -0.125,-0.109375 -0.09375,0 -0.109375,0.046875 -0.140625,0.1875 -0.171875,0.640625 -0.34375,1.234375 -0.75,1.234375 -0.28125,0 -0.296875,-0.265625 -0.296875,-0.453125 0,-0.25 0.015625,-0.3125 0.046875,-0.484375 z m -2.0625,5.625 C 3.015625,-1 3.015625,-0.984375 2.875,-0.8125 2.4375,-0.265625 2.03125,-0.109375 1.75,-0.109375 c -0.5,0 -0.640625,-0.546875 -0.640625,-0.9375 0,-0.5 0.3125,-1.71875 0.546875,-2.1875 0.3125,-0.578125 0.75,-0.953125 1.15625,-0.953125 0.640625,0 0.78125,0.8125 0.78125,0.875 0,0.0625 -0.015625,0.125 -0.03125,0.171875 z"
               style="stroke:none"
               inkscape:connector-curvature="0" />
          </symbol>
          <symbol
             id="textext-eb9f314d-2"
             overflow="visible"
             style="overflow:visible">
            <path
               id="path6162"
               d="m 1.90625,-0.53125 c 0,-0.28125 -0.234375,-0.53125 -0.515625,-0.53125 -0.296875,0 -0.53125,0.25 -0.53125,0.53125 C 0.859375,-0.234375 1.09375,0 1.390625,0 1.671875,0 1.90625,-0.234375 1.90625,-0.53125 z"
               style="stroke:none"
               inkscape:connector-curvature="0" />
          </symbol>
          <symbol
             id="textext-eb9f314d-3"
             overflow="visible"
             style="overflow:visible">
            <path
               id="path6165"
               d=""
               style="stroke:none"
               inkscape:connector-curvature="0" />
          </symbol>
          <symbol
             id="textext-eb9f314d-4"
             overflow="visible"
             style="overflow:visible">
            <path
               id="path6168"
               d="m 3.515625,-1.265625 -0.234375,0 c -0.015625,0.15625 -0.09375,0.5625 -0.1875,0.625 -0.046875,0.046875 -0.578125,0.046875 -0.6875,0.046875 l -1.28125,0 c 0.734375,-0.640625 0.984375,-0.84375 1.390625,-1.171875 0.515625,-0.40625 1,-0.84375 1,-1.5 0,-0.84375 -0.734375,-1.359375 -1.625,-1.359375 -0.859375,0 -1.453125,0.609375 -1.453125,1.25 0,0.34375 0.296875,0.390625 0.375,0.390625 0.15625,0 0.359375,-0.125 0.359375,-0.375 0,-0.125 -0.046875,-0.375 -0.40625,-0.375 C 0.984375,-4.21875 1.453125,-4.375 1.78125,-4.375 c 0.703125,0 1.0625,0.546875 1.0625,1.109375 0,0.609375 -0.4375,1.078125 -0.65625,1.328125 L 0.515625,-0.265625 C 0.4375,-0.203125 0.4375,-0.1875 0.4375,0 l 2.875,0 z"
               style="stroke:none"
               inkscape:connector-curvature="0" />
          </symbol>
          <symbol
             id="textext-eb9f314d-5"
             overflow="visible"
             style="overflow:visible">
            <path
               id="path6171"
               d=""
               style="stroke:none"
               inkscape:connector-curvature="0" />
          </symbol>
          <symbol
             id="textext-eb9f314d-6"
             overflow="visible"
             style="overflow:visible">
            <path
               id="path6174"
               d="m 6.84375,-3.265625 c 0.15625,0 0.34375,0 0.34375,-0.1875 C 7.1875,-3.65625 7,-3.65625 6.859375,-3.65625 l -5.96875,0 c -0.140625,0 -0.328125,0 -0.328125,0.203125 0,0.1875 0.1875,0.1875 0.328125,0.1875 z m 0.015625,1.9375 c 0.140625,0 0.328125,0 0.328125,-0.203125 0,-0.1875 -0.1875,-0.1875 -0.34375,-0.1875 l -5.953125,0 c -0.140625,0 -0.328125,0 -0.328125,0.1875 0,0.203125 0.1875,0.203125 0.328125,0.203125 z"
               style="stroke:none"
               inkscape:connector-curvature="0" />
          </symbol>
          <symbol
             id="textext-eb9f314d-7"
             overflow="visible"
             style="overflow:visible">
            <path
               id="path6177"
               d="m 1.265625,-0.765625 1.0625,-1.03125 c 1.546875,-1.375 2.140625,-1.90625 2.140625,-2.90625 0,-1.140625 -0.890625,-1.9375 -2.109375,-1.9375 -1.125,0 -1.859375,0.921875 -1.859375,1.8125 0,0.546875 0.5,0.546875 0.53125,0.546875 0.171875,0 0.515625,-0.109375 0.515625,-0.53125 0,-0.25 -0.1875,-0.515625 -0.53125,-0.515625 -0.078125,0 -0.09375,0 -0.125,0.015625 0.21875,-0.65625 0.765625,-1.015625 1.34375,-1.015625 0.90625,0 1.328125,0.8125 1.328125,1.625 C 3.5625,-3.90625 3.078125,-3.125 2.515625,-2.5 l -1.90625,2.125 C 0.5,-0.265625 0.5,-0.234375 0.5,0 l 3.703125,0 0.265625,-1.734375 -0.234375,0 C 4.171875,-1.4375 4.109375,-1 4,-0.84375 3.9375,-0.765625 3.28125,-0.765625 3.0625,-0.765625 z"
               style="stroke:none"
               inkscape:connector-curvature="0" />
          </symbol>
          <symbol
             id="textext-eb9f314d-8"
             overflow="visible"
             style="overflow:visible">
            <path
               id="path6180"
               d="m 2.9375,-6.375 c 0,-0.25 0,-0.265625 -0.234375,-0.265625 C 2.078125,-6 1.203125,-6 0.890625,-6 l 0,0.3125 c 0.203125,0 0.78125,0 1.296875,-0.265625 l 0,5.171875 c 0,0.359375 -0.03125,0.46875 -0.921875,0.46875 l -0.3125,0 0,0.3125 c 0.34375,-0.03125 1.203125,-0.03125 1.609375,-0.03125 0.390625,0 1.265625,0 1.609375,0.03125 l 0,-0.3125 -0.3125,0 c -0.90625,0 -0.921875,-0.109375 -0.921875,-0.46875 z"
               style="stroke:none"
               inkscape:connector-curvature="0" />
          </symbol>
        </g>
      </defs>
      <g
         id="textext-eb9f314d-9"
         style="fill:#ff0000">
        <g
           id="g6183"
           style="fill:#ff0000;fill-opacity:1">
          <use
             id="use6185"
             y="134.765"
             x="223.43201"
             xlink:href="#textext-eb9f314d-1"
             style="fill:#ff0000"
             width="744.09448"
             height="1052.3622" />
        </g>
        <g
           id="g6187"
           style="fill:#ff0000;fill-opacity:1">
          <use
             id="use6189"
             y="136.259"
             x="228.618"
             xlink:href="#textext-eb9f314d-4"
             style="fill:#ff0000"
             width="744.09448"
             height="1052.3622" />
        </g>
        <g
           id="g6191"
           style="fill:#ff0000;fill-opacity:1">
          <use
             id="use6193"
             y="134.765"
             x="235.854"
             xlink:href="#textext-eb9f314d-6"
             style="fill:#ff0000"
             width="744.09448"
             height="1052.3622" />
        </g>
        <g
           id="g6195"
           style="fill:#ff0000;fill-opacity:1">
          <use
             id="use6197"
             y="134.765"
             x="246.37251"
             xlink:href="#textext-eb9f314d-7"
             style="fill:#ff0000"
             width="744.09448"
             height="1052.3622" />
        </g>
        <g
           id="g6199"
           style="fill:#ff0000;fill-opacity:1">
          <use
             id="use6201"
             y="134.765"
             x="251.35201"
             xlink:href="#textext-eb9f314d-2"
             style="fill:#ff0000"
             width="744.09448"
             height="1052.3622" />
        </g>
        <g
           id="g6203"
           style="fill:#ff0000;fill-opacity:1">
          <use
             id="use6205"
             y="134.765"
             x="254.119"
             xlink:href="#textext-eb9f314d-8"
             style="fill:#ff0000"
             width="744.09448"
             height="1052.3622" />
        </g>
      </g>
    </g>
  </g>
</svg>
