<?xml version="1.0" encoding="UTF-8" standalone="no"?>
<!-- Created with Inkscape (http://www.inkscape.org/) -->

<svg
   xmlns:dc="http://purl.org/dc/elements/1.1/"
   xmlns:cc="http://creativecommons.org/ns#"
   xmlns:rdf="http://www.w3.org/1999/02/22-rdf-syntax-ns#"
   xmlns:svg="http://www.w3.org/2000/svg"
   xmlns="http://www.w3.org/2000/svg"
   xmlns:sodipodi="http://sodipodi.sourceforge.net/DTD/sodipodi-0.dtd"
   xmlns:inkscape="http://www.inkscape.org/namespaces/inkscape"
   inkscape:version="0.48.5 r10040"
   version="1.1"
   id="svg2"
   height="135.23836"
   width="529.37573"
   sodipodi:docname="logo_ncollide.svg">
  <defs
     id="defs4">
    <inkscape:path-effect
       effect="spiro"
       id="path-effect4656"
       is_visible="true" />
    <inkscape:path-effect
       effect="spiro"
       id="path-effect4652"
       is_visible="true" />
    <inkscape:path-effect
       effect="spiro"
       id="path-effect4648"
       is_visible="true" />
    <inkscape:path-effect
       effect="spiro"
       id="path-effect4609"
       is_visible="true" />
  </defs>
  <sodipodi:namedview
     id="base"
     pagecolor="#ffffff"
     bordercolor="#666666"
     borderopacity="1.0"
     inkscape:pageopacity="0.0"
     inkscape:pageshadow="2"
     inkscape:zoom="3.959798"
     inkscape:cx="164.34377"
     inkscape:cy="61.236058"
     inkscape:document-units="px"
     inkscape:current-layer="layer1"
     showgrid="true"
     inkscape:window-width="1918"
     inkscape:window-height="1078"
     inkscape:window-x="0"
     inkscape:window-y="0"
     inkscape:window-maximized="0"
     inkscape:snap-bbox="true"
     inkscape:snap-bbox-midpoints="true"
     inkscape:snap-global="true"
     fit-margin-top="0"
     fit-margin-left="0"
     fit-margin-right="0"
     fit-margin-bottom="0">
    <inkscape:grid
       type="xygrid"
       id="grid4677"
       empspacing="5"
       visible="true"
       enabled="true"
       snapvisiblegridlinesonly="true"
       originx="-132.83px"
       originy="-956.32654px" />
  </sodipodi:namedview>
  <metadata
     id="metadata7">
    <rdf:RDF>
      <cc:Work
         rdf:about="">
        <dc:format>image/svg+xml</dc:format>
        <dc:type
           rdf:resource="http://purl.org/dc/dcmitype/StillImage" />
        <dc:title />
      </cc:Work>
    </rdf:RDF>
  </metadata>
  <g
     inkscape:label="Calque 1"
     inkscape:groupmode="layer"
     id="layer1"
     transform="translate(-132.83,39.202722)">
    <path
       d="m 343.5999,-31.311199 c -0.63696,0 -1.29496,0.363467 -1.62803,0.904448 l -3.25601,5.426711 c -0.5204,0.04053 -1.11144,-0.05732 -1.62799,0 l -4.16048,-4.522259 c -0.43417,-0.464236 -1.18534,-0.665502 -1.80893,-0.54267 -0.62602,0.125044 -1.04378,0.487157 -1.26622,1.085344 l -2.35159,5.969381 c -0.50821,0.145886 -0.94506,0.20373 -1.44713,0.361789 l -5.06494,-3.617804 c -0.5163,-0.373378 -1.22056,-0.426322 -1.80889,-0.180865 -0.5871,0.243108 -0.98325,0.819881 -1.08532,1.447122 l -1.08533,6.150274 c -0.46656,0.241991 -0.80556,0.469326 -1.26626,0.723559 l -5.78847,-2.532473 c -0.57984,-0.2651 -1.28134,-0.173918 -1.80892,0.180865 -0.5302,0.352502 -0.74786,0.81137 -0.72357,1.447122 l 0.18048,6.331159 c -0.40575,0.324725 -0.86871,0.749842 -1.26622,1.085341 l -5.96937,-1.447122 c -0.62114,-0.144699 -1.35919,-0.08741 -1.80889,0.361791 -0.45207,0.450922 -0.68876,1.18774 -0.54238,1.808904 l 1.44709,6.1502708 c -0.33408,0.396512 -0.57988,0.679339 -0.90443,1.08534 l -6.33117,-0.180864 c -0.63332,-0.01745 -1.27425,0.374743 -1.62802,0.904448 -0.35464,0.527331 -0.26391,1.046962 0,1.628015 l 2.53249,5.788489 c -0.25275,0.458448 -0.48161,0.977907 -0.72357,1.447122 l -6.15026,0.904455 c -0.62847,0.101865 -1.20283,0.496995 -1.44713,1.085341 -0.24297,0.589557 -0.18921,1.292338 0.18048,1.808903 l 3.61785,5.0649292 c -0.15919,0.501862 -0.21574,1.119898 -0.36169,1.628015 l -5.96941,2.170682 c -0.59555,0.222266 -0.96132,0.640206 -1.08532,1.266233 -0.12358,0.624752 0.0775,1.373722 0.54238,1.808903 l 4.52224,4.160478 c -0.0576,0.516335 -0.13719,1.108957 -0.18048,1.628011 l -5.2458,3.256026 c -0.54123,0.334011 -0.90446,0.989833 -0.90446,1.628015 0,0.638182 0.36361,1.294942 0.90446,1.628014 l 5.2458,3.256023 c 0.0464,0.520387 0.12323,0.930501 0.18048,1.447125 l -4.52224,4.341367 c -0.46541,0.434138 -0.6668,1.18531 -0.54238,1.808907 0.12358,0.626023 0.4897,1.042563 1.08532,1.26623 l 5.96941,2.170681 c 0.14592,0.508233 0.20247,1.125982 0.36169,1.62802 l -3.61785,5.06492 c -0.3722,0.51807 -0.42544,1.22178 -0.18048,1.80891 0.24437,0.58956 0.81866,0.98445 1.44713,1.08534 l 6.15026,0.90445 c 0.24192,0.46945 0.46828,0.98642 0.72357,1.44712 l -2.53249,5.60761 c -0.26496,0.57983 -0.35464,1.2789 0,1.8089 0.35464,0.53138 0.9947,0.92998 1.62802,0.90445 l 6.33117,-0.18086 c 0.32675,0.40867 0.56899,0.68785 0.90443,1.08535 l -1.44709,6.15027 c -0.14592,0.61994 0.0935,1.35792 0.54238,1.8089 0.44858,0.45324 1.18775,0.50776 1.80889,0.36179 l 5.96937,-1.44712 c 0.39768,0.33802 0.86023,0.76199 1.26622,1.08534 l -0.18048,6.33116 c -0.0244,0.63575 0.1934,1.09217 0.72357,1.44712 0.52733,0.35368 1.22908,0.44601 1.80892,0.18087 l 5.78847,-2.53246 c 0.45961,0.25529 0.79823,0.48142 1.26626,0.72356 l 1.08533,6.15027 c 0.10193,0.62967 0.49724,1.20522 1.08532,1.44712 0.58714,0.24426 1.29231,0.19015 1.80889,-0.18086 l 5.06494,-3.7987 c 0.50186,0.15919 0.93903,0.3968 1.44713,0.54267 l 2.35159,5.78848 c 0.22237,0.59565 0.6402,1.14467 1.26622,1.26626 0.62481,0.12602 1.37494,-0.0761 1.80893,-0.5427 l 4.16048,-4.70314 c 0.5163,0.0596 1.1077,0.13458 1.62799,0.18087 l 3.25601,5.42669 c 0.33269,0.53833 0.99111,0.90446 1.62803,0.90446 0.63698,0 1.11283,-0.36463 1.44712,-0.90446 l 3.43692,-5.42669 c 0.52039,-0.0463 0.9305,-0.12128 1.44712,-0.18087 l 4.34134,4.70314 c 0.43417,0.46656 1.00445,0.6692 1.62803,0.5427 0.62603,-0.12288 1.22465,-0.67043 1.44712,-1.26626 l 2.17069,-5.78848 c 0.50825,-0.14589 0.9451,-0.38348 1.44713,-0.54267 l 5.0649,3.7987 c 0.5169,0.37045 1.22183,0.42516 1.80893,0.18086 0.58832,-0.24199 0.98325,-0.81867 1.08536,-1.44712 l 1.08533,-6.15027 c 0.46652,-0.242 0.98643,-0.47217 1.44712,-0.72356 l 5.60761,2.53246 c 0.57984,0.2651 1.28012,0.1728 1.80889,-0.18087 0.53023,-0.35484 0.92757,-0.81015 0.90446,-1.44712 l -0.36166,-6.33116 c 0.40575,-0.32473 0.86994,-0.74747 1.26622,-1.08534 l 6.15027,1.44712 c 0.62118,0.14588 1.17948,0.092 1.62799,-0.36179 0.45211,-0.45093 0.68876,-1.18896 0.54239,-1.8089 l -1.44723,-6.15032 c 0.33582,-0.39768 0.76199,-0.67691 1.08532,-1.08535 l 6.1503,0.18087 c 0.63333,0.023 1.27426,-0.37303 1.62799,-0.90446 0.35468,-0.53022 0.44691,-1.22906 0.18048,-1.8089 l -2.53245,-5.6076 c 0.25414,-0.46076 0.48276,-0.9779 0.72357,-1.44712 l 6.15023,-0.90445 c 0.62969,-0.10075 1.20401,-0.49585 1.44712,-1.08534 0.24297,-0.58713 0.0105,-1.29107 -0.36166,-1.80891 l -3.61781,-5.06493 c 0.15814,-0.501859 0.3959,-1.119954 0.54238,-1.628012 l 5.78847,-2.170681 c 0.59688,-0.223454 1.14467,-0.640207 1.26626,-1.266233 0.12602,-0.624812 -0.0757,-1.374941 -0.54238,-1.808904 l -4.70318,-4.34137 c 0.0576,-0.516911 0.13615,-0.928124 0.18048,-1.447122 l 5.42671,-3.256026 c 0.54067,-0.332824 0.72356,-0.991048 0.72356,-1.628011 0,-0.636967 -0.18223,-1.293731 -0.72356,-1.628015 l -5.42671,-3.256029 c -0.0464,-0.520381 -0.12427,-1.111446 -0.18048,-1.628008 l 4.70318,-4.160477 c 0.46652,-0.435297 0.66917,-1.185311 0.54238,-1.808908 -0.12288,-0.626023 -0.66928,-1.043781 -1.26626,-1.266229 l -5.78847,-2.170685 c -0.14696,-0.508229 -0.38431,-1.125979 -0.54238,-1.628011 l 3.61781,-5.0649302 c 0.37339,-0.516338 0.60491,-1.219346 0.36166,-1.808903 -0.24297,-0.587127 -0.81865,-0.98202 -1.44712,-1.085344 l -6.15006,-0.904456 c -0.24087,-0.469445 -0.47061,-0.988848 -0.72356,-1.447125 l 2.53245,-5.788486 c 0.26636,-0.581053 0.17455,-1.100453 -0.18048,-1.628014 -0.35384,-0.530226 -0.98859,-0.928766 -1.62799,-0.904452 l -6.1503,0.180864 c -0.32466,-0.40577 -0.74867,-0.690273 -1.08533,-1.08534 l 1.44713,-6.1502708 c 0.14592,-0.621164 -0.0936,-1.357922 -0.54239,-1.808903 -0.44862,-0.449767 -1.00685,-0.507765 -1.62799,-0.361789 l -6.15027,1.447122 c -0.39653,-0.335721 -0.85901,-0.760779 -1.26626,-1.08534 l 0.3617,-6.331163 c 0.0244,-0.635749 -0.37458,-1.094602 -0.90446,-1.447122 -0.53139,-0.354845 -1.22909,-0.444845 -1.80893,-0.180865 l -5.6076,2.532467 c -0.46077,-0.252987 -0.98032,-0.481485 -1.44713,-0.723563 l -1.08532,-6.15027 c -0.10194,-0.627245 -0.49725,-1.204008 -1.08537,-1.447126 -0.5871,-0.24426 -1.29227,-0.191302 -1.80889,0.180864 l -5.0649,3.617808 c -0.50074,-0.159186 -0.93902,-0.215914 -1.44713,-0.361789 l -2.17069,-5.969384 c -0.22237,-0.598068 -0.82113,-0.961354 -1.44712,-1.085341 -0.62484,-0.122706 -1.1941,0.07841 -1.62803,0.542667 l -4.34137,4.522262 c -0.51631,-0.05791 -0.92813,0.04283 -1.44709,0 l -3.43692,-5.426711 c -0.33408,-0.540645 -0.81017,-0.904451 -1.44712,-0.904451 z m -0.18048,11.215196 c 0.96649,0.02269 1.99191,0.511413 2.71331,1.266237 1.4405,1.513341 1.3299,3.983812 -0.18048,5.426711 -1.50731,1.444053 -3.8029,1.331119 -5.2458,-0.180865 -1.43924,-1.510971 -1.50958,-3.982657 0,-5.426711 0.75365,-0.722058 1.74689,-1.107826 2.71338,-1.085344 z m -45.2226,34.369165 c 1.47213,-0.02513 2.98327,0.739642 3.61782,2.170689 0.84602,1.909676 -0.0852,4.220095 -1.98982,5.064929 -1.9072,0.84726 -4.21892,-0.08172 -5.06491,-1.989796 -0.84606,-1.910894 0.0852,-4.217725 1.98979,-5.064929 0.47696,-0.211515 0.95641,-0.172696 1.44712,-0.180865 z m 90.26429,0.180865 c 0.49082,0.0087 0.9703,-0.03072 1.44709,0.180864 1.90726,0.845986 2.83585,3.155247 1.98979,5.064926 -0.84484,1.910842 -3.15649,2.83706 -5.06494,1.989796 -1.90479,-0.846049 -2.6537,-3.15282 -1.80889,-5.064933 0.6336,-1.432212 1.96503,-2.19621 3.43695,-2.170681 z m -73.80327,53.00087 c 2.03967,-0.43645 3.90375,0.85085 4.34134,2.89424 0.43647,2.04213 -0.8557,4.08465 -2.89425,4.52227 -2.03968,0.43992 -4.0834,-0.85086 -4.52221,-2.89425 -0.43647,-2.04699 1.03534,-4.08222 3.07512,-4.52226 z m 55.89513,0.18086 c 0.48157,-0.092 1.11835,-0.11 1.62799,0 2.03974,0.43646 3.33187,2.48014 2.89422,4.52226 -0.43759,2.04218 -2.48376,3.33064 -4.52221,2.89425 -2.03978,-0.43993 -3.33187,-2.47649 -2.89429,-4.52226 0.3271,-1.53255 1.44873,-2.61829 2.89429,-2.89425 z"
       id="path3684"
       inkscape:connector-curvature="0" />
    <text
       xml:space="preserve"
       style="font-size:139.63676453px;font-style:italic;font-variant:normal;font-weight:bold;font-stretch:normal;line-height:125%;letter-spacing:-11.03130531px;word-spacing:-5.72510958px;fill:#000000;fill-opacity:1;stroke:none;font-family:URW Bookman L;-inkscape-font-specification:URW Bookman L Bold Italic"
       x="116.73015"
       y="66.746674"
       id="text2985"
       sodipodi:linespacing="125%"><tspan
         sodipodi:role="line"
         id="tspan2987"
         x="116.73015"
         y="66.746674"
         style="font-style:italic;font-variant:normal;font-weight:bold;font-stretch:normal;letter-spacing:-11.03130531px;word-spacing:-5.72510958px;font-family:URW Bookman L;-inkscape-font-specification:URW Bookman L Bold Italic"
         dx="4.5099998 -2.5599999 -1.9500042 0 0 0 0 0 0">nc <tspan
   style="font-style:normal;word-spacing:-5.72510958px;fill:#ffffff;-inkscape-font-specification:URW Bookman L Bold"
   id="tspan4679"
   dx="2.3 -1.7105504">o</tspan><tspan
   style="word-spacing:9.94911957px"
   id="tspan4891"
   dx="12.148399"><tspan
     style="word-spacing:9.98402882px"
     id="tspan5103"><tspan
       style="word-spacing:10.01893806px"
       id="tspan5107"
       dx="0.17454597 0 0 0 0"><tspan
         style="word-spacing:10.05384827px"
         id="tspan5111"><tspan
           style="word-spacing:10.08875751px"
           id="tspan5113"><tspan
             style="word-spacing:10.12366581px"
             id="tspan5115"><tspan
               style="word-spacing:10.15857506px"
               id="tspan5117"><tspan
                 style="word-spacing:10.19348431px"
                 id="tspan5119"><tspan
                   style="word-spacing:10.22839355px"
                   id="tspan5121"><tspan
                     style="word-spacing:10.2633028px"
                     id="tspan5123"><tspan
                       style="word-spacing:10.29821205px"
                       id="tspan5125"><tspan
                         style="word-spacing:10.68221283px"
                         id="tspan5127"><tspan
                           style="word-spacing:11.06621361px"
                           id="tspan5129"><tspan
                             style="word-spacing:11.45021439px"
                             id="tspan5131"><tspan
                               style="word-spacing:11.83421516px"
                               id="tspan5133"><tspan
                                 style="word-spacing:12.21821594px"
                                 id="tspan5135"><tspan
                                   style="word-spacing:12.60221672px"
                                   id="tspan5137"><tspan
                                   style="word-spacing:12.9862175px"
                                   id="tspan5139"><tspan
                                   style="word-spacing:13.37021828px"
                                   id="tspan5141"><tspan
                                   style="word-spacing:13.75421906px"
                                   id="tspan5143"><tspan
                                   style="word-spacing:14.13822079px"
                                   id="tspan5145"><tspan
                                   style="word-spacing:14.52222157px"
                                   id="tspan5147"><tspan
                                   style="word-spacing:14.9062233px"
                                   id="tspan5149"><tspan
                                   style="word-spacing:15.29022503px"
                                   id="tspan5151"><tspan
                                   style="word-spacing:15.67422676px"
                                   id="tspan5153"><tspan
                                   style="word-spacing:15.63931847px"
                                   id="tspan5157"><tspan
                                   style="word-spacing:15.60440826px"
                                   id="tspan5159"><tspan
                                   style="word-spacing:15.56949806px"
                                   id="tspan5161"><tspan
                                   style="word-spacing:15.53458977px"
                                   id="tspan5163"><tspan
                                   style="word-spacing:15.49968052px"
                                   id="tspan5165"><tspan
                                   style="word-spacing:15.46477032px"
                                   id="tspan5167"><tspan
                                   style="word-spacing:15.42986012px"
                                   id="tspan5169"><tspan
                                   style="word-spacing:15.39494991px"
                                   id="tspan5171"><tspan
                                   style="word-spacing:15.01094818px"
                                   id="tspan5173"><tspan
                                   style="word-spacing:14.6269474px"
                                   id="tspan5175"><tspan
                                   style="word-spacing:14.24294567px"
                                   id="tspan5177"><tspan
                                   style="word-spacing:13.85894489px"
                                   id="tspan5179"><tspan
                                   style="word-spacing:13.47494411px"
                                   id="tspan5181"><tspan
                                   style="word-spacing:13.09094334px"
                                   id="tspan5183"><tspan
                                   style="word-spacing:12.70694256px"
                                   id="tspan5185"><tspan
                                   style="word-spacing:12.32294178px"
                                   id="tspan5187"><tspan
                                   style="word-spacing:11.938941px"
                                   id="tspan5189"><tspan
                                   style="word-spacing:11.55494022px"
                                   id="tspan5191"><tspan
                                   style="word-spacing:11.17093945px"
                                   id="tspan5193"><tspan
                                   style="word-spacing:10.78693867px"
                                   id="tspan5195"><tspan
                                   style="word-spacing:10.40293789px"
                                   id="tspan5197"><tspan
                                   style="word-spacing:10.01893711px"
                                   id="tspan5199"><tspan
                                   style="word-spacing:9.63493633px"
                                   id="tspan5201"><tspan
                                   style="word-spacing:9.25093555px"
                                   id="tspan5203"><tspan
                                   style="word-spacing:8.86693478px"
                                   id="tspan5205"><tspan
                                   style="word-spacing:8.482934px"
                                   id="tspan5207"><tspan
                                   style="word-spacing:8.09893322px"
                                   id="tspan5209"><tspan
                                   style="word-spacing:7.71493244px"
                                   id="tspan5211"><tspan
                                   style="word-spacing:7.33093166px"
                                   id="tspan5213"><tspan
                                   style="word-spacing:6.94693089px"
                                   id="tspan5215"><tspan
                                   style="word-spacing:6.56292963px"
                                   id="tspan5217"><tspan
                                   style="word-spacing:6.17892838px"
                                   id="tspan5219"><tspan
                                   style="word-spacing:5.79492712px"
                                   id="tspan5221"><tspan
                                   style="word-spacing:5.41092587px"
                                   id="tspan5223"><tspan
                                   style="word-spacing:5.02692461px"
                                   id="tspan5225"><tspan
                                   style="word-spacing:4.64292383px"
                                   id="tspan5227"><tspan
                                   style="word-spacing:4.25892258px"
                                   id="tspan5229"><tspan
                                   style="word-spacing:3.87492132px"
                                   id="tspan5231"><tspan
                                   style="word-spacing:3.49092007px"
                                   id="tspan5233"><tspan
                                   style="word-spacing:3.10691905px"
                                   id="tspan5235"><tspan
                                   style="word-spacing:2.7229178px"
                                   id="tspan5237"><tspan
                                   style="word-spacing:2.33891654px"
                                   id="tspan5239"><tspan
                                   style="word-spacing:1.9549154px"
                                   id="tspan5241"><tspan
                                   style="word-spacing:1.57091427px"
                                   id="tspan5243"><tspan
                                   style="word-spacing:1.18691325px"
                                   id="tspan5245"><tspan
                                   style="word-spacing:0.80291206px"
                                   id="tspan5247"><tspan
                                   style="word-spacing:0.41891095px"
                                   id="tspan5249"><tspan
                                   style="word-spacing:0.03490982px"
                                   id="tspan5251"><tspan
                                   style="word-spacing:-0.34909132px"
                                   id="tspan5253"><tspan
                                   style="word-spacing:-0.73309243px"
                                   id="tspan5255"><tspan
                                   style="word-spacing:-1.11709356px"
                                   id="tspan5257"><tspan
                                   style="word-spacing:-1.50109458px"
                                   id="tspan5259"><tspan
                                   style="word-spacing:-1.88509572px"
                                   id="tspan5261"><tspan
                                   style="word-spacing:-2.26909685px"
                                   id="tspan5263"><tspan
                                   style="word-spacing:-2.65309811px"
                                   id="tspan5265"><tspan
                                   style="word-spacing:-3.03709912px"
                                   id="tspan5267"><tspan
                                   style="word-spacing:-3.42110038px"
                                   id="tspan5269"><tspan
                                   style="word-spacing:-3.80510139px"
                                   id="tspan5271"><tspan
                                   style="word-spacing:-4.18910265px"
                                   id="tspan5273"><tspan
                                   style="word-spacing:-4.57310343px"
                                   id="tspan5275"><tspan
                                   style="word-spacing:-4.95710468px"
                                   id="tspan5277"><tspan
                                   style="word-spacing:-5.34110594px"
                                   id="tspan5279"><tspan
                                   style="word-spacing:-5.72510719px"
                                   id="tspan5281"><tspan
                                   style="word-spacing:-6.10910845px"
                                   id="tspan5283"><tspan
                                   style="word-spacing:-6.4931097px"
                                   id="tspan5285"><tspan
                                   style="word-spacing:-6.87711048px"
                                   id="tspan5287"><tspan
                                   style="word-spacing:-7.26111174px"
                                   id="tspan5289"><tspan
                                   style="word-spacing:-7.64511251px"
                                   id="tspan5291"><tspan
                                   style="word-spacing:-8.02911377px"
                                   id="tspan5293"><tspan
                                   style="word-spacing:-8.41311455px"
                                   id="tspan5295"><tspan
                                   style="word-spacing:-8.79711533px"
                                   id="tspan5297"><tspan
                                   style="word-spacing:-9.1811161px"
                                   id="tspan5299"><tspan
                                   style="word-spacing:-9.56511593px"
                                   id="tspan5301"><tspan
                                   style="word-spacing:-9.94911671px"
                                   id="tspan5303"><tspan
                                   style="word-spacing:-10.33311749px"
                                   id="tspan5305"><tspan
                                   style="word-spacing:-10.71711826px"
                                   id="tspan5307"><tspan
                                   style="word-spacing:-11.10111904px"
                                   id="tspan5309"><tspan
                                   style="word-spacing:-11.48511982px"
                                   id="tspan5311"><tspan
                                   style="word-spacing:-11.8691206px"
                                   id="tspan5313"><tspan
                                   style="word-spacing:-12.25312138px"
                                   id="tspan5315"><tspan
                                   style="word-spacing:-12.63712215px"
                                   id="tspan5317"><tspan
                                   style="word-spacing:-13.02112293px"
                                   id="tspan5319"><tspan
                                   style="word-spacing:-13.02112865px"
                                   id="tspan5321"><tspan
                                   style="word-spacing:-13.0560379px"
                                   id="tspan5323"><tspan
                                   style="word-spacing:-13.09094715px"
                                   id="tspan5325"><tspan
                                   style="word-spacing:-13.1258564px"
                                   id="tspan5327"><tspan
                                   style="word-spacing:-13.16076565px"
                                   id="tspan5329"><tspan
                                   style="word-spacing:-13.1956749px"
                                   id="tspan5331"><tspan
                                   style="word-spacing:-13.23058414px"
                                   id="tspan5333"><tspan
                                   style="word-spacing:-13.26549339px"
                                   id="tspan5335"><tspan
                                   style="word-spacing:-13.30040264px"
                                   id="tspan5337"><tspan
                                   style="word-spacing:-13.68440342px"
                                   id="tspan5339"><tspan
                                   style="word-spacing:-14.0684042px"
                                   id="tspan5341"><tspan
                                   style="word-spacing:-14.45240498px"
                                   id="tspan5343"><tspan
                                   style="word-spacing:-14.83640671px"
                                   id="tspan5345"><tspan
                                   style="word-spacing:-15.22040844px"
                                   id="tspan5347"><tspan
                                   style="word-spacing:-15.60441017px"
                                   id="tspan5349"><tspan
                                   style="word-spacing:-15.9884119px"
                                   id="tspan5351"><tspan
                                   style="word-spacing:-16.37241364px"
                                   id="tspan5353"><tspan
                                   style="word-spacing:-16.75641441px"
                                   id="tspan5355"
                                   dx="12.350557 0.31076434 -6.71 -3.5799997 -3.3299994"
                                   dy="0.45381948 0 0 0 0">l<tspan
   style="word-spacing:-16.8900013px"
   id="tspan5376"
   dx="-6.3500004">l</tspan>ide</tspan></tspan></tspan></tspan></tspan></tspan></tspan></tspan></tspan></tspan></tspan></tspan></tspan></tspan></tspan></tspan></tspan></tspan></tspan></tspan></tspan></tspan></tspan></tspan></tspan></tspan></tspan></tspan></tspan></tspan></tspan></tspan></tspan></tspan></tspan></tspan></tspan></tspan></tspan></tspan></tspan></tspan></tspan></tspan></tspan></tspan></tspan></tspan></tspan></tspan></tspan></tspan></tspan></tspan></tspan></tspan></tspan></tspan></tspan></tspan></tspan></tspan></tspan></tspan></tspan></tspan></tspan></tspan></tspan></tspan></tspan></tspan></tspan></tspan></tspan></tspan></tspan></tspan></tspan></tspan></tspan></tspan></tspan></tspan></tspan></tspan></tspan></tspan></tspan></tspan></tspan></tspan></tspan></tspan></tspan></tspan></tspan></tspan></tspan></tspan></tspan></tspan></tspan></tspan></tspan></tspan></tspan></tspan></tspan></tspan></tspan></tspan></tspan></tspan></tspan></tspan></tspan></tspan></tspan></tspan></tspan></tspan></tspan></tspan></tspan></tspan></text>
    <path
       style="fill:none;stroke:#000000;stroke-width:1px;stroke-linecap:butt;stroke-linejoin:miter;stroke-opacity:1"
       d=""
       id="path4654"
       inkscape:path-effect="#path-effect4656"
       inkscape:original-d="M 255.31606,73.398096 z"
       inkscape:connector-curvature="0" />
    <text
       xml:space="preserve"
       style="font-size:139.63676453px;font-style:normal;font-weight:normal;line-height:125%;letter-spacing:0px;word-spacing:0px;fill:#000000;fill-opacity:1;stroke:none;font-family:Sans"
       x="385.41705"
       y="29.900635"
       id="text5083"
       sodipodi:linespacing="125%"><tspan
         sodipodi:role="line"
         id="tspan5085"
         x="385.41705"
         y="29.900635" /></text>
  </g>
</svg>
