<?xml version="1.0" encoding="UTF-8" standalone="no"?>
<!-- Created with Inkscape (http://www.inkscape.org/) -->

<svg
   xmlns:ns0="http://www.iki.fi/pav/software/textext/"
   xmlns:dc="http://purl.org/dc/elements/1.1/"
   xmlns:cc="http://creativecommons.org/ns#"
   xmlns:rdf="http://www.w3.org/1999/02/22-rdf-syntax-ns#"
   xmlns:svg="http://www.w3.org/2000/svg"
   xmlns="http://www.w3.org/2000/svg"
   xmlns:xlink="http://www.w3.org/1999/xlink"
   xmlns:sodipodi="http://sodipodi.sourceforge.net/DTD/sodipodi-0.dtd"
   xmlns:inkscape="http://www.inkscape.org/namespaces/inkscape"
   width="219.66214"
   height="33.725998"
   id="svg5048"
   version="1.1"
   inkscape:version="0.48.4 r9939"
   sodipodi:docname="Nouveau document 5">
  <sodipodi:namedview
     id="base"
     pagecolor="#ffffff"
     bordercolor="#666666"
     borderopacity="1.0"
     inkscape:pageopacity="0.0"
     inkscape:pageshadow="2"
     inkscape:zoom="1.979899"
     inkscape:cx="249.64277"
     inkscape:cy="-95.161392"
     inkscape:document-units="px"
     inkscape:current-layer="layer1"
     showgrid="false"
     inkscape:window-width="1918"
     inkscape:window-height="1061"
     inkscape:window-x="0"
     inkscape:window-y="18"
     inkscape:window-maximized="0"
     fit-margin-top="0"
     fit-margin-left="0"
     fit-margin-right="0"
     fit-margin-bottom="0" />
  <defs
     id="defs5050" />
  <metadata
     id="metadata5053">
    <rdf:RDF>
      <cc:Work
         rdf:about="">
        <dc:format>image/svg+xml</dc:format>
        <dc:type
           rdf:resource="http://purl.org/dc/dcmitype/StillImage" />
        <dc:title></dc:title>
      </cc:Work>
    </rdf:RDF>
  </metadata>
  <g
     inkscape:label="Calque 1"
     inkscape:groupmode="layer"
     id="layer1"
     transform="translate(-81.516124,-44.953202)">
    <g
       id="g5308"
       transform="matrix(2.2086812,0,0,2.2086812,-413.1128,-236.16912)"
       ns0:preamble=""
       ns0:text="$ s_\\mathcal{A}({\\bf v}) = \\arg\\,\\max\\limits_{{\\bf p} \\in \\mathcal{A}} \\left&lt; {\\bf p}, {\\bf v} \\right&gt;$">
      <defs
         id="defs5310">
        <g
           id="g5312">
          <symbol
             id="textext-d8ab7115-0"
             overflow="visible"
             style="overflow:visible">
            <path
               id="path5315"
               d=""
               style="stroke:none"
               inkscape:connector-curvature="0" />
          </symbol>
          <symbol
             id="textext-d8ab7115-1"
             overflow="visible"
             style="overflow:visible">
            <path
               id="path5318"
               d="M 3.890625,-3.734375 C 3.625,-3.71875 3.421875,-3.5 3.421875,-3.28125 c 0,0.140625 0.09375,0.296875 0.3125,0.296875 0.21875,0 0.453125,-0.171875 0.453125,-0.5625 C 4.1875,-4 3.765625,-4.40625 3,-4.40625 c -1.3125,0 -1.6875,1.015625 -1.6875,1.453125 0,0.78125 0.734375,0.921875 1.03125,0.984375 0.515625,0.109375 1.03125,0.21875 1.03125,0.765625 0,0.25 -0.21875,1.09375 -1.421875,1.09375 -0.140625,0 -0.90625,0 -1.140625,-0.53125 0.390625,0.046875 0.640625,-0.25 0.640625,-0.53125 0,-0.21875 -0.171875,-0.34375 -0.375,-0.34375 -0.265625,0 -0.5625,0.203125 -0.5625,0.65625 0,0.5625 0.578125,0.96875 1.421875,0.96875 1.625,0 2.015625,-1.203125 2.015625,-1.65625 0,-0.359375 -0.1875,-0.609375 -0.3125,-0.71875 -0.265625,-0.28125 -0.5625,-0.34375 -1,-0.421875 -0.359375,-0.078125 -0.75,-0.15625 -0.75,-0.609375 C 1.890625,-3.578125 2.125,-4.1875 3,-4.1875 c 0.25,0 0.75,0.078125 0.890625,0.453125 z"
               style="stroke:none"
               inkscape:connector-curvature="0" />
          </symbol>
          <symbol
             id="textext-d8ab7115-2"
             overflow="visible"
             style="overflow:visible">
            <path
               id="path5321"
               d="m 2.03125,-0.015625 c 0,-0.65625 -0.25,-1.046875 -0.640625,-1.046875 -0.328125,0 -0.53125,0.25 -0.53125,0.53125 C 0.859375,-0.265625 1.0625,0 1.390625,0 1.5,0 1.640625,-0.046875 1.734375,-0.125 1.765625,-0.15625 1.78125,-0.15625 1.78125,-0.15625 c 0.015625,0 0.015625,0 0.015625,0.140625 0,0.75 -0.34375,1.34375 -0.671875,1.671875 -0.109375,0.109375 -0.109375,0.125 -0.109375,0.15625 0,0.078125 0.046875,0.109375 0.09375,0.109375 0.109375,0 0.921875,-0.765625 0.921875,-1.9375 z"
               style="stroke:none"
               inkscape:connector-curvature="0" />
          </symbol>
          <symbol
             id="textext-d8ab7115-3"
             overflow="visible"
             style="overflow:visible">
            <path
               id="path5324"
               d=""
               style="stroke:none"
               inkscape:connector-curvature="0" />
          </symbol>
          <symbol
             id="textext-d8ab7115-4"
             overflow="visible"
             style="overflow:visible">
            <path
               id="path5327"
               d="m 4.6875,-1.140625 c 0.046875,0.34375 0.09375,0.5625 0.1875,0.84375 0.078125,0.296875 0.140625,0.5 0.46875,0.5 0.359375,0 0.921875,-0.328125 0.921875,-0.484375 0,-0.046875 -0.015625,-0.0625 -0.078125,-0.0625 -0.078125,0 -0.15625,0.03125 -0.234375,0.078125 -0.09375,0.046875 -0.09375,0.046875 -0.125,0.046875 -0.109375,0 -0.203125,-0.078125 -0.21875,-0.140625 C 5.203125,-1.21875 5.09375,-4.171875 5.09375,-4.6875 c 0,-0.09375 0,-0.265625 -0.015625,-0.3125 0,-0.03125 -0.03125,-0.046875 -0.078125,-0.046875 -0.09375,0 -0.390625,0.078125 -0.546875,0.3125 L 4.375,-4.625 c -0.984375,2 -2.203125,3.53125 -2.46875,3.84375 C 1.8125,-0.671875 1.5,-0.328125 1.265625,-0.328125 1.125,-0.328125 0.78125,-0.4375 0.671875,-0.734375 0.640625,-0.78125 0.640625,-0.8125 0.609375,-0.8125 c -0.109375,0 -0.28125,0.359375 -0.28125,0.546875 0,0.296875 0.34375,0.625 0.71875,0.625 0.40625,0 0.90625,-0.625 1.453125,-1.375 0.078125,-0.09375 0.078125,-0.109375 0.09375,-0.125 0,0 0.015625,0 0.140625,0 z M 4.453125,-4.15625 c 0.015625,0.625 0.046875,1.453125 0.1875,2.59375 l -1.421875,0 c -0.109375,0 -0.234375,0 -0.390625,0.078125 0.59375,-0.828125 1.09375,-1.6875 1.609375,-2.671875 z"
               style="stroke:none"
               inkscape:connector-curvature="0" />
          </symbol>
          <symbol
             id="textext-d8ab7115-5"
             overflow="visible"
             style="overflow:visible">
            <path
               id="path5330"
               d="m 4.328125,-1.578125 c 0.109375,0 0.28125,0 0.28125,-0.15625 0,-0.1875 -0.15625,-0.1875 -0.28125,-0.1875 l -3.234375,0 c 0.109375,-1 0.953125,-1.75 2.046875,-1.75 l 1.1875,0 c 0.109375,0 0.28125,0 0.28125,-0.171875 0,-0.171875 -0.15625,-0.171875 -0.28125,-0.171875 l -1.21875,0 C 1.8125,-4.015625 0.75,-3 0.75,-1.75 c 0,1.28125 1.078125,2.28125 2.359375,2.28125 l 1.21875,0 c 0.109375,0 0.28125,0 0.28125,-0.171875 0,-0.171875 -0.15625,-0.171875 -0.28125,-0.171875 l -1.1875,0 c -1.09375,0 -1.9375,-0.75 -2.046875,-1.765625 z"
               style="stroke:none"
               inkscape:connector-curvature="0" />
          </symbol>
          <symbol
             id="textext-d8ab7115-6"
             overflow="visible"
             style="overflow:visible">
            <path
               id="path5333"
               d=""
               style="stroke:none"
               inkscape:connector-curvature="0" />
          </symbol>
          <symbol
             id="textext-d8ab7115-7"
             overflow="visible"
             style="overflow:visible">
            <path
               id="path5336"
               d="m 3.296875,2.390625 c 0,-0.03125 0,-0.046875 -0.171875,-0.21875 C 1.890625,0.921875 1.5625,-0.96875 1.5625,-2.5 c 0,-1.734375 0.375,-3.46875 1.609375,-4.703125 0.125,-0.125 0.125,-0.140625 0.125,-0.171875 0,-0.078125 -0.03125,-0.109375 -0.09375,-0.109375 -0.109375,0 -1,0.6875 -1.59375,1.953125 -0.5,1.09375 -0.625,2.203125 -0.625,3.03125 0,0.78125 0.109375,1.984375 0.65625,3.125 C 2.25,1.84375 3.09375,2.5 3.203125,2.5 c 0.0625,0 0.09375,-0.03125 0.09375,-0.109375 z"
               style="stroke:none"
               inkscape:connector-curvature="0" />
          </symbol>
          <symbol
             id="textext-d8ab7115-8"
             overflow="visible"
             style="overflow:visible">
            <path
               id="path5339"
               d="m 2.875,-2.5 c 0,-0.765625 -0.109375,-1.96875 -0.65625,-3.109375 -0.59375,-1.21875 -1.453125,-1.875 -1.546875,-1.875 -0.0625,0 -0.109375,0.046875 -0.109375,0.109375 0,0.03125 0,0.046875 0.1875,0.234375 0.984375,0.984375 1.546875,2.5625 1.546875,4.640625 0,1.71875 -0.359375,3.46875 -1.59375,4.71875 C 0.5625,2.34375 0.5625,2.359375 0.5625,2.390625 0.5625,2.453125 0.609375,2.5 0.671875,2.5 0.765625,2.5 1.671875,1.8125 2.25,0.546875 2.765625,-0.546875 2.875,-1.65625 2.875,-2.5 z"
               style="stroke:none"
               inkscape:connector-curvature="0" />
          </symbol>
          <symbol
             id="textext-d8ab7115-9"
             overflow="visible"
             style="overflow:visible">
            <path
               id="path5342"
               d="m 6.84375,-3.265625 c 0.15625,0 0.34375,0 0.34375,-0.1875 C 7.1875,-3.65625 7,-3.65625 6.859375,-3.65625 l -5.96875,0 c -0.140625,0 -0.328125,0 -0.328125,0.203125 0,0.1875 0.1875,0.1875 0.328125,0.1875 z m 0.015625,1.9375 c 0.140625,0 0.328125,0 0.328125,-0.203125 0,-0.1875 -0.1875,-0.1875 -0.34375,-0.1875 l -5.953125,0 c -0.140625,0 -0.328125,0 -0.328125,0.1875 0,0.203125 0.1875,0.203125 0.328125,0.203125 z"
               style="stroke:none"
               inkscape:connector-curvature="0" />
          </symbol>
          <symbol
             id="textext-d8ab7115-10"
             overflow="visible"
             style="overflow:visible">
            <path
               id="path5345"
               d="m 3.3125,-0.75 c 0.046875,0.390625 0.3125,0.8125 0.78125,0.8125 0.21875,0 0.828125,-0.140625 0.828125,-0.953125 l 0,-0.5625 -0.25,0 0,0.5625 c 0,0.578125 -0.25,0.640625 -0.359375,0.640625 -0.328125,0 -0.375,-0.453125 -0.375,-0.5 l 0,-1.984375 c 0,-0.421875 0,-0.8125 -0.359375,-1.1875 C 3.1875,-4.3125 2.6875,-4.46875 2.21875,-4.46875 c -0.828125,0 -1.515625,0.46875 -1.515625,1.125 0,0.296875 0.203125,0.46875 0.46875,0.46875 0.28125,0 0.453125,-0.203125 0.453125,-0.453125 0,-0.125 -0.046875,-0.453125 -0.515625,-0.453125 C 1.390625,-4.140625 1.875,-4.25 2.1875,-4.25 c 0.5,0 1.0625,0.390625 1.0625,1.28125 l 0,0.359375 c -0.515625,0.03125 -1.203125,0.0625 -1.828125,0.359375 -0.75,0.34375 -1,0.859375 -1,1.296875 0,0.8125 0.96875,1.0625 1.59375,1.0625 0.65625,0 1.109375,-0.40625 1.296875,-0.859375 z M 3.25,-2.390625 l 0,1 c 0,0.9375 -0.71875,1.28125 -1.171875,1.28125 -0.484375,0 -0.890625,-0.34375 -0.890625,-0.84375 0,-0.546875 0.421875,-1.375 2.0625,-1.4375 z"
               style="stroke:none"
               inkscape:connector-curvature="0" />
          </symbol>
          <symbol
             id="textext-d8ab7115-11"
             overflow="visible"
             style="overflow:visible">
            <path
               id="path5348"
               d="m 1.671875,-3.3125 0,-1.09375 -1.390625,0.109375 0,0.3125 c 0.703125,0 0.78125,0.0625 0.78125,0.5625 l 0,2.671875 c 0,0.4375 -0.109375,0.4375 -0.78125,0.4375 l 0,0.3125 c 0.390625,-0.015625 0.859375,-0.03125 1.140625,-0.03125 0.390625,0 0.859375,0 1.265625,0.03125 l 0,-0.3125 -0.21875,0 c -0.734375,0 -0.75,-0.109375 -0.75,-0.46875 l 0,-1.53125 c 0,-0.984375 0.421875,-1.875 1.171875,-1.875 0.0625,0 0.09375,0 0.109375,0.015625 -0.03125,0 -0.234375,0.125 -0.234375,0.390625 0,0.265625 0.21875,0.421875 0.4375,0.421875 0.171875,0 0.421875,-0.125 0.421875,-0.4375 0,-0.3125 -0.3125,-0.609375 -0.734375,-0.609375 -0.734375,0 -1.09375,0.671875 -1.21875,1.09375 z"
               style="stroke:none"
               inkscape:connector-curvature="0" />
          </symbol>
          <symbol
             id="textext-d8ab7115-12"
             overflow="visible"
             style="overflow:visible">
            <path
               id="path5351"
               d="m 2.21875,-1.71875 c -0.875,0 -0.875,-1 -0.875,-1.21875 0,-0.265625 0.015625,-0.59375 0.15625,-0.84375 0.078125,-0.109375 0.3125,-0.390625 0.71875,-0.390625 0.859375,0 0.859375,0.984375 0.859375,1.21875 0,0.265625 0,0.59375 -0.15625,0.84375 C 2.84375,-2 2.609375,-1.71875 2.21875,-1.71875 z M 1.0625,-1.328125 c 0,-0.03125 0,-0.265625 0.15625,-0.46875 0.390625,0.28125 0.8125,0.3125 1,0.3125 0.921875,0 1.609375,-0.6875 1.609375,-1.453125 0,-0.375 -0.15625,-0.734375 -0.40625,-0.96875 C 3.78125,-4.25 4.140625,-4.296875 4.3125,-4.296875 c 0.03125,0 0.078125,0 0.109375,0.015625 C 4.3125,-4.25 4.25,-4.140625 4.25,-4.015625 c 0,0.171875 0.140625,0.28125 0.296875,0.28125 0.09375,0 0.28125,-0.0625 0.28125,-0.296875 0,-0.171875 -0.109375,-0.484375 -0.5,-0.484375 -0.203125,0 -0.640625,0.0625 -1.0625,0.46875 C 2.84375,-4.375 2.4375,-4.40625 2.21875,-4.40625 c -0.9375,0 -1.625,0.6875 -1.625,1.453125 0,0.4375 0.21875,0.8125 0.46875,1.03125 -0.125,0.140625 -0.3125,0.46875 -0.3125,0.828125 0,0.3125 0.140625,0.6875 0.453125,0.890625 -0.609375,0.15625 -0.921875,0.59375 -0.921875,0.984375 0,0.71875 0.984375,1.265625 2.203125,1.265625 1.171875,0 2.203125,-0.5 2.203125,-1.28125 0,-0.34375 -0.125,-0.859375 -0.640625,-1.140625 -0.53125,-0.265625 -1.109375,-0.265625 -1.71875,-0.265625 -0.25,0 -0.671875,0 -0.75,-0.015625 C 1.265625,-0.703125 1.0625,-1 1.0625,-1.328125 z M 2.5,1.828125 c -1.015625,0 -1.703125,-0.515625 -1.703125,-1.046875 0,-0.453125 0.375,-0.828125 0.8125,-0.84375 l 0.59375,0 c 0.859375,0 1.96875,0 1.96875,0.84375 0,0.546875 -0.703125,1.046875 -1.671875,1.046875 z"
               style="stroke:none"
               inkscape:connector-curvature="0" />
          </symbol>
          <symbol
             id="textext-d8ab7115-13"
             overflow="visible"
             style="overflow:visible">
            <path
               id="path5354"
               d="m 1.09375,-3.421875 0,2.671875 c 0,0.4375 -0.109375,0.4375 -0.78125,0.4375 l 0,0.3125 c 0.359375,-0.015625 0.859375,-0.03125 1.140625,-0.03125 0.25,0 0.765625,0.015625 1.109375,0.03125 l 0,-0.3125 c -0.671875,0 -0.78125,0 -0.78125,-0.4375 l 0,-1.84375 C 1.78125,-3.625 2.5,-4.1875 3.125,-4.1875 c 0.640625,0 0.75,0.53125 0.75,1.109375 l 0,2.328125 c 0,0.4375 -0.109375,0.4375 -0.78125,0.4375 l 0,0.3125 c 0.34375,-0.015625 0.859375,-0.03125 1.125,-0.03125 0.25,0 0.78125,0.015625 1.109375,0.03125 l 0,-0.3125 c -0.65625,0 -0.765625,0 -0.765625,-0.4375 l 0,-1.84375 c 0,-1.03125 0.703125,-1.59375 1.34375,-1.59375 0.625,0 0.734375,0.53125 0.734375,1.109375 l 0,2.328125 c 0,0.4375 -0.109375,0.4375 -0.78125,0.4375 l 0,0.3125 c 0.34375,-0.015625 0.859375,-0.03125 1.125,-0.03125 0.265625,0 0.78125,0.015625 1.125,0.03125 l 0,-0.3125 c -0.515625,0 -0.765625,0 -0.78125,-0.296875 l 0,-1.90625 c 0,-0.859375 0,-1.15625 -0.3125,-1.515625 -0.140625,-0.171875 -0.46875,-0.375 -1.046875,-0.375 -0.828125,0 -1.28125,0.59375 -1.4375,0.984375 C 4.390625,-4.296875 3.65625,-4.40625 3.203125,-4.40625 2.46875,-4.40625 2,-3.984375 1.71875,-3.359375 l 0,-1.046875 -1.40625,0.109375 0,0.3125 c 0.703125,0 0.78125,0.0625 0.78125,0.5625 z"
               style="stroke:none"
               inkscape:connector-curvature="0" />
          </symbol>
          <symbol
             id="textext-d8ab7115-14"
             overflow="visible"
             style="overflow:visible">
            <path
               id="path5357"
               d="M 2.859375,-2.34375 C 3.15625,-2.71875 3.53125,-3.203125 3.78125,-3.46875 4.09375,-3.828125 4.5,-3.984375 4.96875,-3.984375 l 0,-0.3125 c -0.265625,0.015625 -0.5625,0.03125 -0.828125,0.03125 -0.296875,0 -0.828125,-0.015625 -0.953125,-0.03125 l 0,0.3125 c 0.21875,0.015625 0.296875,0.140625 0.296875,0.3125 0,0.15625 -0.109375,0.28125 -0.15625,0.34375 L 2.71875,-2.546875 1.9375,-3.5625 C 1.84375,-3.65625 1.84375,-3.671875 1.84375,-3.734375 c 0,-0.15625 0.15625,-0.25 0.34375,-0.25 l 0,-0.3125 c -0.25,0.015625 -0.90625,0.03125 -1.078125,0.03125 -0.203125,0 -0.671875,-0.015625 -0.9375,-0.03125 l 0,0.3125 c 0.703125,0 0.703125,0 1.171875,0.609375 l 0.984375,1.28125 -0.9375,1.1875 C 0.921875,-0.328125 0.328125,-0.3125 0.125,-0.3125 L 0.125,0 c 0.25,-0.015625 0.5625,-0.03125 0.828125,-0.03125 0.28125,0 0.703125,0.015625 0.9375,0.03125 l 0,-0.3125 c -0.21875,-0.03125 -0.28125,-0.15625 -0.28125,-0.3125 0,-0.21875 0.28125,-0.546875 0.890625,-1.265625 l 0.765625,1 C 3.34375,-0.78125 3.46875,-0.625 3.46875,-0.5625 c 0,0.09375 -0.09375,0.25 -0.359375,0.25 l 0,0.3125 C 3.40625,-0.015625 3.96875,-0.03125 4.1875,-0.03125 c 0.265625,0 0.65625,0.015625 0.953125,0.03125 l 0,-0.3125 c -0.53125,0 -0.71875,-0.015625 -0.9375,-0.3125 z"
               style="stroke:none"
               inkscape:connector-curvature="0" />
          </symbol>
          <symbol
             id="textext-d8ab7115-15"
             overflow="visible"
             style="overflow:visible">
            <path
               id="path5360"
               d=""
               style="stroke:none"
               inkscape:connector-curvature="0" />
          </symbol>
          <symbol
             id="textext-d8ab7115-16"
             overflow="visible"
             style="overflow:visible">
            <path
               id="path5363"
               d="m 5.046875,-3.75 c 0.0625,-0.140625 0.09375,-0.203125 0.734375,-0.203125 l 0,-0.46875 C 5.53125,-4.40625 5.25,-4.390625 5,-4.390625 c -0.25,0 -0.703125,-0.03125 -0.90625,-0.03125 l 0,0.46875 c 0.1875,0 0.46875,0.03125 0.46875,0.109375 0,0 0,0.03125 -0.046875,0.109375 l -1.15625,2.5 -1.265625,-2.71875 0.53125,0 0,-0.46875 c -0.328125,0.015625 -1.21875,0.03125 -1.234375,0.03125 -0.28125,0 -0.71875,-0.03125 -1.125,-0.03125 l 0,0.46875 0.625,0 1.75,3.75 c 0.125,0.25 0.25,0.25 0.375,0.25 0.171875,0 0.28125,-0.03125 0.375,-0.25 z"
               style="stroke:none"
               inkscape:connector-curvature="0" />
          </symbol>
          <symbol
             id="textext-d8ab7115-17"
             overflow="visible"
             style="overflow:visible">
            <path
               id="path5366"
               d="m 2.1875,-3.28125 c 0,-0.1875 0.015625,-0.203125 0.15625,-0.34375 0.390625,-0.40625 0.921875,-0.46875 1.140625,-0.46875 0.65625,0 1.21875,0.609375 1.21875,1.875 0,1.40625 -0.703125,1.921875 -1.34375,1.921875 -0.140625,0 -0.609375,0 -1.0625,-0.546875 C 2.1875,-0.96875 2.1875,-0.984375 2.1875,-1.171875 z m 0,2.890625 c 0.4375,0.34375 0.875,0.453125 1.28125,0.453125 1.5,0 2.515625,-0.90625 2.515625,-2.28125 0,-1.328125 -0.90625,-2.265625 -2.34375,-2.265625 -0.75,0 -1.28125,0.3125 -1.5,0.484375 l 0,-0.484375 -1.765625,0.078125 0,0.46875 c 0.609375,0 0.6875,0 0.6875,0.375 l 0,5.03125 -0.6875,0 0,0.46875 C 0.640625,1.921875 1.25,1.90625 1.625,1.90625 c 0.390625,0 0.984375,0.015625 1.25,0.03125 l 0,-0.46875 -0.6875,0 z"
               style="stroke:none"
               inkscape:connector-curvature="0" />
          </symbol>
          <symbol
             id="textext-d8ab7115-18"
             overflow="visible"
             style="overflow:visible">
            <path
               id="path5369"
               d=""
               style="stroke:none"
               inkscape:connector-curvature="0" />
          </symbol>
          <symbol
             id="textext-d8ab7115-19"
             overflow="visible"
             style="overflow:visible">
            <path
               id="path5372"
               d="m 2.203125,0.96875 -0.46875,0 0,-1.234375 c 0.171875,0.125 0.515625,0.3125 1,0.3125 1.203125,0 1.9375,-0.6875 1.9375,-1.59375 0,-0.84375 -0.609375,-1.59375 -1.796875,-1.59375 -0.359375,0 -0.78125,0.078125 -1.1875,0.328125 l 0,-0.328125 -1.296875,0.0625 0,0.390625 c 0.109375,0 0.25,0 0.34375,0.015625 0.109375,0.015625 0.109375,0.09375 0.109375,0.21875 l 0,3.421875 -0.453125,0 0,0.390625 c 0,0 0.5625,-0.03125 0.90625,-0.03125 0.328125,0 0.890625,0.03125 0.90625,0.03125 z m -0.46875,-3.203125 c 0,-0.125 0,-0.140625 0.109375,-0.21875 C 2.171875,-2.75 2.578125,-2.78125 2.734375,-2.78125 c 0.59375,0 0.96875,0.46875 0.96875,1.234375 0,0.90625 -0.53125,1.265625 -1.0625,1.265625 -0.515625,0 -0.828125,-0.375 -0.90625,-0.5 z"
               style="stroke:none"
               inkscape:connector-curvature="0" />
          </symbol>
          <symbol
             id="textext-d8ab7115-20"
             overflow="visible"
             style="overflow:visible">
            <path
               id="path5375"
               d=""
               style="stroke:none"
               inkscape:connector-curvature="0" />
          </symbol>
          <symbol
             id="textext-d8ab7115-21"
             overflow="visible"
             style="overflow:visible">
            <path
               id="path5378"
               d="M 3.265625,-7.09375 C 3.3125,-7.203125 3.3125,-7.234375 3.3125,-7.28125 c 0,-0.109375 -0.078125,-0.203125 -0.1875,-0.203125 -0.09375,0 -0.171875,0.0625 -0.234375,0.234375 l -1.75,4.578125 C 1.125,-2.609375 1.09375,-2.546875 1.09375,-2.5 c 0,0.03125 0,0.0625 0.046875,0.171875 L 2.890625,2.25 C 2.9375,2.359375 2.984375,2.5 3.125,2.5 c 0.109375,0 0.1875,-0.09375 0.1875,-0.203125 0,-0.03125 0,-0.046875 -0.046875,-0.15625 L 1.5,-2.5 z"
               style="stroke:none"
               inkscape:connector-curvature="0" />
          </symbol>
          <symbol
             id="textext-d8ab7115-22"
             overflow="visible"
             style="overflow:visible">
            <path
               id="path5381"
               d="M 2.71875,-2.328125 C 2.765625,-2.4375 2.765625,-2.46875 2.765625,-2.5 c 0,-0.015625 0,-0.046875 -0.046875,-0.15625 L 0.984375,-7.25 c -0.0625,-0.171875 -0.125,-0.234375 -0.234375,-0.234375 -0.109375,0 -0.203125,0.09375 -0.203125,0.203125 0,0.03125 0,0.046875 0.046875,0.15625 L 2.359375,-2.5 0.59375,2.109375 C 0.546875,2.21875 0.546875,2.25 0.546875,2.296875 0.546875,2.40625 0.640625,2.5 0.75,2.5 0.875,2.5 0.921875,2.390625 0.953125,2.296875 z"
               style="stroke:none"
               inkscape:connector-curvature="0" />
          </symbol>
        </g>
      </defs>
      <g
         id="textext-d8ab7115-23">
        <g
           id="g5384"
           style="fill:#000000;fill-opacity:1">
          <use
             id="use5386"
             y="134.765"
             x="223.43201"
             xlink:href="#textext-d8ab7115-1"
             width="744.09448"
             height="1052.3622" />
        </g>
        <g
           id="g5388"
           style="fill:#000000;fill-opacity:1">
          <use
             id="use5390"
             y="136.259"
             x="228.10201"
             xlink:href="#textext-d8ab7115-4"
             width="744.09448"
             height="1052.3622" />
        </g>
        <g
           id="g5392"
           style="fill:#000000;fill-opacity:1">
          <use
             id="use5394"
             y="134.765"
             x="234.99899"
             xlink:href="#textext-d8ab7115-7"
             width="744.09448"
             height="1052.3622" />
        </g>
        <g
           id="g5396"
           style="fill:#000000;fill-opacity:1">
          <use
             id="use5398"
             y="134.765"
             x="238.87399"
             xlink:href="#textext-d8ab7115-16"
             width="744.09448"
             height="1052.3622" />
        </g>
        <g
           id="g5400"
           style="fill:#000000;fill-opacity:1">
          <use
             id="use5402"
             y="134.765"
             x="245.08"
             xlink:href="#textext-d8ab7115-8"
             width="744.09448"
             height="1052.3622" />
        </g>
        <g
           id="g5404"
           style="fill:#000000;fill-opacity:1">
          <use
             id="use5406"
             y="134.765"
             x="251.72406"
             xlink:href="#textext-d8ab7115-9"
             width="744.09448"
             height="1052.3622" />
        </g>
        <g
           id="g5408"
           style="fill:#000000;fill-opacity:1">
          <use
             id="use5410"
             y="134.765"
             x="262.2326"
             xlink:href="#textext-d8ab7115-10"
             width="744.09448"
             height="1052.3622" />
          <use
             id="use5412"
             y="134.765"
             x="267.2139"
             xlink:href="#textext-d8ab7115-11"
             width="744.09448"
             height="1052.3622" />
          <use
             id="use5414"
             y="134.765"
             x="271.11627"
             xlink:href="#textext-d8ab7115-12"
             width="744.09448"
             height="1052.3622" />
        </g>
        <g
           id="g5416"
           style="fill:#000000;fill-opacity:1">
          <use
             id="use5418"
             y="134.765"
             x="279.56454"
             xlink:href="#textext-d8ab7115-13"
             width="744.09448"
             height="1052.3622" />
          <use
             id="use5420"
             y="134.765"
             x="287.86636"
             xlink:href="#textext-d8ab7115-10"
             width="744.09448"
             height="1052.3622" />
          <use
             id="use5422"
             y="134.765"
             x="292.84769"
             xlink:href="#textext-d8ab7115-14"
             width="744.09448"
             height="1052.3622" />
        </g>
        <g
           id="g5424"
           style="fill:#000000;fill-opacity:1">
          <use
             id="use5426"
             y="141.19099"
             x="280.444"
             xlink:href="#textext-d8ab7115-19"
             width="744.09448"
             height="1052.3622" />
        </g>
        <g
           id="g5428"
           style="fill:#000000;fill-opacity:1">
          <use
             id="use5430"
             y="141.19099"
             x="285.453"
             xlink:href="#textext-d8ab7115-5"
             width="744.09448"
             height="1052.3622" />
          <use
             id="use5432"
             y="141.19099"
             x="290.82144"
             xlink:href="#textext-d8ab7115-4"
             width="744.09448"
             height="1052.3622" />
        </g>
        <g
           id="g5434"
           style="fill:#000000;fill-opacity:1">
          <use
             id="use5436"
             y="134.765"
             x="299.763"
             xlink:href="#textext-d8ab7115-21"
             width="744.09448"
             height="1052.3622" />
        </g>
        <g
           id="g5438"
           style="fill:#000000;fill-opacity:1">
          <use
             id="use5440"
             y="134.765"
             x="303.638"
             xlink:href="#textext-d8ab7115-17"
             width="744.09448"
             height="1052.3622" />
        </g>
        <g
           id="g5442"
           style="fill:#000000;fill-opacity:1">
          <use
             id="use5444"
             y="134.765"
             x="310.00299"
             xlink:href="#textext-d8ab7115-2"
             width="744.09448"
             height="1052.3622" />
        </g>
        <g
           id="g5446"
           style="fill:#000000;fill-opacity:1">
          <use
             id="use5448"
             y="134.765"
             x="314.431"
             xlink:href="#textext-d8ab7115-16"
             width="744.09448"
             height="1052.3622" />
        </g>
        <g
           id="g5450"
           style="fill:#000000;fill-opacity:1">
          <use
             id="use5452"
             y="134.765"
             x="320.63599"
             xlink:href="#textext-d8ab7115-22"
             width="744.09448"
             height="1052.3622" />
        </g>
      </g>
    </g>
  </g>
</svg>
