<?xml version="1.0"?>
<!DOCTYPE svg PUBLIC "-//W3C//DTD SVG 1.1//EN" "http://www.w3.org/Graphics/SVG/1.1/DTD/svg11.dtd">
<svg xmlns="http://www.w3.org/2000/svg" xmlns:xl="http://www.w3.org/1999/xlink" version="1.1" viewBox="32 138 632 143" width="632pt" height="143pt"><metadata xmlns:dc="http://purl.org/dc/elements/1.1/"><dc:date>2013-02-01 03:46Z</dc:date><!-- Produced by OmniGraffle Professional 5.4.2 --></metadata><defs></defs><g stroke="none" stroke-opacity="1" stroke-dasharray="none" fill="none" fill-opacity="1"><title>Canvas 1</title><g><title>Layer 1</title><path d="M 376.9156 234.96836 L 491.79927 161.7794 L 518.05324 202.98988 L 403.16957 276.17885 Z" stroke="red" stroke-linecap="round" stroke-linejoin="round" stroke-width="1"/><rect x="218.92858" y="161.61789" width="103.61446" height="99.65737" stroke="red" stroke-linecap="round" stroke-linejoin="round" stroke-width="1"/><ellipse cx="104.00602" cy="209.62651" rx="69.06637" ry="68.963966" stroke="red" stroke-linecap="round" stroke-linejoin="round" stroke-width="1"/><path d="M 59.638555 222.59037 L 49.39759 249.37403 L 83.97886 262.60918 L 114.15663 236.44579 L 70.013348 252.63486 L 85.240966 239.15663 L 66.688226 245.92138 L 153.01205 162.95181 Z" fill="white"/><path d="M 59.638555 222.59037 L 49.39759 249.37403 L 83.97886 262.60918 L 114.15663 236.44579 L 70.013348 252.63486 L 85.240966 239.15663 L 66.688226 245.92138 L 153.01205 162.95181 Z" stroke="black" stroke-linecap="round" stroke-linejoin="round" stroke-width="1"/><path d="M 229.16954 221.25646 L 218.92858 248.04012 L 253.50984 261.27527 L 283.68761 235.11188 L 239.54433 251.30095 L 254.77195 237.82272 L 236.21921 244.58747 L 322.54304 161.6179 Z" fill="white"/><path d="M 229.16954 221.25646 L 218.92858 248.04012 L 253.50984 261.27527 L 283.68761 235.11188 L 239.54433 251.30095 L 254.77195 237.82272 L 236.21921 244.58747 L 322.54304 161.6179 Z" stroke="black" stroke-linecap="round" stroke-linejoin="round" stroke-width="1"/><path d="M 398.70053 222.59038 L 388.45957 249.37404 L 423.04083 262.60919 L 453.2186 236.4458 L 409.07532 252.63487 L 424.30294 239.15664 L 405.7502 245.92139 L 492.07403 162.95182 Z" fill="white"/><path d="M 398.70053 222.59038 L 388.45957 249.37404 L 423.04083 262.60919 L 453.2186 236.4458 L 409.07532 252.63487 L 424.30294 239.15664 L 405.7502 245.92139 L 492.07403 162.95182 Z" stroke="black" stroke-linecap="round" stroke-linejoin="round" stroke-width="1"/><path d="M 568.23153 222.59038 L 557.99056 249.37404 L 592.57183 262.60919 L 622.7496 236.4458 L 578.60632 252.63487 L 593.83394 239.15664 L 575.2812 245.92139 L 661.60502 162.95182 Z" fill="white"/><path d="M 568.23153 222.59038 L 557.99056 249.37404 L 592.57183 262.60919 L 622.7496 236.4458 L 578.60632 252.63487 L 593.83394 239.15664 L 575.2812 245.92139 L 661.60502 162.95182 Z" stroke="black" stroke-linecap="round" stroke-linejoin="round" stroke-width="1"/><path d="M 592.2018 262.84403 L 557.79815 249.77063 L 567.66053 222.01834 L 661.46787 163.30275 L 622.93576 236.9266 Z" stroke="red" stroke-linecap="round" stroke-linejoin="round" stroke-width="1"/></g></g></svg>
