<?xml version="1.0" encoding="UTF-8" standalone="no"?>
<svg
   xmlns:ns0="http://www.iki.fi/pav/software/textext/"
   xmlns:dc="http://purl.org/dc/elements/1.1/"
   xmlns:cc="http://creativecommons.org/ns#"
   xmlns:rdf="http://www.w3.org/1999/02/22-rdf-syntax-ns#"
   xmlns:svg="http://www.w3.org/2000/svg"
   xmlns="http://www.w3.org/2000/svg"
   xmlns:xlink="http://www.w3.org/1999/xlink"
   xmlns:sodipodi="http://sodipodi.sourceforge.net/DTD/sodipodi-0.dtd"
   xmlns:inkscape="http://www.inkscape.org/namespaces/inkscape"
   version="1.1"
   viewBox="32 138 167.99065 167.76426"
   width="209.98831"
   height="209.70532"
   id="svg5030"
   inkscape:version="0.91 r"
   sodipodi:docname="bounding_volume_bounding_sphere_loose.svg">
  <sodipodi:namedview
     pagecolor="#ffffff"
     bordercolor="#666666"
     borderopacity="1"
     objecttolerance="10"
     gridtolerance="10"
     guidetolerance="10"
     inkscape:pageopacity="0"
     inkscape:pageshadow="2"
     inkscape:window-width="1918"
     inkscape:window-height="1181"
     id="namedview5068"
     showgrid="true"
     fit-margin-top="0"
     fit-margin-left="0"
     fit-margin-right="0"
     fit-margin-bottom="0"
     inkscape:zoom="3.2652222"
     inkscape:cx="78.640215"
     inkscape:cy="113.92269"
     inkscape:window-x="0"
     inkscape:window-y="18"
     inkscape:window-maximized="0"
     inkscape:current-layer="g5036"
     inkscape:snap-bbox="true"
     inkscape:snap-bbox-midpoints="true">
    <inkscape:grid
       type="xygrid"
       id="grid5082"
       empspacing="5"
       visible="true"
       enabled="true"
       snapvisiblegridlinesonly="true"
       originx="15.003246px"
       originy="16.055326px" />
  </sodipodi:namedview>
  <metadata
     id="metadata5032">
    <dc:date>2013-02-01 03:46Z</dc:date>
    <!-- Produced by OmniGraffle Professional 5.4.2 -->
    <rdf:RDF>
      <cc:Work
         rdf:about="">
        <dc:format>image/svg+xml</dc:format>
        <dc:type
           rdf:resource="http://purl.org/dc/dcmitype/StillImage" />
        <dc:title />
      </cc:Work>
    </rdf:RDF>
  </metadata>
  <defs
     id="defs5034">
    <marker
       inkscape:stockid="Arrow2Mend"
       orient="auto"
       refY="0.0"
       refX="0.0"
       id="Arrow2Mend"
       style="overflow:visible;"
       inkscape:isstock="true">
      <path
         id="path4189"
         style="fill-rule:evenodd;stroke-width:0.625;stroke-linejoin:round;stroke:#008000;stroke-opacity:1;fill:#008000;fill-opacity:1"
         d="M 8.7185878,4.0337352 L -2.2072895,0.016013256 L 8.7185884,-4.0017078 C 6.9730900,-1.6296469 6.9831476,1.6157441 8.7185878,4.0337352 z "
         transform="scale(0.6) rotate(180) translate(0,0)" />
    </marker>
    <marker
       style="overflow:visible"
       id="Arrow1Mendy"
       refX="0"
       refY="0"
       orient="auto"
       inkscape:stockid="Arrow1Mendy">
      <path
         inkscape:connector-curvature="0"
         transform="matrix(-0.4,0,0,-0.4,-4,0)"
         style="fill:#008000;fill-rule:evenodd;stroke:#008000;stroke-width:1pt"
         d="M 0,0 5,-5 -12.5,0 5,5 0,0 z"
         id="path4472" />
    </marker>
  </defs>
  <g
     id="g5036"
     style="fill:none;stroke:none"
     transform="translate(12.002596,11.91999)">
    <title
       id="title5038">Canvas 1</title>
    <ellipse
       style="stroke:#ff0000;stroke-width:1;stroke-linecap:round;stroke-linejoin:round"
       sodipodi:ry="68.963966"
       sodipodi:rx="69.066368"
       sodipodi:cy="209.62651"
       sodipodi:cx="104.00602"
       id="ellipse5048"
       ry="68.963966"
       rx="69.066368"
       cy="209.62651"
       cx="104.00602" />
    <path
       style="fill:#ffffff"
       inkscape:connector-curvature="0"
       id="path5050"
       d="m 59.638555,222.59037 -10.240965,26.78366 34.58127,13.23515 30.17777,-26.16339 -44.143282,16.18907 15.227618,-13.47823 -18.55274,6.76475 86.323824,-82.96957 z" />
    <path
       style="stroke:#000000;stroke-width:1;stroke-linecap:round;stroke-linejoin:round"
       inkscape:connector-curvature="0"
       id="path5052"
       d="m 59.638555,222.59037 -10.240965,26.78366 34.58127,13.23515 30.17777,-26.16339 -44.143282,16.18907 15.227618,-13.47823 -18.55274,6.76475 86.323824,-82.96957 z" />
    <ellipse
       style="fill:none;stroke:#008000;stroke-width:1;stroke-linecap:round;stroke-linejoin:round"
       sodipodi:ry="68.963966"
       sodipodi:rx="69.066368"
       sodipodi:cy="209.62651"
       sodipodi:cx="104.00602"
       id="ellipse5048-1"
       ry="68.963966"
       rx="69.066368"
       cy="209.62651"
       cx="104.00602"
       transform="matrix(1.20748,0,0,1.20748,-21.585189,-43.15586)" />
    <path
       inkscape:connector-curvature="0"
       id="path3068"
       d="m 172.81824,209.43175 13.58176,0"
       style="fill:#008000;stroke:#008000;stroke-width:0.73680007;stroke-linecap:round;stroke-linejoin:miter;stroke-miterlimit:4;stroke-opacity:1;stroke-dasharray:0.73680007, 1.47360014000000006;stroke-dashoffset:0;marker-start:none;marker-end:url(#Arrow2Mend)" />
    <g
       style="fill:#008000;stroke:none"
       transform="translate(-47.807007,70.783439)"
       ns0:text="$m$"
       ns0:preamble=""
       id="g4511">
      <defs
         id="defs4513">
        <g
           id="g4515">
          <symbol
             style="overflow:visible"
             overflow="visible"
             id="textext-08e211e0-0">
            <path
               inkscape:connector-curvature="0"
               style="stroke:none"
               d=""
               id="path4518" />
          </symbol>
          <symbol
             style="overflow:visible"
             overflow="visible"
             id="textext-08e211e0-1">
            <path
               inkscape:connector-curvature="0"
               style="stroke:none"
               d="m 0.875,-0.59375 c -0.03125,0.15625 -0.09375,0.390625 -0.09375,0.4375 0,0.171875 0.140625,0.265625 0.296875,0.265625 0.125,0 0.296875,-0.078125 0.375,-0.28125 0,-0.015625 0.125,-0.484375 0.1875,-0.734375 l 0.21875,-0.890625 C 1.90625,-2.03125 1.96875,-2.25 2.03125,-2.46875 c 0.03125,-0.171875 0.109375,-0.46875 0.125,-0.5 0.140625,-0.3125 0.671875,-1.21875 1.625,-1.21875 0.453125,0 0.53125,0.375 0.53125,0.703125 0,0.25 -0.0625,0.53125 -0.140625,0.828125 L 3.890625,-1.5 3.6875,-0.75 c -0.03125,0.203125 -0.125,0.546875 -0.125,0.59375 0,0.171875 0.140625,0.265625 0.28125,0.265625 0.3125,0 0.375,-0.25 0.453125,-0.5625 0.140625,-0.5625 0.515625,-2.015625 0.59375,-2.40625 0.03125,-0.125 0.5625,-1.328125 1.65625,-1.328125 0.421875,0 0.53125,0.34375 0.53125,0.703125 0,0.5625 -0.421875,1.703125 -0.625,2.234375 -0.078125,0.234375 -0.125,0.34375 -0.125,0.546875 0,0.46875 0.34375,0.8125 0.8125,0.8125 0.9375,0 1.3125,-1.453125 1.3125,-1.53125 0,-0.109375 -0.09375,-0.109375 -0.125,-0.109375 -0.09375,0 -0.09375,0.03125 -0.140625,0.1875 -0.15625,0.53125 -0.46875,1.234375 -1.015625,1.234375 -0.171875,0 -0.25,-0.09375 -0.25,-0.328125 0,-0.25 0.09375,-0.484375 0.1875,-0.703125 0.1875,-0.53125 0.609375,-1.625 0.609375,-2.203125 0,-0.640625 -0.40625,-1.0625 -1.15625,-1.0625 -0.734375,0 -1.25,0.4375 -1.625,0.96875 0,-0.125 -0.03125,-0.46875 -0.3125,-0.703125 -0.25,-0.21875 -0.5625,-0.265625 -0.8125,-0.265625 -0.90625,0 -1.390625,0.640625 -1.5625,0.875 -0.046875,-0.578125 -0.46875,-0.875 -0.921875,-0.875 -0.453125,0 -0.640625,0.390625 -0.734375,0.5625 -0.171875,0.359375 -0.296875,0.9375 -0.296875,0.96875 0,0.109375 0.09375,0.109375 0.109375,0.109375 0.109375,0 0.109375,-0.015625 0.171875,-0.234375 0.171875,-0.703125 0.375,-1.1875 0.734375,-1.1875 0.15625,0 0.296875,0.078125 0.296875,0.453125 0,0.21875 -0.03125,0.328125 -0.15625,0.84375 z"
               id="path4521" />
          </symbol>
        </g>
      </defs>
      <g
         style="fill:#008000"
         id="textext-08e211e0-2">
        <g
           style="fill:#008000;fill-opacity:1"
           id="g4524">
          <use
             style="fill:#008000"
             height="131.24731"
             width="136.40694"
             xlink:href="#textext-08e211e0-1"
             x="223.43201"
             y="134.765"
             id="use4526" />
        </g>
      </g>
    </g>
  </g>
</svg>
