<?xml version="1.0" encoding="UTF-8" standalone="no"?>
<!-- Created with Inkscape (http://www.inkscape.org/) -->

<svg
   xmlns:ns0="http://www.iki.fi/pav/software/textext/"
   xmlns:dc="http://purl.org/dc/elements/1.1/"
   xmlns:cc="http://creativecommons.org/ns#"
   xmlns:rdf="http://www.w3.org/1999/02/22-rdf-syntax-ns#"
   xmlns:svg="http://www.w3.org/2000/svg"
   xmlns="http://www.w3.org/2000/svg"
   xmlns:xlink="http://www.w3.org/1999/xlink"
   xmlns:sodipodi="http://sodipodi.sourceforge.net/DTD/sodipodi-0.dtd"
   xmlns:inkscape="http://www.inkscape.org/namespaces/inkscape"
   width="247.6808"
   height="189.82237"
   id="svg2"
   version="1.1"
   inkscape:version="0.48.5 r10040"
   sodipodi:docname="concavity_normalizer.svg">
  <sodipodi:namedview
     id="base"
     pagecolor="#ffffff"
     bordercolor="#666666"
     borderopacity="1.0"
     inkscape:pageopacity="0.0"
     inkscape:pageshadow="2"
     inkscape:zoom="2"
     inkscape:cx="121.89309"
     inkscape:cy="68.110859"
     inkscape:document-units="px"
     inkscape:current-layer="layer1"
     showgrid="true"
     inkscape:snap-global="false"
     inkscape:window-width="1918"
     inkscape:window-height="1061"
     inkscape:window-x="0"
     inkscape:window-y="18"
     inkscape:window-maximized="0"
     inkscape:snap-bbox="true"
     inkscape:snap-bbox-midpoints="true"
     fit-margin-top="0"
     fit-margin-left="0"
     fit-margin-right="0"
     fit-margin-bottom="0">
    <inkscape:grid
       originy="-783.37855px"
       originx="-163.18703px"
       snapvisiblegridlinesonly="true"
       enabled="true"
       visible="true"
       empspacing="5"
       id="grid2985"
       type="xygrid" />
  </sodipodi:namedview>
  <defs
     id="defs4">
    <marker
       style="overflow:visible"
       id="Arrow1Send"
       refX="0"
       refY="0"
       orient="auto"
       inkscape:stockid="Arrow1Send">
      <path
         inkscape:connector-curvature="0"
         transform="matrix(-0.2,0,0,-0.2,-1.2,0)"
         style="fill-rule:evenodd;stroke:#000000;stroke-width:1pt"
         d="M 0,0 5,-5 -12.5,0 5,5 0,0 z"
         id="path3778" />
    </marker>
    <marker
       style="overflow:visible"
       id="Arrow2Mend"
       refX="0"
       refY="0"
       orient="auto"
       inkscape:stockid="Arrow2Mend">
      <path
         inkscape:connector-curvature="0"
         transform="scale(-0.6,-0.6)"
         d="M 8.7185878,4.0337352 -2.2072895,0.01601326 8.7185884,-4.0017078 c -1.7454984,2.3720609 -1.7354408,5.6174519 -6e-7,8.035443 z"
         style="fill-rule:evenodd;stroke-width:0.625;stroke-linejoin:round"
         id="path3790" />
    </marker>
    <marker
       style="overflow:visible"
       id="Arrow1Sendj"
       refX="0"
       refY="0"
       orient="auto"
       inkscape:stockid="Arrow1Sendj">
      <path
         inkscape:connector-curvature="0"
         transform="matrix(-0.2,0,0,-0.2,-1.2,0)"
         style="fill:#b7c8b7;fill-rule:evenodd;stroke:#b7c8b7;stroke-width:1pt"
         d="M 0,0 5,-5 -12.5,0 5,5 0,0 z"
         id="path4958" />
    </marker>
    <marker
       style="overflow:visible"
       id="Arrow1Send3"
       refX="0"
       refY="0"
       orient="auto"
       inkscape:stockid="Arrow1Send3">
      <path
         inkscape:connector-curvature="0"
         transform="matrix(-0.2,0,0,-0.2,-1.2,0)"
         style="fill:#b7c8b7;fill-rule:evenodd;stroke:#b7c8b7;stroke-width:1pt"
         d="M 0,0 5,-5 -12.5,0 5,5 0,0 z"
         id="path4961" />
    </marker>
    <marker
       style="overflow:visible"
       id="Arrow1Sendo"
       refX="0"
       refY="0"
       orient="auto"
       inkscape:stockid="Arrow1Sendo">
      <path
         inkscape:connector-curvature="0"
         transform="matrix(-0.2,0,0,-0.2,-1.2,0)"
         style="fill:#b7c8b7;fill-rule:evenodd;stroke:#b7c8b7;stroke-width:1pt"
         d="M 0,0 5,-5 -12.5,0 5,5 0,0 z"
         id="path4964" />
    </marker>
  </defs>
  <metadata
     id="metadata7">
    <rdf:RDF>
      <cc:Work
         rdf:about="">
        <dc:format>image/svg+xml</dc:format>
        <dc:type
           rdf:resource="http://purl.org/dc/dcmitype/StillImage" />
        <dc:title></dc:title>
      </cc:Work>
    </rdf:RDF>
  </metadata>
  <g
     transform="translate(-163.18703,-79.161283)"
     id="layer1"
     inkscape:groupmode="layer"
     inkscape:label="Calque 1">
    <path
       sodipodi:nodetypes="cccccccccc"
       inkscape:connector-curvature="0"
       id="path2987"
       d="m 167.32618,173.95853 34.2462,-90.386262 79.90776,67.555482 68.49236,-68.492382 57.07699,0 -22.8308,91.323162 22.8308,68.49238 -114.15395,22.83079 -11.4154,-79.90776 z"
       style="fill:#f2f2f2;stroke:#000000;stroke-width:2.85384846;stroke-linecap:butt;stroke-linejoin:miter;stroke-miterlimit:4;stroke-opacity:1;stroke-dasharray:none" />
    <rect
       y="80.197777"
       x="164.22353"
       height="187.74939"
       width="245.60782"
       id="rect6425"
       style="fill:none;stroke:#9d93ac;stroke-width:2.07298851;stroke-linecap:round;stroke-linejoin:round;stroke-miterlimit:4;stroke-opacity:1;stroke-dasharray:none;stroke-dashoffset:2.2" />
    <path
       inkscape:connector-curvature="0"
       id="path6427"
       d="M 165.26247,81.228805 408.98922,267.07707"
       style="fill:#ff0000;stroke:#ff0000;stroke-width:2.28307939;stroke-linecap:round;stroke-linejoin:round;stroke-miterlimit:4;stroke-opacity:1;stroke-dasharray:2.28307917, 13.69847508;stroke-dashoffset:0"
       sodipodi:nodetypes="cc" />
    <g
       id="g6449"
       ns0:preamble=""
       ns0:text="$D = 10.0$"
       transform="matrix(1.6229767,0,0,1.6229767,-68.083245,-48.273603)"
       style="fill:#ff0000">
      <defs
         id="defs6451">
        <g
           id="g6453">
          <symbol
             id="textext-634f72d7-0"
             overflow="visible"
             style="overflow:visible">
            <path
               id="path6456"
               d=""
               style="stroke:none"
               inkscape:connector-curvature="0" />
          </symbol>
          <symbol
             id="textext-634f72d7-1"
             overflow="visible"
             style="overflow:visible">
            <path
               id="path6459"
               d="m 1.578125,-0.78125 c -0.09375,0.390625 -0.109375,0.46875 -0.90625,0.46875 -0.15625,0 -0.265625,0 -0.265625,0.1875 C 0.40625,0 0.484375,0 0.671875,0 l 3.3125,0 c 2.0625,0 4.03125,-2.109375 4.03125,-4.28125 0,-1.40625 -0.84375,-2.53125 -2.34375,-2.53125 l -3.34375,0 c -0.1875,0 -0.296875,0 -0.296875,0.1875 0,0.125 0.078125,0.125 0.28125,0.125 0.125,0 0.3125,0.015625 0.421875,0.015625 0.171875,0.03125 0.21875,0.046875 0.21875,0.171875 0,0.03125 0,0.0625 -0.03125,0.1875 z M 3.734375,-6.125 C 3.828125,-6.46875 3.84375,-6.5 4.28125,-6.5 l 1.0625,0 c 0.96875,0 1.796875,0.53125 1.796875,1.84375 0,0.484375 -0.1875,2.125 -1.046875,3.21875 -0.28125,0.375 -1.0625,1.125 -2.296875,1.125 l -1.125,0 c -0.140625,0 -0.15625,0 -0.21875,0 -0.09375,-0.015625 -0.125,-0.03125 -0.125,-0.109375 0,-0.03125 0,-0.046875 0.046875,-0.21875 z"
               style="stroke:none"
               inkscape:connector-curvature="0" />
          </symbol>
          <symbol
             id="textext-634f72d7-2"
             overflow="visible"
             style="overflow:visible">
            <path
               id="path6462"
               d="m 1.90625,-0.53125 c 0,-0.28125 -0.234375,-0.53125 -0.515625,-0.53125 -0.296875,0 -0.53125,0.25 -0.53125,0.53125 C 0.859375,-0.234375 1.09375,0 1.390625,0 1.671875,0 1.90625,-0.234375 1.90625,-0.53125 z"
               style="stroke:none"
               inkscape:connector-curvature="0" />
          </symbol>
          <symbol
             id="textext-634f72d7-3"
             overflow="visible"
             style="overflow:visible">
            <path
               id="path6465"
               d=""
               style="stroke:none"
               inkscape:connector-curvature="0" />
          </symbol>
          <symbol
             id="textext-634f72d7-4"
             overflow="visible"
             style="overflow:visible">
            <path
               id="path6468"
               d="m 6.84375,-3.265625 c 0.15625,0 0.34375,0 0.34375,-0.1875 C 7.1875,-3.65625 7,-3.65625 6.859375,-3.65625 l -5.96875,0 c -0.140625,0 -0.328125,0 -0.328125,0.203125 0,0.1875 0.1875,0.1875 0.328125,0.1875 z m 0.015625,1.9375 c 0.140625,0 0.328125,0 0.328125,-0.203125 0,-0.1875 -0.1875,-0.1875 -0.34375,-0.1875 l -5.953125,0 c -0.140625,0 -0.328125,0 -0.328125,0.1875 0,0.203125 0.1875,0.203125 0.328125,0.203125 z"
               style="stroke:none"
               inkscape:connector-curvature="0" />
          </symbol>
          <symbol
             id="textext-634f72d7-5"
             overflow="visible"
             style="overflow:visible">
            <path
               id="path6471"
               d="m 2.9375,-6.375 c 0,-0.25 0,-0.265625 -0.234375,-0.265625 C 2.078125,-6 1.203125,-6 0.890625,-6 l 0,0.3125 c 0.203125,0 0.78125,0 1.296875,-0.265625 l 0,5.171875 c 0,0.359375 -0.03125,0.46875 -0.921875,0.46875 l -0.3125,0 0,0.3125 c 0.34375,-0.03125 1.203125,-0.03125 1.609375,-0.03125 0.390625,0 1.265625,0 1.609375,0.03125 l 0,-0.3125 -0.3125,0 c -0.90625,0 -0.921875,-0.109375 -0.921875,-0.46875 z"
               style="stroke:none"
               inkscape:connector-curvature="0" />
          </symbol>
          <symbol
             id="textext-634f72d7-6"
             overflow="visible"
             style="overflow:visible">
            <path
               id="path6474"
               d="m 4.578125,-3.1875 c 0,-0.796875 -0.046875,-1.59375 -0.390625,-2.328125 -0.453125,-0.96875 -1.28125,-1.125 -1.6875,-1.125 -0.609375,0 -1.328125,0.265625 -1.75,1.1875 -0.3125,0.6875 -0.359375,1.46875 -0.359375,2.265625 0,0.75 0.03125,1.640625 0.453125,2.40625 0.421875,0.796875 1.15625,1 1.640625,1 0.53125,0 1.296875,-0.203125 1.734375,-1.15625 0.3125,-0.6875 0.359375,-1.46875 0.359375,-2.25 z M 2.484375,0 C 2.09375,0 1.5,-0.25 1.328125,-1.203125 1.21875,-1.796875 1.21875,-2.71875 1.21875,-3.3125 c 0,-0.640625 0,-1.296875 0.078125,-1.828125 0.1875,-1.1875 0.9375,-1.28125 1.1875,-1.28125 0.328125,0 0.984375,0.1875 1.171875,1.171875 0.109375,0.5625 0.109375,1.3125 0.109375,1.9375 0,0.75 0,1.421875 -0.109375,2.0625 C 3.5,-0.296875 2.9375,0 2.484375,0 z"
               style="stroke:none"
               inkscape:connector-curvature="0" />
          </symbol>
        </g>
      </defs>
      <g
         id="textext-634f72d7-7"
         style="fill:#ff0000">
        <g
           id="g6477"
           style="fill:#ff0000;fill-opacity:1">
          <use
             id="use6479"
             y="134.765"
             x="223.43201"
             xlink:href="#textext-634f72d7-1"
             width="110.75"
             height="85.375"
             style="fill:#ff0000" />
        </g>
        <g
           id="g6481"
           style="fill:#ff0000;fill-opacity:1">
          <use
             id="use6483"
             y="134.765"
             x="234.724"
             xlink:href="#textext-634f72d7-4"
             width="110.75"
             height="85.375"
             style="fill:#ff0000" />
        </g>
        <g
           id="g6485"
           style="fill:#ff0000;fill-opacity:1">
          <use
             id="use6487"
             y="134.765"
             x="245.24251"
             xlink:href="#textext-634f72d7-5"
             width="110.75"
             height="85.375"
             style="fill:#ff0000" />
          <use
             id="use6489"
             y="134.765"
             x="250.22382"
             xlink:href="#textext-634f72d7-6"
             width="110.75"
             height="85.375"
             style="fill:#ff0000" />
        </g>
        <g
           id="g6491"
           style="fill:#ff0000;fill-opacity:1">
          <use
             id="use6493"
             y="134.765"
             x="255.203"
             xlink:href="#textext-634f72d7-2"
             width="110.75"
             height="85.375"
             style="fill:#ff0000" />
        </g>
        <g
           id="g6495"
           style="fill:#ff0000;fill-opacity:1">
          <use
             id="use6497"
             y="134.765"
             x="257.97101"
             xlink:href="#textext-634f72d7-6"
             width="110.75"
             height="85.375"
             style="fill:#ff0000" />
        </g>
      </g>
    </g>
  </g>
</svg>
