<?xml version="1.0" encoding="UTF-8" standalone="no"?>
<!-- Created with Inkscape (http://www.inkscape.org/) -->

<svg
   xmlns:ns0="http://www.iki.fi/pav/software/textext/"
   xmlns:dc="http://purl.org/dc/elements/1.1/"
   xmlns:cc="http://creativecommons.org/ns#"
   xmlns:rdf="http://www.w3.org/1999/02/22-rdf-syntax-ns#"
   xmlns:svg="http://www.w3.org/2000/svg"
   xmlns="http://www.w3.org/2000/svg"
   xmlns:xlink="http://www.w3.org/1999/xlink"
   xmlns:sodipodi="http://sodipodi.sourceforge.net/DTD/sodipodi-0.dtd"
   xmlns:inkscape="http://www.inkscape.org/namespaces/inkscape"
   width="212.17093"
   height="148.03986"
   id="svg2"
   version="1.1"
   inkscape:version="0.91 r13725"
   sodipodi:docname="crossed_cuboids.svg">
  <sodipodi:namedview
     inkscape:snap-bbox="true"
     inkscape:snap-global="true"
     fit-margin-bottom="0"
     fit-margin-right="0.4"
     fit-margin-left="0"
     fit-margin-top="0"
     inkscape:window-maximized="0"
     inkscape:window-y="18"
     inkscape:window-x="0"
     inkscape:window-height="1061"
     inkscape:window-width="1918"
     showgrid="true"
     inkscape:current-layer="layer1"
     inkscape:document-units="px"
     inkscape:cy="133.83013"
     inkscape:cx="96.429404"
     inkscape:zoom="2.8"
     inkscape:pageshadow="2"
     inkscape:pageopacity="0.0"
     borderopacity="1.0"
     bordercolor="#666666"
     pagecolor="#ffffff"
     id="base">
    <inkscape:grid
       originy="-1629.3"
       originx="-793.10904"
       snapvisiblegridlinesonly="true"
       enabled="true"
       visible="true"
       empspacing="5"
       id="grid2985"
       type="xygrid" />
  </sodipodi:namedview>
  <defs
     id="defs4">
    <marker
       style="overflow:visible"
       id="marker16756"
       refX="0"
       refY="0"
       orient="auto"
       inkscape:stockid="DistanceEnd"
       inkscape:isstock="true">
      <g
         id="g16758"
         style="fill:#ffaaaa;fill-opacity:1;stroke:#ffaaaa;stroke-opacity:1">
        <path
           style="fill:#ffaaaa;fill-opacity:1;stroke:#ffaaaa;stroke-width:1.14999998;stroke-linecap:square;stroke-opacity:1"
           d="M 0,0 -2,0"
           id="path16760"
           inkscape:connector-curvature="0" />
        <path
           style="fill:#ffaaaa;fill-opacity:1;fill-rule:evenodd;stroke:#ffaaaa;stroke-opacity:1"
           d="M 0,0 -13,4 -9,0 -13,-4 0,0 Z"
           id="path16762"
           inkscape:connector-curvature="0" />
        <path
           style="fill:#ffaaaa;fill-opacity:1;stroke:#ffaaaa;stroke-width:1;stroke-linecap:square;stroke-opacity:1"
           d="M 0,-4 0,40"
           id="path16764"
           inkscape:connector-curvature="0" />
      </g>
    </marker>
    <marker
       inkscape:isstock="true"
       inkscape:stockid="DistanceEnd"
       orient="auto"
       refY="0"
       refX="0"
       id="marker16665"
       style="overflow:visible">
      <g
         style="fill:#666666;fill-opacity:1;stroke:#666666;stroke-opacity:1"
         id="g16667">
        <path
           id="path16669"
           d="M 0,0 -2,0"
           style="fill:#666666;fill-opacity:1;stroke:#666666;stroke-width:1.14999998;stroke-linecap:square;stroke-opacity:1"
           inkscape:connector-curvature="0" />
        <path
           id="path16671"
           d="M 0,0 -13,4 -9,0 -13,-4 0,0 Z"
           style="fill:#666666;fill-opacity:1;fill-rule:evenodd;stroke:#666666;stroke-opacity:1"
           inkscape:connector-curvature="0" />
        <path
           id="path16673"
           d="M 0,-4 0,40"
           style="fill:#666666;fill-opacity:1;stroke:#666666;stroke-width:1;stroke-linecap:square;stroke-opacity:1"
           inkscape:connector-curvature="0" />
      </g>
    </marker>
    <marker
       inkscape:isstock="true"
       inkscape:stockid="DistanceEnd"
       orient="auto"
       refY="0"
       refX="0"
       id="marker8148"
       style="overflow:visible">
      <g
         style="fill:#666666;fill-opacity:1;stroke:#666666;stroke-opacity:1"
         id="g8150">
        <path
           id="path8152"
           d="M 0,0 -2,0"
           style="fill:#666666;fill-opacity:1;stroke:#666666;stroke-width:1.14999998;stroke-linecap:square;stroke-opacity:1"
           inkscape:connector-curvature="0" />
        <path
           id="path8154"
           d="M 0,0 -13,4 -9,0 -13,-4 0,0 Z"
           style="fill:#666666;fill-opacity:1;fill-rule:evenodd;stroke:#666666;stroke-opacity:1"
           inkscape:connector-curvature="0" />
        <path
           id="path8156"
           d="M 0,-4 0,40"
           style="fill:#666666;fill-opacity:1;stroke:#666666;stroke-width:1;stroke-linecap:square;stroke-opacity:1"
           inkscape:connector-curvature="0" />
      </g>
    </marker>
    <marker
       inkscape:isstock="true"
       inkscape:stockid="DistanceStart"
       orient="auto"
       refY="0"
       refX="0"
       id="marker8123"
       style="overflow:visible">
      <g
         style="fill:#ffaaaa;fill-opacity:1;stroke:#ffaaaa;stroke-opacity:1"
         id="g8125">
        <path
           id="path8127"
           d="M 0,0 2,0"
           style="fill:#ffaaaa;fill-opacity:1;stroke:#ffaaaa;stroke-width:1.14999998;stroke-linecap:square;stroke-opacity:1"
           inkscape:connector-curvature="0" />
        <path
           id="path8129"
           d="M 0,0 13,4 9,0 13,-4 0,0 Z"
           style="fill:#ffaaaa;fill-opacity:1;fill-rule:evenodd;stroke:#ffaaaa;stroke-opacity:1"
           inkscape:connector-curvature="0" />
        <path
           id="path8131"
           d="M 0,-4 0,40"
           style="fill:#ffaaaa;fill-opacity:1;stroke:#ffaaaa;stroke-width:1;stroke-linecap:square;stroke-opacity:1"
           inkscape:connector-curvature="0" />
      </g>
    </marker>
    <marker
       style="overflow:visible"
       id="DistanceEnd"
       refX="0"
       refY="0"
       orient="auto"
       inkscape:stockid="DistanceEnd"
       inkscape:isstock="true"
       inkscape:collect="always">
      <g
         id="g2301"
         style="fill:#ffaaaa;fill-opacity:1;stroke:#ffaaaa;stroke-opacity:1">
        <path
           style="fill:#ffaaaa;fill-opacity:1;stroke:#ffaaaa;stroke-width:1.14999998;stroke-linecap:square;stroke-opacity:1"
           d="M 0,0 -2,0"
           id="path2316"
           inkscape:connector-curvature="0" />
        <path
           style="fill:#ffaaaa;fill-opacity:1;fill-rule:evenodd;stroke:#ffaaaa;stroke-opacity:1"
           d="M 0,0 -13,4 -9,0 -13,-4 0,0 Z"
           id="path2312"
           inkscape:connector-curvature="0" />
        <path
           style="fill:#ffaaaa;fill-opacity:1;stroke:#ffaaaa;stroke-width:1;stroke-linecap:square;stroke-opacity:1"
           d="M 0,-4 0,40"
           id="path2314"
           inkscape:connector-curvature="0" />
      </g>
    </marker>
    <marker
       style="overflow:visible"
       id="marker6362"
       refX="0"
       refY="0"
       orient="auto"
       inkscape:stockid="DistanceStart"
       inkscape:isstock="true"
       inkscape:collect="always">
      <g
         id="g6364"
         style="fill:#ffaaaa;fill-opacity:1;stroke:#ffaaaa;stroke-opacity:1">
        <path
           style="fill:#ffaaaa;fill-opacity:1;stroke:#ffaaaa;stroke-width:1.14999998;stroke-linecap:square;stroke-opacity:1"
           d="M 0,0 2,0"
           id="path6366"
           inkscape:connector-curvature="0" />
        <path
           style="fill:#ffaaaa;fill-opacity:1;fill-rule:evenodd;stroke:#ffaaaa;stroke-opacity:1"
           d="M 0,0 13,4 9,0 13,-4 0,0 Z"
           id="path6368"
           inkscape:connector-curvature="0" />
        <path
           style="fill:#ffaaaa;fill-opacity:1;stroke:#ffaaaa;stroke-width:1;stroke-linecap:square;stroke-opacity:1"
           d="M 0,-4 0,40"
           id="path6370"
           inkscape:connector-curvature="0" />
      </g>
    </marker>
    <marker
       style="overflow:visible"
       id="DistanceStart"
       refX="0"
       refY="0"
       orient="auto"
       inkscape:stockid="DistanceStart"
       inkscape:isstock="true">
      <g
         id="g2300"
         style="fill:#000000;fill-opacity:1;stroke:#000000;stroke-opacity:1">
        <path
           style="fill:#000000;fill-opacity:1;stroke:#000000;stroke-width:1.14999998;stroke-linecap:square;stroke-opacity:1"
           d="M 0,0 2,0"
           id="path2306"
           inkscape:connector-curvature="0" />
        <path
           style="fill:#000000;fill-opacity:1;fill-rule:evenodd;stroke:#000000;stroke-opacity:1"
           d="M 0,0 13,4 9,0 13,-4 0,0 Z"
           id="path2302"
           inkscape:connector-curvature="0" />
        <path
           style="fill:#000000;fill-opacity:1;stroke:#000000;stroke-width:1;stroke-linecap:square;stroke-opacity:1"
           d="M 0,-4 0,40"
           id="path2304"
           inkscape:connector-curvature="0" />
      </g>
    </marker>
    <marker
       inkscape:isstock="true"
       style="overflow:visible"
       id="marker4905"
       refX="0"
       refY="0"
       orient="auto"
       inkscape:stockid="TriangleInL">
      <path
         transform="scale(-0.8,-0.8)"
         style="fill:#000000;fill-opacity:1;fill-rule:evenodd;stroke:#000000;stroke-width:1pt;stroke-opacity:1"
         d="m 5.77,0 -8.65,5 0,-10 8.65,5 z"
         id="path4907"
         inkscape:connector-curvature="0" />
    </marker>
    <marker
       inkscape:isstock="true"
       style="overflow:visible"
       id="marker4895"
       refX="0"
       refY="0"
       orient="auto"
       inkscape:stockid="TriangleOutL">
      <path
         transform="scale(0.8,0.8)"
         style="fill:#000000;fill-opacity:1;fill-rule:evenodd;stroke:#000000;stroke-width:1pt;stroke-opacity:1"
         d="m 5.77,0 -8.65,5 0,-10 8.65,5 z"
         id="path4897"
         inkscape:connector-curvature="0" />
    </marker>
    <marker
       inkscape:stockid="TriangleInS"
       orient="auto"
       refY="0"
       refX="0"
       id="TriangleInS"
       style="overflow:visible"
       inkscape:isstock="true">
      <path
         id="path4708"
         d="m 5.77,0 -8.65,5 0,-10 8.65,5 z"
         style="fill:#000000;fill-opacity:1;fill-rule:evenodd;stroke:#000000;stroke-width:1pt;stroke-opacity:1"
         transform="scale(-0.2,-0.2)"
         inkscape:connector-curvature="0" />
    </marker>
  </defs>
  <metadata
     id="metadata7">
    <rdf:RDF>
      <cc:Work
         rdf:about="">
        <dc:format>image/svg+xml</dc:format>
        <dc:type
           rdf:resource="http://purl.org/dc/dcmitype/StillImage" />
        <dc:title></dc:title>
      </cc:Work>
    </rdf:RDF>
  </metadata>
  <g
     transform="translate(-411.77527,-116.26345)"
     id="layer1"
     inkscape:groupmode="layer"
     inkscape:label="Calque 1">
    <path
       inkscape:connector-curvature="0"
       id="rect4244"
       d="m 448.63509,117.83187 0,36.20065 -36.20065,0 0,72.4013 36.20065,0 0,36.20066 72.40131,0 0,-36.20066 36.20065,0 0,-72.4013 -36.20065,0 0,-36.20065 -72.40131,0 z"
       style="opacity:1;fill:#f2f2f2;fill-opacity:1;fill-rule:nonzero;stroke:#000000;stroke-width:1.31834352;stroke-linecap:round;stroke-linejoin:miter;stroke-miterlimit:4;stroke-dasharray:none;stroke-dashoffset:0;stroke-opacity:1" />
    <path
       inkscape:connector-curvature="0"
       id="path4390"
       d="m 484.83908,201.88762 0,-22.66538"
       style="fill:none;fill-rule:evenodd;stroke:#ff7373;stroke-width:1.13326871;stroke-linecap:round;stroke-linejoin:round;stroke-miterlimit:4;stroke-dasharray:none;stroke-opacity:1" />
    <path
       inkscape:connector-curvature="0"
       id="path4392"
       d="m 473.5064,190.55493 22.66537,0"
       style="fill:none;fill-rule:evenodd;stroke:#ff7373;stroke-width:1.13326871;stroke-linecap:round;stroke-linejoin:round;stroke-miterlimit:4;stroke-dasharray:none;stroke-opacity:1" />
    <g
       id="g4439"
       ns0:preamble=""
       ns0:text="$(1, 1)$"
       transform="matrix(1.1888823,0,0,1.1888823,223.53417,43.636127)"
       style="fill:#ff7373;fill-opacity:1">
      <defs
         id="defs4441">
        <g
           id="g4443">
          <symbol
             id="textext-dba92329-0"
             overflow="visible"
             style="overflow:visible">
            <path
               id="path4446"
               d=""
               style="stroke:none"
               inkscape:connector-curvature="0" />
          </symbol>
          <symbol
             id="textext-dba92329-1"
             overflow="visible"
             style="overflow:visible">
            <path
               id="path4449"
               d="m 3.296875,2.390625 c 0,-0.03125 0,-0.046875 -0.171875,-0.21875 C 1.890625,0.921875 1.5625,-0.96875 1.5625,-2.5 c 0,-1.734375 0.375,-3.46875 1.609375,-4.703125 0.125,-0.125 0.125,-0.140625 0.125,-0.171875 0,-0.078125 -0.03125,-0.109375 -0.09375,-0.109375 -0.109375,0 -1,0.6875 -1.59375,1.953125 -0.5,1.09375 -0.625,2.203125 -0.625,3.03125 0,0.78125 0.109375,1.984375 0.65625,3.125 C 2.25,1.84375 3.09375,2.5 3.203125,2.5 c 0.0625,0 0.09375,-0.03125 0.09375,-0.109375 z m 0,0"
               style="stroke:none"
               inkscape:connector-curvature="0" />
          </symbol>
          <symbol
             id="textext-dba92329-2"
             overflow="visible"
             style="overflow:visible">
            <path
               id="path4452"
               d="m 2.9375,-6.375 c 0,-0.25 0,-0.265625 -0.234375,-0.265625 C 2.078125,-6 1.203125,-6 0.890625,-6 l 0,0.3125 c 0.203125,0 0.78125,0 1.296875,-0.265625 l 0,5.171875 c 0,0.359375 -0.03125,0.46875 -0.921875,0.46875 l -0.3125,0 0,0.3125 c 0.34375,-0.03125 1.203125,-0.03125 1.609375,-0.03125 0.390625,0 1.265625,0 1.609375,0.03125 l 0,-0.3125 -0.3125,0 c -0.90625,0 -0.921875,-0.109375 -0.921875,-0.46875 z m 0,0"
               style="stroke:none"
               inkscape:connector-curvature="0" />
          </symbol>
          <symbol
             id="textext-dba92329-3"
             overflow="visible"
             style="overflow:visible">
            <path
               id="path4455"
               d="m 2.875,-2.5 c 0,-0.765625 -0.109375,-1.96875 -0.65625,-3.109375 -0.59375,-1.21875 -1.453125,-1.875 -1.546875,-1.875 -0.0625,0 -0.109375,0.046875 -0.109375,0.109375 0,0.03125 0,0.046875 0.1875,0.234375 0.984375,0.984375 1.546875,2.5625 1.546875,4.640625 0,1.71875 -0.359375,3.46875 -1.59375,4.71875 C 0.5625,2.34375 0.5625,2.359375 0.5625,2.390625 0.5625,2.453125 0.609375,2.5 0.671875,2.5 0.765625,2.5 1.671875,1.8125 2.25,0.546875 2.765625,-0.546875 2.875,-1.65625 2.875,-2.5 Z m 0,0"
               style="stroke:none"
               inkscape:connector-curvature="0" />
          </symbol>
          <symbol
             id="textext-dba92329-4"
             overflow="visible"
             style="overflow:visible">
            <path
               id="path4458"
               d=""
               style="stroke:none"
               inkscape:connector-curvature="0" />
          </symbol>
          <symbol
             id="textext-dba92329-5"
             overflow="visible"
             style="overflow:visible">
            <path
               id="path4461"
               d="m 2.03125,-0.015625 c 0,-0.65625 -0.25,-1.046875 -0.640625,-1.046875 -0.328125,0 -0.53125,0.25 -0.53125,0.53125 C 0.859375,-0.265625 1.0625,0 1.390625,0 1.5,0 1.640625,-0.046875 1.734375,-0.125 1.765625,-0.15625 1.78125,-0.15625 1.78125,-0.15625 c 0.015625,0 0.015625,0 0.015625,0.140625 0,0.75 -0.34375,1.34375 -0.671875,1.671875 -0.109375,0.109375 -0.109375,0.125 -0.109375,0.15625 0,0.078125 0.046875,0.109375 0.09375,0.109375 0.109375,0 0.921875,-0.765625 0.921875,-1.9375 z m 0,0"
               style="stroke:none"
               inkscape:connector-curvature="0" />
          </symbol>
        </g>
      </defs>
      <g
         id="textext-dba92329-6"
         style="fill:#ff7373;fill-opacity:1">
        <g
           id="g4464"
           style="fill:#ff7373;fill-opacity:1">
          <use
             id="use4466"
             y="134.765"
             x="223.43201"
             xlink:href="#textext-dba92329-1"
             width="100%"
             height="100%"
             style="fill:#ff7373;fill-opacity:1" />
          <use
             id="use4468"
             y="134.765"
             x="227.30646"
             xlink:href="#textext-dba92329-2"
             width="100%"
             height="100%"
             style="fill:#ff7373;fill-opacity:1" />
        </g>
        <g
           id="g4470"
           style="fill:#ff7373;fill-opacity:1">
          <use
             id="use4472"
             y="134.765"
             x="232.28799"
             xlink:href="#textext-dba92329-5"
             width="100%"
             height="100%"
             style="fill:#ff7373;fill-opacity:1" />
        </g>
        <g
           id="g4474"
           style="fill:#ff7373;fill-opacity:1">
          <use
             id="use4476"
             y="134.765"
             x="236.716"
             xlink:href="#textext-dba92329-2"
             width="100%"
             height="100%"
             style="fill:#ff7373;fill-opacity:1" />
          <use
             id="use4478"
             y="134.765"
             x="241.6973"
             xlink:href="#textext-dba92329-3"
             width="100%"
             height="100%"
             style="fill:#ff7373;fill-opacity:1" />
        </g>
      </g>
    </g>
    <path
       style="fill:#ffaaaa;fill-opacity:1;fill-rule:evenodd;stroke:#ffaaaa;stroke-width:0.85727286px;stroke-linecap:butt;stroke-linejoin:miter;stroke-opacity:1;marker-start:url(#marker6362);marker-end:url(#DistanceEnd)"
       d="m 596.39632,154.86383 0,72.98195"
       id="path4563"
       inkscape:connector-curvature="0" />
    <text
       xml:space="preserve"
       style="font-style:normal;font-weight:normal;font-size:11.39694023px;line-height:125%;font-family:Sans;letter-spacing:0px;word-spacing:0px;fill:#ffaaaa;fill-opacity:1;stroke:none;stroke-width:1px;stroke-linecap:butt;stroke-linejoin:miter;stroke-opacity:1"
       x="187.20627"
       y="-599.19037"
       id="text4885"
       sodipodi:linespacing="125%"
       transform="matrix(0,1,-1,0,0,0)"><tspan
         sodipodi:role="line"
         id="tspan4887"
         x="187.20627"
         y="-599.19037">2</tspan></text>
    <text
       sodipodi:linespacing="125%"
       id="text8119"
       y="-615.08752"
       x="187.50308"
       style="font-style:normal;font-weight:normal;font-size:11.60304737px;line-height:125%;font-family:Sans;letter-spacing:0px;word-spacing:0px;fill:#ffaaaa;fill-opacity:1;stroke:none;stroke-width:1px;stroke-linecap:butt;stroke-linejoin:miter;stroke-opacity:1"
       xml:space="preserve"
       transform="matrix(0,1,-1,0,0,0)"><tspan
         y="-615.08752"
         x="187.50308"
         id="tspan8121"
         sodipodi:role="line">4</tspan></text>
    <path
       inkscape:connector-curvature="0"
       id="path4873"
       d="m 612.28918,117.72097 0,145.12481"
       style="fill:#ffaaaa;fill-opacity:1;fill-rule:evenodd;stroke:#ffaaaa;stroke-width:0.85727286px;stroke-linecap:butt;stroke-linejoin:miter;stroke-opacity:1;marker-start:url(#marker6362);marker-end:url(#DistanceEnd)"
       sodipodi:nodetypes="cc" />
  </g>
</svg>
