<?xml version="1.0" encoding="UTF-8" standalone="no"?>
<!-- Created with Inkscape (http://www.inkscape.org/) -->

<svg
   xmlns:ns0="http://www.iki.fi/pav/software/textext/"
   xmlns:dc="http://purl.org/dc/elements/1.1/"
   xmlns:cc="http://creativecommons.org/ns#"
   xmlns:rdf="http://www.w3.org/1999/02/22-rdf-syntax-ns#"
   xmlns:svg="http://www.w3.org/2000/svg"
   xmlns="http://www.w3.org/2000/svg"
   xmlns:xlink="http://www.w3.org/1999/xlink"
   xmlns:sodipodi="http://sodipodi.sourceforge.net/DTD/sodipodi-0.dtd"
   xmlns:inkscape="http://www.inkscape.org/namespaces/inkscape"
   width="201.34383"
   height="101.41612"
   id="svg2"
   version="1.1"
   inkscape:version="0.91 r13725"
   sodipodi:docname="ellipse.svg">
  <sodipodi:namedview
     inkscape:snap-bbox="true"
     inkscape:snap-global="true"
     fit-margin-bottom="0"
     fit-margin-right="0.4"
     fit-margin-left="0"
     fit-margin-top="0"
     inkscape:window-maximized="0"
     inkscape:window-y="18"
     inkscape:window-x="0"
     inkscape:window-height="1061"
     inkscape:window-width="1918"
     showgrid="true"
     inkscape:current-layer="layer1"
     inkscape:document-units="px"
     inkscape:cy="45.543167"
     inkscape:cx="148.47038"
     inkscape:zoom="3.959798"
     inkscape:pageshadow="2"
     inkscape:pageopacity="0.0"
     borderopacity="1.0"
     bordercolor="#666666"
     pagecolor="#ffffff"
     id="base">
    <inkscape:grid
       type="xygrid"
       id="grid2985"
       empspacing="5"
       visible="true"
       enabled="true"
       snapvisiblegridlinesonly="true"
       originx="-774.95704"
       originy="-1429.1294" />
  </sodipodi:namedview>
  <defs
     id="defs4">
    <marker
       inkscape:stockid="Arrow2Lstart"
       orient="auto"
       refY="0"
       refX="0"
       id="marker25628"
       style="overflow:visible"
       inkscape:isstock="true">
      <path
         inkscape:connector-curvature="0"
         id="path25630"
         style="fill:#ff7373;fill-opacity:1;fill-rule:evenodd;stroke:#ff7373;stroke-width:0.625;stroke-linejoin:round;stroke-opacity:1"
         d="M 8.7185878,4.0337352 -2.2072895,0.01601326 8.7185884,-4.0017078 c -1.7454984,2.3720609 -1.7354408,5.6174519 -6e-7,8.035443 z"
         transform="matrix(1.1,0,0,1.1,1.1,0)" />
    </marker>
    <marker
       inkscape:stockid="Arrow2Lend"
       orient="auto"
       refY="0"
       refX="0"
       id="marker24706"
       style="overflow:visible"
       inkscape:isstock="true">
      <path
         inkscape:connector-curvature="0"
         id="path24708"
         style="fill:#ff7373;fill-opacity:1;fill-rule:evenodd;stroke:#ff7373;stroke-width:0.625;stroke-linejoin:round;stroke-opacity:1"
         d="M 8.7185878,4.0337352 -2.2072895,0.01601326 8.7185884,-4.0017078 c -1.7454984,2.3720609 -1.7354408,5.6174519 -6e-7,8.035443 z"
         transform="matrix(-1.1,0,0,-1.1,-1.1,0)" />
    </marker>
    <marker
       inkscape:stockid="Arrow2Lstart"
       orient="auto"
       refY="0"
       refX="0"
       id="marker24696"
       style="overflow:visible"
       inkscape:isstock="true">
      <path
         inkscape:connector-curvature="0"
         id="path24698"
         style="fill:#ffaaaa;fill-opacity:1;fill-rule:evenodd;stroke:#ffaaaa;stroke-width:0.625;stroke-linejoin:round;stroke-opacity:1"
         d="M 8.7185878,4.0337352 -2.2072895,0.01601326 8.7185884,-4.0017078 c -1.7454984,2.3720609 -1.7354408,5.6174519 -6e-7,8.035443 z"
         transform="matrix(1.1,0,0,1.1,1.1,0)" />
    </marker>
    <marker
       inkscape:collect="always"
       inkscape:isstock="true"
       style="overflow:visible"
       id="Arrow2Lstart"
       refX="0"
       refY="0"
       orient="auto"
       inkscape:stockid="Arrow2Lstart">
      <path
         inkscape:connector-curvature="0"
         transform="matrix(1.1,0,0,1.1,1.1,0)"
         d="M 8.7185878,4.0337352 -2.2072895,0.01601326 8.7185884,-4.0017078 c -1.7454984,2.3720609 -1.7354408,5.6174519 -6e-7,8.035443 z"
         style="fill:#ff7373;fill-opacity:1;fill-rule:evenodd;stroke:#ff7373;stroke-width:0.625;stroke-linejoin:round;stroke-opacity:1"
         id="path4587" />
    </marker>
    <marker
       inkscape:collect="always"
       inkscape:isstock="true"
       style="overflow:visible"
       id="Arrow2Lend"
       refX="0"
       refY="0"
       orient="auto"
       inkscape:stockid="Arrow2Lend">
      <path
         inkscape:connector-curvature="0"
         transform="matrix(-1.1,0,0,-1.1,-1.1,0)"
         d="M 8.7185878,4.0337352 -2.2072895,0.01601326 8.7185884,-4.0017078 c -1.7454984,2.3720609 -1.7354408,5.6174519 -6e-7,8.035443 z"
         style="fill:#ff7373;fill-opacity:1;fill-rule:evenodd;stroke:#ff7373;stroke-width:0.625;stroke-linejoin:round;stroke-opacity:1"
         id="path4590" />
    </marker>
    <marker
       inkscape:isstock="true"
       inkscape:stockid="DistanceEnd"
       orient="auto"
       refY="0"
       refX="0"
       id="marker16756"
       style="overflow:visible">
      <g
         style="fill:#ffaaaa;fill-opacity:1;stroke:#ffaaaa;stroke-opacity:1"
         id="g16758">
        <path
           inkscape:connector-curvature="0"
           id="path16760"
           d="M 0,0 -2,0"
           style="fill:#ffaaaa;fill-opacity:1;stroke:#ffaaaa;stroke-width:1.14999998;stroke-linecap:square;stroke-opacity:1" />
        <path
           inkscape:connector-curvature="0"
           id="path16762"
           d="M 0,0 -13,4 -9,0 -13,-4 0,0 Z"
           style="fill:#ffaaaa;fill-opacity:1;fill-rule:evenodd;stroke:#ffaaaa;stroke-opacity:1" />
        <path
           inkscape:connector-curvature="0"
           id="path16764"
           d="M 0,-4 0,40"
           style="fill:#ffaaaa;fill-opacity:1;stroke:#ffaaaa;stroke-width:1;stroke-linecap:square;stroke-opacity:1" />
      </g>
    </marker>
    <marker
       style="overflow:visible"
       id="marker16665"
       refX="0"
       refY="0"
       orient="auto"
       inkscape:stockid="DistanceEnd"
       inkscape:isstock="true">
      <g
         id="g16667"
         style="fill:#666666;fill-opacity:1;stroke:#666666;stroke-opacity:1">
        <path
           inkscape:connector-curvature="0"
           style="fill:#666666;fill-opacity:1;stroke:#666666;stroke-width:1.14999998;stroke-linecap:square;stroke-opacity:1"
           d="M 0,0 -2,0"
           id="path16669" />
        <path
           inkscape:connector-curvature="0"
           style="fill:#666666;fill-opacity:1;fill-rule:evenodd;stroke:#666666;stroke-opacity:1"
           d="M 0,0 -13,4 -9,0 -13,-4 0,0 Z"
           id="path16671" />
        <path
           inkscape:connector-curvature="0"
           style="fill:#666666;fill-opacity:1;stroke:#666666;stroke-width:1;stroke-linecap:square;stroke-opacity:1"
           d="M 0,-4 0,40"
           id="path16673" />
      </g>
    </marker>
    <marker
       style="overflow:visible"
       id="marker8148"
       refX="0"
       refY="0"
       orient="auto"
       inkscape:stockid="DistanceEnd"
       inkscape:isstock="true">
      <g
         id="g8150"
         style="fill:#666666;fill-opacity:1;stroke:#666666;stroke-opacity:1">
        <path
           inkscape:connector-curvature="0"
           style="fill:#666666;fill-opacity:1;stroke:#666666;stroke-width:1.14999998;stroke-linecap:square;stroke-opacity:1"
           d="M 0,0 -2,0"
           id="path8152" />
        <path
           inkscape:connector-curvature="0"
           style="fill:#666666;fill-opacity:1;fill-rule:evenodd;stroke:#666666;stroke-opacity:1"
           d="M 0,0 -13,4 -9,0 -13,-4 0,0 Z"
           id="path8154" />
        <path
           inkscape:connector-curvature="0"
           style="fill:#666666;fill-opacity:1;stroke:#666666;stroke-width:1;stroke-linecap:square;stroke-opacity:1"
           d="M 0,-4 0,40"
           id="path8156" />
      </g>
    </marker>
    <marker
       style="overflow:visible"
       id="marker8123"
       refX="0"
       refY="0"
       orient="auto"
       inkscape:stockid="DistanceStart"
       inkscape:isstock="true">
      <g
         id="g8125"
         style="fill:#ffaaaa;fill-opacity:1;stroke:#ffaaaa;stroke-opacity:1">
        <path
           inkscape:connector-curvature="0"
           style="fill:#ffaaaa;fill-opacity:1;stroke:#ffaaaa;stroke-width:1.14999998;stroke-linecap:square;stroke-opacity:1"
           d="M 0,0 2,0"
           id="path8127" />
        <path
           inkscape:connector-curvature="0"
           style="fill:#ffaaaa;fill-opacity:1;fill-rule:evenodd;stroke:#ffaaaa;stroke-opacity:1"
           d="M 0,0 13,4 9,0 13,-4 0,0 Z"
           id="path8129" />
        <path
           inkscape:connector-curvature="0"
           style="fill:#ffaaaa;fill-opacity:1;stroke:#ffaaaa;stroke-width:1;stroke-linecap:square;stroke-opacity:1"
           d="M 0,-4 0,40"
           id="path8131" />
      </g>
    </marker>
    <marker
       inkscape:isstock="true"
       inkscape:stockid="DistanceStart"
       orient="auto"
       refY="0"
       refX="0"
       id="DistanceStart"
       style="overflow:visible">
      <g
         style="fill:#000000;fill-opacity:1;stroke:#000000;stroke-opacity:1"
         id="g2300">
        <path
           inkscape:connector-curvature="0"
           id="path2306"
           d="M 0,0 2,0"
           style="fill:#000000;fill-opacity:1;stroke:#000000;stroke-width:1.14999998;stroke-linecap:square;stroke-opacity:1" />
        <path
           inkscape:connector-curvature="0"
           id="path2302"
           d="M 0,0 13,4 9,0 13,-4 0,0 Z"
           style="fill:#000000;fill-opacity:1;fill-rule:evenodd;stroke:#000000;stroke-opacity:1" />
        <path
           inkscape:connector-curvature="0"
           id="path2304"
           d="M 0,-4 0,40"
           style="fill:#000000;fill-opacity:1;stroke:#000000;stroke-width:1;stroke-linecap:square;stroke-opacity:1" />
      </g>
    </marker>
    <marker
       inkscape:stockid="TriangleInL"
       orient="auto"
       refY="0"
       refX="0"
       id="marker4905"
       style="overflow:visible"
       inkscape:isstock="true">
      <path
         inkscape:connector-curvature="0"
         id="path4907"
         d="m 5.77,0 -8.65,5 0,-10 8.65,5 z"
         style="fill:#000000;fill-opacity:1;fill-rule:evenodd;stroke:#000000;stroke-width:1pt;stroke-opacity:1"
         transform="scale(-0.8,-0.8)" />
    </marker>
    <marker
       inkscape:stockid="TriangleOutL"
       orient="auto"
       refY="0"
       refX="0"
       id="marker4895"
       style="overflow:visible"
       inkscape:isstock="true">
      <path
         inkscape:connector-curvature="0"
         id="path4897"
         d="m 5.77,0 -8.65,5 0,-10 8.65,5 z"
         style="fill:#000000;fill-opacity:1;fill-rule:evenodd;stroke:#000000;stroke-width:1pt;stroke-opacity:1"
         transform="scale(0.8,0.8)" />
    </marker>
    <marker
       inkscape:isstock="true"
       style="overflow:visible"
       id="TriangleInS"
       refX="0"
       refY="0"
       orient="auto"
       inkscape:stockid="TriangleInS">
      <path
         inkscape:connector-curvature="0"
         transform="scale(-0.2,-0.2)"
         style="fill:#000000;fill-opacity:1;fill-rule:evenodd;stroke:#000000;stroke-width:1pt;stroke-opacity:1"
         d="m 5.77,0 -8.65,5 0,-10 8.65,5 z"
         id="path4708" />
    </marker>
  </defs>
  <metadata
     id="metadata7">
    <rdf:RDF>
      <cc:Work
         rdf:about="">
        <dc:format>image/svg+xml</dc:format>
        <dc:type
           rdf:resource="http://purl.org/dc/dcmitype/StillImage" />
        <dc:title></dc:title>
      </cc:Work>
    </rdf:RDF>
  </metadata>
  <g
     inkscape:label="Calque 1"
     inkscape:groupmode="layer"
     id="layer1"
     transform="translate(-393.62327,-363.05775)">
    <ellipse
       ry="49.763847"
       rx="99.527695"
       cy="413.76581"
       cx="494.09518"
       id="path22453"
       style="opacity:1;fill:#f2f2f2;fill-opacity:1;fill-rule:nonzero;stroke:#000000;stroke-width:1.88842964;stroke-linecap:round;stroke-linejoin:round;stroke-miterlimit:4;stroke-dasharray:none;stroke-dashoffset:0;stroke-opacity:1" />
    <path
       inkscape:connector-curvature="0"
       id="path4563"
       d="m 495.00961,366.53034 0,45.60475"
       style="fill:#ff7373;fill-opacity:1;fill-rule:evenodd;stroke:#ff7373;stroke-width:0.89128417;stroke-linecap:butt;stroke-linejoin:miter;stroke-miterlimit:4;stroke-dasharray:none;stroke-opacity:1;marker-start:url(#Arrow2Lstart);marker-end:url(#Arrow2Lend)" />
    <g
       id="g25779"
       ns0:preamble=""
       ns0:text="$a$"
       transform="matrix(1.7309164,0,0,1.7309164,154.63057,176.69312)"
       style="fill:#ff7373;fill-opacity:1">
      <defs
         id="defs25781">
        <g
           id="g25783">
          <symbol
             style="overflow:visible"
             id="textext-fe145bb3-0"
             overflow="visible">
            <path
               inkscape:connector-curvature="0"
               id="path25786"
               d=""
               style="stroke:none" />
          </symbol>
          <symbol
             style="overflow:visible"
             id="textext-fe145bb3-1"
             overflow="visible">
            <path
               inkscape:connector-curvature="0"
               id="path25789"
               d="M 3.71875,-3.765625 C 3.53125,-4.140625 3.25,-4.40625 2.796875,-4.40625 c -1.15625,0 -2.390625,1.46875 -2.390625,2.921875 0,0.9375 0.546875,1.59375 1.3125,1.59375 0.203125,0 0.703125,-0.046875 1.296875,-0.75 0.078125,0.421875 0.4375,0.75 0.90625,0.75 0.359375,0 0.578125,-0.234375 0.75,-0.546875 0.15625,-0.359375 0.296875,-0.96875 0.296875,-0.984375 0,-0.109375 -0.09375,-0.109375 -0.125,-0.109375 -0.09375,0 -0.109375,0.046875 -0.140625,0.1875 -0.171875,0.640625 -0.34375,1.234375 -0.75,1.234375 -0.28125,0 -0.296875,-0.265625 -0.296875,-0.453125 0,-0.21875 0.015625,-0.3125 0.125,-0.75 C 3.890625,-1.71875 3.90625,-1.828125 4,-2.203125 L 4.359375,-3.59375 c 0.0625,-0.28125 0.0625,-0.296875 0.0625,-0.34375 0,-0.171875 -0.109375,-0.265625 -0.28125,-0.265625 -0.25,0 -0.390625,0.21875 -0.421875,0.4375 z M 3.078125,-1.1875 C 3.015625,-1 3.015625,-0.984375 2.875,-0.8125 2.4375,-0.265625 2.03125,-0.109375 1.75,-0.109375 c -0.5,0 -0.640625,-0.546875 -0.640625,-0.9375 0,-0.5 0.3125,-1.71875 0.546875,-2.1875 0.3125,-0.578125 0.75,-0.953125 1.15625,-0.953125 0.640625,0 0.78125,0.8125 0.78125,0.875 0,0.0625 -0.015625,0.125 -0.03125,0.171875 z m 0,0"
               style="stroke:none" />
          </symbol>
        </g>
      </defs>
      <g
         id="textext-fe145bb3-2"
         style="fill:#ff7373;fill-opacity:1">
        <g
           id="g25792"
           style="fill:#ff7373;fill-opacity:1">
          <use
             height="100%"
             width="100%"
             id="use25794"
             y="134.765"
             x="223.43201"
             xlink:href="#textext-fe145bb3-1"
             style="fill:#ff7373;fill-opacity:1" />
        </g>
      </g>
    </g>
    <g
       style="fill:#ff7373;fill-opacity:1"
       transform="matrix(1.7309164,0,0,1.7309164,114.1496,161.1002)"
       ns0:text="$b$"
       ns0:preamble=""
       id="g26024">
      <defs
         id="defs26026">
        <g
           id="g26028">
          <symbol
             overflow="visible"
             id="textext-f471689d-0"
             style="overflow:visible">
            <path
               style="stroke:none"
               d=""
               id="path26031"
               inkscape:connector-curvature="0" />
          </symbol>
          <symbol
             overflow="visible"
             id="textext-f471689d-1"
             style="overflow:visible">
            <path
               style="stroke:none"
               d="m 2.375,-6.8125 c 0,0 0,-0.109375 -0.125,-0.109375 -0.21875,0 -0.953125,0.078125 -1.21875,0.109375 -0.078125,0 -0.1875,0.015625 -0.1875,0.1875 0,0.125 0.09375,0.125 0.25,0.125 0.46875,0 0.484375,0.0625 0.484375,0.171875 0,0.0625 -0.078125,0.40625 -0.125,0.609375 l -0.828125,3.25 c -0.109375,0.5 -0.15625,0.671875 -0.15625,1.015625 0,0.9375 0.53125,1.5625 1.265625,1.5625 1.171875,0 2.40625,-1.484375 2.40625,-2.921875 0,-0.90625 -0.53125,-1.59375 -1.328125,-1.59375 -0.453125,0 -0.875,0.296875 -1.171875,0.59375 z M 1.453125,-3.046875 C 1.5,-3.265625 1.5,-3.28125 1.59375,-3.390625 2.078125,-4.03125 2.53125,-4.1875 2.796875,-4.1875 c 0.359375,0 0.625,0.296875 0.625,0.9375 0,0.59375 -0.328125,1.734375 -0.515625,2.109375 -0.328125,0.671875 -0.78125,1.03125 -1.171875,1.03125 -0.34375,0 -0.671875,-0.265625 -0.671875,-1 0,-0.203125 0,-0.390625 0.15625,-1.015625 z m 0,0"
               id="path26034"
               inkscape:connector-curvature="0" />
          </symbol>
        </g>
      </defs>
      <g
         style="fill:#ff7373;fill-opacity:1"
         id="textext-f471689d-2">
        <g
           style="fill:#ff7373;fill-opacity:1"
           id="g26037">
          <use
             style="fill:#ff7373;fill-opacity:1"
             xlink:href="#textext-f471689d-1"
             x="223.43201"
             y="134.765"
             id="use26039"
             width="100%"
             height="100%" />
        </g>
      </g>
    </g>
    <g
       id="g26508"
       style="fill:#ff7373;fill-opacity:1"
       transform="matrix(1.1888823,0,0,1.1888823,203.26183,261.98194)"
       ns0:preamble=""
       ns0:text="$(0, 0)$">
      <defs
         id="defs26510">
        <g
           id="g26512">
          <symbol
             id="textext-5dc2f888-0"
             overflow="visible"
             style="overflow:visible">
            <path
               id="path26515"
               d=""
               style="stroke:none"
               inkscape:connector-curvature="0" />
          </symbol>
          <symbol
             id="textext-5dc2f888-1"
             overflow="visible"
             style="overflow:visible">
            <path
               id="path26518"
               d="m 3.296875,2.390625 c 0,-0.03125 0,-0.046875 -0.171875,-0.21875 C 1.890625,0.921875 1.5625,-0.96875 1.5625,-2.5 c 0,-1.734375 0.375,-3.46875 1.609375,-4.703125 0.125,-0.125 0.125,-0.140625 0.125,-0.171875 0,-0.078125 -0.03125,-0.109375 -0.09375,-0.109375 -0.109375,0 -1,0.6875 -1.59375,1.953125 -0.5,1.09375 -0.625,2.203125 -0.625,3.03125 0,0.78125 0.109375,1.984375 0.65625,3.125 C 2.25,1.84375 3.09375,2.5 3.203125,2.5 c 0.0625,0 0.09375,-0.03125 0.09375,-0.109375 z m 0,0"
               style="stroke:none"
               inkscape:connector-curvature="0" />
          </symbol>
          <symbol
             id="textext-5dc2f888-2"
             overflow="visible"
             style="overflow:visible">
            <path
               id="path26521"
               d="m 4.578125,-3.1875 c 0,-0.796875 -0.046875,-1.59375 -0.390625,-2.328125 -0.453125,-0.96875 -1.28125,-1.125 -1.6875,-1.125 -0.609375,0 -1.328125,0.265625 -1.75,1.1875 -0.3125,0.6875 -0.359375,1.46875 -0.359375,2.265625 0,0.75 0.03125,1.640625 0.453125,2.40625 0.421875,0.796875 1.15625,1 1.640625,1 0.53125,0 1.296875,-0.203125 1.734375,-1.15625 0.3125,-0.6875 0.359375,-1.46875 0.359375,-2.25 z M 2.484375,0 C 2.09375,0 1.5,-0.25 1.328125,-1.203125 1.21875,-1.796875 1.21875,-2.71875 1.21875,-3.3125 c 0,-0.640625 0,-1.296875 0.078125,-1.828125 0.1875,-1.1875 0.9375,-1.28125 1.1875,-1.28125 0.328125,0 0.984375,0.1875 1.171875,1.171875 0.109375,0.5625 0.109375,1.3125 0.109375,1.9375 0,0.75 0,1.421875 -0.109375,2.0625 C 3.5,-0.296875 2.9375,0 2.484375,0 Z m 0,0"
               style="stroke:none"
               inkscape:connector-curvature="0" />
          </symbol>
          <symbol
             id="textext-5dc2f888-3"
             overflow="visible"
             style="overflow:visible">
            <path
               id="path26524"
               d="m 2.875,-2.5 c 0,-0.765625 -0.109375,-1.96875 -0.65625,-3.109375 -0.59375,-1.21875 -1.453125,-1.875 -1.546875,-1.875 -0.0625,0 -0.109375,0.046875 -0.109375,0.109375 0,0.03125 0,0.046875 0.1875,0.234375 0.984375,0.984375 1.546875,2.5625 1.546875,4.640625 0,1.71875 -0.359375,3.46875 -1.59375,4.71875 C 0.5625,2.34375 0.5625,2.359375 0.5625,2.390625 0.5625,2.453125 0.609375,2.5 0.671875,2.5 0.765625,2.5 1.671875,1.8125 2.25,0.546875 2.765625,-0.546875 2.875,-1.65625 2.875,-2.5 Z m 0,0"
               style="stroke:none"
               inkscape:connector-curvature="0" />
          </symbol>
          <symbol
             id="textext-5dc2f888-4"
             overflow="visible"
             style="overflow:visible">
            <path
               id="path26527"
               d=""
               style="stroke:none"
               inkscape:connector-curvature="0" />
          </symbol>
          <symbol
             id="textext-5dc2f888-5"
             overflow="visible"
             style="overflow:visible">
            <path
               id="path26530"
               d="m 2.03125,-0.015625 c 0,-0.65625 -0.25,-1.046875 -0.640625,-1.046875 -0.328125,0 -0.53125,0.25 -0.53125,0.53125 C 0.859375,-0.265625 1.0625,0 1.390625,0 1.5,0 1.640625,-0.046875 1.734375,-0.125 1.765625,-0.15625 1.78125,-0.15625 1.78125,-0.15625 c 0.015625,0 0.015625,0 0.015625,0.140625 0,0.75 -0.34375,1.34375 -0.671875,1.671875 -0.109375,0.109375 -0.109375,0.125 -0.109375,0.15625 0,0.078125 0.046875,0.109375 0.09375,0.109375 0.109375,0 0.921875,-0.765625 0.921875,-1.9375 z m 0,0"
               style="stroke:none"
               inkscape:connector-curvature="0" />
          </symbol>
        </g>
      </defs>
      <g
         id="textext-5dc2f888-6"
         style="fill:#ff7373;fill-opacity:1">
        <g
           id="g26533"
           style="fill:#ff7373;fill-opacity:1">
          <use
             id="use26535"
             y="134.765"
             x="223.43201"
             xlink:href="#textext-5dc2f888-1"
             width="100%"
             height="100%"
             style="fill:#ff7373;fill-opacity:1" />
          <use
             id="use26537"
             y="134.765"
             x="227.30646"
             xlink:href="#textext-5dc2f888-2"
             width="100%"
             height="100%"
             style="fill:#ff7373;fill-opacity:1" />
        </g>
        <g
           id="g26539"
           style="fill:#ff7373;fill-opacity:1">
          <use
             id="use26541"
             y="134.765"
             x="232.28799"
             xlink:href="#textext-5dc2f888-5"
             width="100%"
             height="100%"
             style="fill:#ff7373;fill-opacity:1" />
        </g>
        <g
           id="g26543"
           style="fill:#ff7373;fill-opacity:1">
          <use
             id="use26545"
             y="134.765"
             x="236.716"
             xlink:href="#textext-5dc2f888-2"
             width="100%"
             height="100%"
             style="fill:#ff7373;fill-opacity:1" />
          <use
             id="use26547"
             y="134.765"
             x="241.6973"
             xlink:href="#textext-5dc2f888-3"
             width="100%"
             height="100%"
             style="fill:#ff7373;fill-opacity:1" />
        </g>
      </g>
    </g>
    <path
       style="fill:#ff7373;fill-opacity:1;fill-rule:evenodd;stroke:#ff7373;stroke-width:0.89128417;stroke-linecap:butt;stroke-linejoin:miter;stroke-miterlimit:4;stroke-dasharray:none;stroke-opacity:1;marker-start:url(#Arrow2Lstart);marker-end:url(#Arrow2Lend)"
       d="m 591.12074,413.62925 -94.47088,0"
       id="path4791"
       inkscape:connector-curvature="0"
       sodipodi:nodetypes="cc" />
  </g>
</svg>
