<?xml version="1.0" encoding="UTF-8" standalone="no"?>
<!-- Created with Inkscape (http://www.inkscape.org/) -->

<svg
   xmlns:dc="http://purl.org/dc/elements/1.1/"
   xmlns:cc="http://creativecommons.org/ns#"
   xmlns:rdf="http://www.w3.org/1999/02/22-rdf-syntax-ns#"
   xmlns:svg="http://www.w3.org/2000/svg"
   xmlns="http://www.w3.org/2000/svg"
   xmlns:sodipodi="http://sodipodi.sourceforge.net/DTD/sodipodi-0.dtd"
   xmlns:inkscape="http://www.inkscape.org/namespaces/inkscape"
   inkscape:version="0.91 r13725"
   version="1.1"
   id="svg2"
   height="135.23836"
   width="529.37573"
   sodipodi:docname="logo_ncollide.svg">
  <defs
     id="defs4">
    <inkscape:path-effect
       effect="spiro"
       id="path-effect4656"
       is_visible="true" />
    <inkscape:path-effect
       effect="spiro"
       id="path-effect4652"
       is_visible="true" />
    <inkscape:path-effect
       effect="spiro"
       id="path-effect4648"
       is_visible="true" />
    <inkscape:path-effect
       effect="spiro"
       id="path-effect4609"
       is_visible="true" />
  </defs>
  <sodipodi:namedview
     id="base"
     pagecolor="#ffffff"
     bordercolor="#666666"
     borderopacity="1.0"
     inkscape:pageopacity="0.0"
     inkscape:pageshadow="2"
     inkscape:zoom="3.959798"
     inkscape:cx="196.89051"
     inkscape:cy="61.334894"
     inkscape:document-units="px"
     inkscape:current-layer="layer1"
     showgrid="true"
     inkscape:window-width="1918"
     inkscape:window-height="1061"
     inkscape:window-x="0"
     inkscape:window-y="18"
     inkscape:window-maximized="0"
     inkscape:snap-bbox="true"
     inkscape:snap-bbox-midpoints="true"
     inkscape:snap-global="true"
     fit-margin-top="0"
     fit-margin-left="0"
     fit-margin-right="0"
     fit-margin-bottom="0">
    <inkscape:grid
       type="xygrid"
       id="grid4677"
       empspacing="5"
       visible="true"
       enabled="true"
       snapvisiblegridlinesonly="true"
       originx="-132.83px"
       originy="-956.32654px" />
  </sodipodi:namedview>
  <metadata
     id="metadata7">
    <rdf:RDF>
      <cc:Work
         rdf:about="">
        <dc:format>image/svg+xml</dc:format>
        <dc:type
           rdf:resource="http://purl.org/dc/dcmitype/StillImage" />
        <dc:title />
      </cc:Work>
    </rdf:RDF>
  </metadata>
  <g
     inkscape:label="Calque 1"
     inkscape:groupmode="layer"
     id="layer1"
     transform="translate(-132.83,39.202722)">
    <path
       d="M 210.78125 7.90625 C 210.14429 7.90625 209.48932 8.240269 209.15625 8.78125 L 205.875 14.21875 C 205.3546 14.25928 204.76655 14.16143 204.25 14.21875 L 200.09375 9.6875 C 199.65958 9.223264 198.90484 9.033418 198.28125 9.15625 C 197.65523 9.281294 197.25369 9.651813 197.03125 10.25 L 194.65625 16.21875 C 194.14804 16.364636 193.72082 16.404441 193.21875 16.5625 L 188.15625 12.96875 C 187.63995 12.595372 186.93208 12.535793 186.34375 12.78125 C 185.75665 13.024358 185.35207 13.591509 185.25 14.21875 L 184.1875 20.375 C 183.72094 20.616991 183.36695 20.839517 182.90625 21.09375 L 177.125 18.5625 C 176.54516 18.2974 175.84008 18.395217 175.3125 18.75 C 174.7823 19.102502 174.56946 19.551748 174.59375 20.1875 L 174.78125 26.53125 C 174.3755 26.855975 173.89751 27.258251 173.5 27.59375 L 167.53125 26.15625 C 166.91011 26.011551 166.16845 26.082049 165.71875 26.53125 C 165.26668 26.982172 165.04112 27.722586 165.1875 28.34375 L 166.625 34.46875 C 166.29092 34.865262 166.0433 35.156499 165.71875 35.5625 L 159.40625 35.375 C 158.77293 35.35755 158.13502 35.751545 157.78125 36.28125 C 157.42661 36.808581 157.51734 37.325197 157.78125 37.90625 L 160.3125 43.71875 C 160.05975 44.177198 159.80446 44.687035 159.5625 45.15625 L 153.4375 46.0625 C 152.80903 46.164365 152.21305 46.567904 151.96875 47.15625 C 151.72578 47.745807 151.78656 48.452185 152.15625 48.96875 L 155.78125 54.03125 C 155.62206 54.533112 155.5522 55.148133 155.40625 55.65625 L 149.4375 57.8125 C 148.84195 58.034766 148.499 58.467723 148.375 59.09375 C 148.25142 59.718502 148.44137 60.471069 148.90625 60.90625 L 153.4375 65.0625 C 153.3799 65.578835 153.29329 66.168446 153.25 66.6875 L 148 69.9375 C 147.45877 70.271511 147.09375 70.924318 147.09375 71.5625 C 147.09375 72.200682 147.45915 72.854428 148 73.1875 L 153.25 76.4375 C 153.2964 76.957887 153.38025 77.389626 153.4375 77.90625 L 148.90625 82.25 C 148.44084 82.684138 148.25058 83.407653 148.375 84.03125 C 148.49858 84.657273 148.84188 85.088833 149.4375 85.3125 L 155.40625 87.46875 C 155.55217 87.976983 155.62203 88.622962 155.78125 89.125 L 152.15625 94.1875 C 151.78405 94.70557 151.72379 95.41287 151.96875 96 C 152.21312 96.58956 152.80903 96.96161 153.4375 97.0625 L 159.5625 97.96875 C 159.80442 98.4382 160.05721 98.9768 160.3125 99.4375 L 157.78125 105.03125 C 157.51629 105.61108 157.42661 106.31375 157.78125 106.84375 C 158.13589 107.37513 158.77293 107.77553 159.40625 107.75 L 165.71875 107.5625 C 166.0455 107.97117 166.28956 108.25875 166.625 108.65625 L 165.1875 114.8125 C 165.04158 115.43244 165.26987 116.14277 165.71875 116.59375 C 166.16733 117.04699 166.91011 117.11472 167.53125 116.96875 L 173.5 115.53125 C 173.89768 115.86927 174.37526 116.2704 174.78125 116.59375 L 174.59375 122.9375 C 174.56935 123.57325 174.78233 124.02005 175.3125 124.375 C 175.83983 124.72868 176.54516 124.82764 177.125 124.5625 L 182.90625 122.03125 C 183.36586 122.28654 183.71947 122.50786 184.1875 122.75 L 185.25 128.90625 C 185.35193 129.53592 185.75567 130.10185 186.34375 130.34375 C 186.93089 130.58801 187.63967 130.55851 188.15625 130.1875 L 193.21875 126.375 C 193.72061 126.53419 194.14815 126.76038 194.65625 126.90625 L 197.03125 132.71875 C 197.25362 133.3144 197.65523 133.84716 198.28125 133.96875 C 198.90606 134.09477 199.65976 133.9041 200.09375 133.4375 L 204.25 128.71875 C 204.7663 128.77835 205.35471 128.85996 205.875 128.90625 L 209.15625 134.34375 C 209.48894 134.88208 210.14433 135.25 210.78125 135.25 C 211.41823 135.25 211.88446 134.88358 212.21875 134.34375 L 215.65625 128.90625 C 216.17664 128.85995 216.57713 128.77834 217.09375 128.71875 L 221.4375 133.4375 C 221.87167 133.90406 222.43892 134.09525 223.0625 133.96875 C 223.68853 133.84587 224.30878 133.31458 224.53125 132.71875 L 226.6875 126.90625 C 227.19575 126.76036 227.62297 126.53419 228.125 126.375 L 233.1875 130.1875 C 233.7044 130.55795 234.4129 130.58805 235 130.34375 C 235.58832 130.10176 235.99164 129.5347 236.09375 128.90625 L 237.1875 122.75 C 237.65402 122.508 238.16431 122.28264 238.625 122.03125 L 244.25 124.5625 C 244.82984 124.8276 245.50248 124.72867 246.03125 124.375 C 246.56148 124.02016 246.96061 123.57447 246.9375 122.9375 L 246.59375 116.59375 C 246.9995 116.26902 247.44747 115.86912 247.84375 115.53125 L 254 116.96875 C 254.62118 117.11463 255.17649 117.04754 255.625 116.59375 C 256.07711 116.14282 256.33387 115.43244 256.1875 114.8125 L 254.71875 108.65625 C 255.05457 108.25857 255.48917 107.97094 255.8125 107.5625 L 261.96875 107.75 C 262.60208 107.773 263.24002 107.37518 263.59375 106.84375 C 263.94843 106.31353 264.04768 105.61109 263.78125 105.03125 L 261.25 99.4375 C 261.50414 98.97674 261.72794 98.43797 261.96875 97.96875 L 268.125 97.0625 C 268.75469 96.96175 269.31939 96.58949 269.5625 96 C 269.80547 95.41287 269.55966 94.70534 269.1875 94.1875 L 265.59375 89.125 C 265.75189 88.623141 265.97852 87.976808 266.125 87.46875 L 271.90625 85.3125 C 272.50313 85.089046 273.06591 84.657276 273.1875 84.03125 C 273.31352 83.406438 273.09168 82.683963 272.625 82.25 L 267.9375 77.90625 C 267.9951 77.389339 268.08067 76.956498 268.125 76.4375 L 273.53125 73.1875 C 274.07192 72.854676 274.25 72.199463 274.25 71.5625 C 274.25 70.925533 274.07258 70.271784 273.53125 69.9375 L 268.125 66.6875 C 268.0786 66.167119 267.99371 65.579062 267.9375 65.0625 L 272.625 60.90625 C 273.09152 60.470953 273.31429 59.717347 273.1875 59.09375 C 273.06462 58.467727 272.50323 58.034948 271.90625 57.8125 L 266.125 55.65625 C 265.97804 55.148021 265.75182 54.533282 265.59375 54.03125 L 269.1875 48.96875 C 269.56089 48.452412 269.80575 47.745807 269.5625 47.15625 C 269.31953 46.569123 268.75347 46.165824 268.125 46.0625 L 261.96875 45.15625 C 261.72788 44.686805 261.50295 44.177027 261.25 43.71875 L 263.78125 37.90625 C 264.04761 37.325197 263.94878 36.808811 263.59375 36.28125 C 263.23991 35.751024 262.60815 35.350686 261.96875 35.375 L 255.8125 35.5625 C 255.48784 35.15673 255.05541 34.863817 254.71875 34.46875 L 256.1875 28.34375 C 256.33342 27.722586 256.07379 26.982231 255.625 26.53125 C 255.17638 26.081483 254.62114 26.010274 254 26.15625 L 247.84375 27.59375 C 247.44722 27.258029 247.001 26.855811 246.59375 26.53125 L 246.9375 20.1875 C 246.9619 19.551751 246.56113 19.10252 246.03125 18.75 C 245.49986 18.395155 244.82984 18.29852 244.25 18.5625 L 238.625 21.09375 C 238.16423 20.840763 237.65431 20.617078 237.1875 20.375 L 236.09375 14.21875 C 235.99181 13.591505 235.58812 13.024368 235 12.78125 C 234.4129 12.53699 233.70412 12.596584 233.1875 12.96875 L 228.125 16.5625 C 227.62426 16.403314 227.19561 16.364625 226.6875 16.21875 L 224.53125 10.25 C 224.30888 9.651932 223.68849 9.280237 223.0625 9.15625 C 222.43766 9.033544 221.87143 9.223243 221.4375 9.6875 L 217.09375 14.21875 C 216.57744 14.16084 216.17521 14.26158 215.65625 14.21875 L 212.21875 8.78125 C 211.88467 8.240605 211.4182 7.90625 210.78125 7.90625 z M 210.59375 19.09375 C 211.56024 19.11644 212.5911 19.620176 213.3125 20.375 C 214.753 21.888341 214.63538 24.369601 213.125 25.8125 C 211.61769 27.256553 209.3179 27.136984 207.875 25.625 C 206.43576 24.114029 206.36542 21.631554 207.875 20.1875 C 208.62865 19.465442 209.62726 19.071268 210.59375 19.09375 z M 210.3125 34.59375 C 234.33 34.59375 249.71875 48.831003 249.71875 71.3125 C 249.71875 93.095813 234.4902 107.21875 211.03125 107.21875 C 187.29302 107.21875 172.34375 92.837907 172.34375 69.9375 C 172.34375 48.85237 187.69137 34.59375 210.3125 34.59375 z M 211.15625 48.84375 C 202.21951 48.84375 197.75 56.512994 197.75 71.59375 C 197.75 86.115958 202.35915 93.65625 211.15625 93.65625 C 219.67409 93.65625 224.28125 86.117936 224.28125 71.875 C 224.28125 56.514971 219.95336 48.84375 211.15625 48.84375 z M 165.375 53.46875 C 166.84713 53.44362 168.36545 54.225203 169 55.65625 C 169.84602 57.565926 168.90462 59.873916 167 60.71875 C 165.0928 61.56601 162.78349 60.626826 161.9375 58.71875 C 161.09144 56.807856 162.00166 54.503454 163.90625 53.65625 C 164.38321 53.444735 164.88429 53.476919 165.375 53.46875 z M 255.625 53.65625 C 256.11582 53.66495 256.61696 53.632166 257.09375 53.84375 C 259.00101 54.689736 259.90856 56.996571 259.0625 58.90625 C 258.21766 60.817092 255.90845 61.753514 254 60.90625 C 252.09521 60.060201 251.34269 57.724613 252.1875 55.8125 C 252.8211 54.380288 254.15308 53.630721 255.625 53.65625 z M 182.59375 106.5625 C 184.32295 106.54445 185.77336 107.77453 186.15625 109.5625 C 186.59272 111.60463 185.3198 113.62488 183.28125 114.0625 C 181.24157 114.50242 179.18881 113.23089 178.75 111.1875 C 178.31353 109.14051 179.77272 107.09629 181.8125 106.65625 C 182.06746 106.60169 182.34672 106.56508 182.59375 106.5625 z M 238.53125 106.75 C 238.81435 106.74775 239.08893 106.78875 239.34375 106.84375 C 241.38349 107.28021 242.68765 109.33288 242.25 111.375 C 241.81241 113.41718 239.7572 114.68639 237.71875 114.25 C 235.67897 113.81007 234.40617 111.76452 234.84375 109.71875 C 235.17085 108.1862 236.27319 107.11971 237.71875 106.84375 C 237.95953 106.79775 238.24815 106.75225 238.53125 106.75 z "
       id="path3684"
       transform="translate(132.83,-39.202722)" />
    <path
       inkscape:connector-curvature="0"
       id="path6060"
       style="font-size:139.63676453px;font-style:italic;font-variant:normal;font-weight:bold;font-stretch:normal;line-height:125%;letter-spacing:-11.03130531px;word-spacing:-5.72510958px;fill:#000000;fill-opacity:1;stroke:none;font-family:URW Bookman L;-inkscape-font-specification:URW Bookman L Bold Italic"
       d="M 156.0097,66.746674 165.505,14.66216 c 3.90983,-3.072005 8.93676,-4.8872863 13.82404,-4.8872863 5.30619,0 8.51784,2.5134663 8.51784,6.8422013 0,1.396366 0,1.675642 -0.13963,2.513462 l -5.44584,28.90481 c -0.41891,2.513459 -0.69818,4.747652 -0.69818,6.283655 0,8.098924 7.12149,13.684402 17.4546,13.684402 7.2611,0 14.10332,-2.932378 22.0626,-9.4953 l -5.44583,-7.819658 c -2.93237,1.815276 -4.04947,2.234188 -5.86474,2.234188 -3.21165,0 -5.16656,-1.815281 -5.16656,-4.74765 0,-1.25673 0,-1.256737 1.11709,-6.981838 l 4.32874,-24.436434 c 0.83782,-4.049462 0.97746,-5.585473 0.97746,-7.5403854 0,-8.79710737 -8.37822,-15.0807706 -20.1077,-15.0807706 -7.95928,0 -17.17532,3.3512874 -23.1797,8.3782059 l 1.25673,-7.121475 -7.26111,0 c -10.61238,3.351279 -16.33751,4.32874027 -26.81026,4.88728677 L 132.83,11.729788 l 1.67564,0 c 2.37382,0 6.14402,1.256732 7.40075,2.234189 0.55855,0.558546 0.83782,1.536005 0.83782,2.792735 0,0.977456 -0.27927,3.351284 -0.55855,5.16656 l -8.23857,44.823402 22.06261,0" />
    <path
       inkscape:connector-curvature="0"
       id="path6062"
       style="font-size:139.63676453px;font-style:italic;font-variant:normal;font-weight:bold;font-stretch:normal;line-height:125%;letter-spacing:-11.03130531px;word-spacing:-5.72510958px;fill:#000000;fill-opacity:1;stroke:none;font-family:URW Bookman L;-inkscape-font-specification:URW Bookman L Bold Italic"
       d="m 274.75041,42.868787 c -10.05384,8.098924 -18.15279,11.729488 -26.25171,11.729488 -9.21602,0 -14.38259,-5.445843 -14.38259,-15.08077 0,-17.314942 11.17096,-34.4902813 22.34189,-34.4902813 3.77018,0 6.56292,2.0945544 6.56292,5.0269233 0,0.83782 -0.13963,1.815279 -0.55854,2.932372 -0.41891,1.67564 -0.55855,2.513463 -0.55855,3.351283 0,4.747645 4.46838,8.378205 10.33312,8.378205 7.40074,0 13.6844,-5.725114 13.6844,-12.567308 0,-10.0538373 -12.14841,-18.013143 -27.22917,-18.013143 -25.41386,0 -48.03504,20.666264 -48.03504,43.845944 0,17.873488 13.26551,30.021904 32.675,30.021904 13.68439,0 29.603,-6.981848 38.81902,-17.035685 l -7.40075,-8.098932" />
    <path
       inkscape:connector-curvature="0"
       id="path6066"
       style="font-size:139.63676453px;font-style:italic;font-variant:normal;font-weight:bold;font-stretch:normal;line-height:125%;letter-spacing:-11.03130531px;word-spacing:-16.75641441px;fill:#000000;fill-opacity:1;stroke:none;font-family:URW Bookman L;-inkscape-font-specification:URW Bookman L Bold Italic"
       d="m 440.28775,50.862992 c -3.35128,1.675639 -6.00438,2.513461 -8.09893,2.513461 -2.79274,0 -5.02693,-2.094554 -5.02693,-4.887286 0,-0.977457 0.13964,-2.23419 0.41891,-3.630556 l 14.52223,-79.87223 -7.54039,0 c -7.40074,3.351279 -17.17533,5.306197 -26.39135,5.306197 l -1.95491,11.450215 1.536,0 c 2.37383,0 5.86475,1.117095 7.12148,2.234188 0.41891,0.41891 0.83782,1.536006 0.83782,2.653099 0,0.83782 -0.27928,3.6305575 -0.69818,5.306197 l -10.6124,58.926715 c -0.41891,1.954912 -0.55855,3.630556 -0.55855,4.608013 0,7.819651 7.26113,12.986219 18.15278,12.986219 7.95929,0 16.19788,-3.211652 23.87789,-9.216027 l -5.58547,-8.378205" />
    <path
       inkscape:connector-curvature="0"
       id="path6068"
       style="font-size:139.63676453px;font-style:italic;font-variant:normal;font-weight:bold;font-stretch:normal;line-height:125%;letter-spacing:-11.03130531px;word-spacing:-16.8900013px;fill:#000000;fill-opacity:1;stroke:none;font-family:URW Bookman L;-inkscape-font-specification:URW Bookman L Bold Italic"
       d="m 476.08844,50.862992 c -3.35128,1.675639 -6.00438,2.513461 -8.09893,2.513461 -2.79274,0 -5.02693,-2.094554 -5.02693,-4.887286 0,-0.977457 0.13964,-2.23419 0.41891,-3.630556 l 14.52223,-79.87223 -7.54039,0 c -7.40074,3.351279 -17.17533,5.306197 -26.39135,5.306197 l -1.95491,11.450215 1.536,0 c 2.37383,0 5.86475,1.117095 7.12148,2.234188 0.41891,0.41891 0.83782,1.536006 0.83782,2.653099 0,0.83782 -0.27928,3.6305575 -0.69819,5.306197 l -10.61239,58.926715 c -0.41891,1.954912 -0.55855,3.630556 -0.55855,4.608013 0,7.819651 7.26113,12.986219 18.15278,12.986219 7.95929,0 16.19788,-3.211652 23.87789,-9.216027 l -5.58547,-8.378205" />
    <path
       inkscape:connector-curvature="0"
       id="path6070"
       style="font-size:139.63676453px;font-style:italic;font-variant:normal;font-weight:bold;font-stretch:normal;line-height:125%;letter-spacing:-11.03130531px;word-spacing:-16.75641441px;fill:#000000;fill-opacity:1;stroke:none;font-family:URW Bookman L;-inkscape-font-specification:URW Bookman L Bold Italic"
       d="m 512.64618,50.304445 c -3.90983,1.954912 -7.12148,3.072008 -8.93676,3.072008 -2.93237,0 -5.44583,-2.234191 -5.44583,-4.887286 0,-0.977457 0.27927,-2.792738 0.69818,-4.74765 0.13964,-0.558547 0.27928,-1.81528 0.69819,-3.770193 l 7.95929,-44.1252176 -7.26111,0 c -10.61238,3.35127899 -16.33751,4.32874025 -26.81026,4.88728675 l -2.09455,11.45021485 1.67564,0 c 2.37382,0 6.14402,1.256732 7.40075,2.234188 0.55855,0.558547 0.83782,1.536006 0.83782,2.792735 0,0.977457 -0.27927,3.351285 -0.55855,5.166561 l -4.60801,25.413891 c -0.69818,3.211642 -0.83782,4.887289 -0.83782,6.842201 0,8.238561 7.26112,13.82404 18.15278,13.82404 8.09892,0 17.31497,-3.770199 24.99498,-10.333121 l -5.86474,-7.819658 M 501.3356,-39.202722 c -7.95929,0 -15.77896,7.680031 -15.77896,15.778955 0,6.562921 4.46839,11.170941 10.89167,11.170941 8.09893,0 16.05823,-7.819667 16.05823,-15.778954 0,-6.562922 -4.46838,-11.170942 -11.17094,-11.170942" />
    <path
       inkscape:connector-curvature="0"
       id="path6072"
       style="font-size:139.63676453px;font-style:italic;font-variant:normal;font-weight:bold;font-stretch:normal;line-height:125%;letter-spacing:-11.03130531px;word-spacing:-16.75641441px;fill:#000000;fill-opacity:1;stroke:none;font-family:URW Bookman L;-inkscape-font-specification:URW Bookman L Bold Italic"
       d="m 592.13043,49.18735 c -0.27928,0.279274 -0.69819,0.558548 -0.69819,0.558548 -3.90982,2.932369 -4.1891,3.072008 -6.42329,3.072008 -2.93237,0 -5.16656,-2.234191 -5.16656,-5.306197 0,-2.094549 0.41891,-5.306201 1.1171,-9.4953 l 13.26549,-73.030028 -7.9593,0 c -7.54037,3.351279 -17.17533,5.306197 -26.39135,5.306197 l -2.09455,11.450215 1.67564,0 c 2.23419,0 5.86475,1.117095 7.12148,2.234188 0.41891,0.41891 0.83782,1.536006 0.83782,2.653099 0,0.977456 -0.27927,3.072011 -0.69818,5.306197 l -1.25673,7.40074851 c -5.02692,-2.93236911 -11.45022,-4.74765001 -16.89605,-4.74765001 -22.20223,0 -41.7514,20.6662645 -41.7514,43.8459445 0,17.175304 11.72951,30.021904 27.50845,30.021904 6.14401,0 12.84658,-2.373829 17.45459,-6.144018 l 5.58547,-5.16656 c 1.81528,7.261105 7.81967,11.310578 16.75641,11.310578 7.95929,0 17.17533,-4.328747 24.01753,-11.310578 L 592.13043,49.18735 M 562.80671,10.78724 c 0.27927,0.139637 0.27927,0.139637 0.41891,0.279274 -3.77019,21.643677 -6.4233,30.440821 -11.31058,36.724469 -3.77019,4.747645 -7.81966,7.261112 -11.86913,7.261112 -6.14401,0 -9.77457,-5.026933 -9.77457,-13.684403 0,-8.238561 2.93238,-19.130243 6.98184,-25.274255 3.90982,-6.2836479 8.65748,-9.2160262 14.52222,-9.2160262 3.90983,0 7.9593,1.3963699 10.75203,3.6305562 l 0.27928,0.279273" />
    <path
       inkscape:connector-curvature="0"
       id="path6074"
       style="font-size:139.63676453px;font-style:italic;font-variant:normal;font-weight:bold;font-stretch:normal;line-height:125%;letter-spacing:-11.03130531px;word-spacing:-16.75641441px;fill:#000000;fill-opacity:1;stroke:none;font-family:URW Bookman L;-inkscape-font-specification:URW Bookman L Bold Italic"
       d="m 651.03479,42.903696 c -9.63492,8.238561 -17.87351,12.148399 -26.25171,12.148399 -8.3782,0 -13.82404,-5.166569 -13.82404,-12.98622 0,-1.815276 0.13964,-3.630558 0.41891,-6.00438 1.53601,0.139636 3.07201,0.139636 3.63056,0.139636 11.86911,0 22.34189,-1.815281 31.69754,-5.445833 10.05384,-3.909826 15.49969,-10.612403 15.49969,-18.9906 0,-10.3331107 -9.77459,-17.1753225 -24.57608,-17.1753225 -27.50841,0 -50.40887,20.1077185 -50.40887,44.2648545 0,17.454578 13.40515,29.602994 32.95428,29.602994 9.63493,0 18.29243,-2.792742 28.4859,-9.355663 4.46837,-2.932369 7.40075,-5.166563 9.91421,-7.959296 l -7.54039,-8.238569 M 613.33287,26.426558 c 0.83782,-4.049462 3.07201,-8.657484 6.28365,-12.706946 4.04946,-5.3061915 9.0764,-8.2385689 14.10332,-8.2385689 4.608,0 7.81965,2.7927392 7.81965,6.7025649 0,7.819651 -12.00877,14.24295 -26.53098,14.24295 l -1.67564,0" />
    <path
       style="fill:none;stroke:#000000;stroke-width:1px;stroke-linecap:butt;stroke-linejoin:miter;stroke-opacity:1"
       d=""
       id="path4654"
       inkscape:path-effect="#path-effect4656"
       inkscape:original-d="M 255.31606,73.398096 z"
       inkscape:connector-curvature="0" />
    <text
       xml:space="preserve"
       style="font-size:139.63676453px;font-style:normal;font-weight:normal;line-height:125%;letter-spacing:0px;word-spacing:0px;fill:#000000;fill-opacity:1;stroke:none;font-family:Sans"
       x="385.41705"
       y="29.900635"
       id="text5083"
       sodipodi:linespacing="125%"><tspan
         sodipodi:role="line"
         id="tspan5085"
         x="385.41705"
         y="29.900635" /></text>
  </g>
</svg>
