<?xml version="1.0" encoding="UTF-8" standalone="no"?>
<!-- Created with Inkscape (http://www.inkscape.org/) -->

<svg
   xmlns:ns0="http://www.iki.fi/pav/software/textext/"
   xmlns:dc="http://purl.org/dc/elements/1.1/"
   xmlns:cc="http://creativecommons.org/ns#"
   xmlns:rdf="http://www.w3.org/1999/02/22-rdf-syntax-ns#"
   xmlns:svg="http://www.w3.org/2000/svg"
   xmlns="http://www.w3.org/2000/svg"
   xmlns:xlink="http://www.w3.org/1999/xlink"
   xmlns:sodipodi="http://sodipodi.sourceforge.net/DTD/sodipodi-0.dtd"
   xmlns:inkscape="http://www.inkscape.org/namespaces/inkscape"
   width="558.17047"
   height="156.17255"
   id="svg2"
   version="1.1"
   inkscape:version="0.91 r13725"
   sodipodi:docname="solid_point_projection.svg">
  <sodipodi:namedview
     id="base"
     pagecolor="#ffffff"
     bordercolor="#666666"
     borderopacity="1.0"
     inkscape:pageopacity="0.0"
     inkscape:pageshadow="2"
     inkscape:zoom="3.959798"
     inkscape:cx="191.87726"
     inkscape:cy="44.908125"
     inkscape:document-units="px"
     inkscape:current-layer="layer1"
     showgrid="true"
     inkscape:snap-bbox="false"
     inkscape:window-width="1918"
     inkscape:window-height="1061"
     inkscape:window-x="0"
     inkscape:window-y="18"
     inkscape:window-maximized="0"
     fit-margin-top="0"
     fit-margin-left="0"
     fit-margin-right="0"
     fit-margin-bottom="0"
     inkscape:snap-global="false">
    <inkscape:grid
       originy="-693.40244"
       originx="-263.54798"
       type="xygrid"
       id="grid2985"
       empspacing="5"
       visible="true"
       enabled="true"
       snapvisiblegridlinesonly="true" />
  </sodipodi:namedview>
  <defs
     id="defs4">
    <marker
       inkscape:stockid="DotS"
       orient="auto"
       refY="0"
       refX="0"
       id="DotS"
       style="overflow:visible">
      <path
         inkscape:connector-curvature="0"
         id="path3830"
         d="m -2.5,-1 c 0,2.76 -2.24,5 -5,5 -2.76,0 -5,-2.24 -5,-5 0,-2.76 2.24,-5 5,-5 2.76,0 5,2.24 5,5 z"
         style="fill-rule:evenodd;stroke:#000000;stroke-width:1pt"
         transform="matrix(0.2,0,0,0.2,1.48,0.2)" />
    </marker>
    <marker
       inkscape:stockid="Arrow1Mend"
       orient="auto"
       refY="0"
       refX="0"
       id="Arrow1Mend"
       style="overflow:visible">
      <path
         inkscape:connector-curvature="0"
         id="path3772"
         d="M 0,0 5,-5 -12.5,0 5,5 0,0 Z"
         style="fill-rule:evenodd;stroke:#000000;stroke-width:1pt"
         transform="matrix(-0.4,0,0,-0.4,-4,0)" />
    </marker>
    <marker
       inkscape:stockid="DotSq"
       orient="auto"
       refY="0"
       refX="0"
       id="DotSq"
       style="overflow:visible">
      <path
         inkscape:connector-curvature="0"
         id="path4396"
         d="m -2.5,-1 c 0,2.76 -2.24,5 -5,5 -2.76,0 -5,-2.24 -5,-5 0,-2.76 2.24,-5 5,-5 2.76,0 5,2.24 5,5 z"
         style="fill:#008000;fill-rule:evenodd;stroke:#008000;stroke-width:1pt"
         transform="matrix(0.2,0,0,0.2,1.48,0.2)" />
    </marker>
    <marker
       inkscape:stockid="Arrow1MendG"
       orient="auto"
       refY="0"
       refX="0"
       id="Arrow1MendG"
       style="overflow:visible">
      <path
         inkscape:connector-curvature="0"
         id="path4399"
         d="M 0,0 5,-5 -12.5,0 5,5 0,0 Z"
         style="fill:#008000;fill-rule:evenodd;stroke:#008000;stroke-width:1pt"
         transform="matrix(-0.4,0,0,-0.4,-4,0)" />
    </marker>
    <marker
       inkscape:stockid="DotSq"
       orient="auto"
       refY="0"
       refX="0"
       id="DotSq-6"
       style="overflow:visible">
      <path
         inkscape:connector-curvature="0"
         id="path4396-7"
         d="m -2.5,-1 c 0,2.76 -2.24,5 -5,5 -2.76,0 -5,-2.24 -5,-5 0,-2.76 2.24,-5 5,-5 2.76,0 5,2.24 5,5 z"
         style="fill:#008000;fill-rule:evenodd;stroke:#008000;stroke-width:1pt"
         transform="matrix(0.2,0,0,0.2,1.48,0.2)" />
    </marker>
    <marker
       inkscape:stockid="Arrow1MendG"
       orient="auto"
       refY="0"
       refX="0"
       id="Arrow1MendG-5"
       style="overflow:visible">
      <path
         inkscape:connector-curvature="0"
         id="path4399-5"
         d="M 0,0 5,-5 -12.5,0 5,5 0,0 Z"
         style="fill:#008000;fill-rule:evenodd;stroke:#008000;stroke-width:1pt"
         transform="matrix(-0.4,0,0,-0.4,-4,0)" />
    </marker>
  </defs>
  <metadata
     id="metadata7">
    <rdf:RDF>
      <cc:Work
         rdf:about="">
        <dc:format>image/svg+xml</dc:format>
        <dc:type
           rdf:resource="http://purl.org/dc/dcmitype/StillImage" />
        <dc:title></dc:title>
      </cc:Work>
    </rdf:RDF>
  </metadata>
  <g
     transform="translate(-263.54798,-202.7872)"
     inkscape:label="Calque 1"
     inkscape:groupmode="layer"
     id="layer1">
    <rect
       style="fill:#f2f2f2;fill-opacity:1;stroke:#000000;stroke-width:1.25;stroke-linecap:round;stroke-linejoin:round;stroke-miterlimit:4;stroke-dasharray:none;stroke-dashoffset:0;stroke-opacity:1"
       id="rect2987"
       width="182.25002"
       height="121.50002"
       x="292.47461"
       y="203.4122" />
    <circle
       style="fill:none;stroke:#ff0000;stroke-width:1.47215617;stroke-miterlimit:4;stroke-dasharray:none"
       id="path4543"
       cx="361.86746"
       cy="284.41205"
       r="4.7423134" />
    <text
       xml:space="preserve"
       style="font-style:normal;font-weight:normal;font-size:21.81999969px;line-height:125%;font-family:Sans;letter-spacing:0px;word-spacing:0px;fill:#000000;fill-opacity:1;stroke:none"
       x="262.10965"
       y="354.32651"
       id="text4545"
       sodipodi:linespacing="125%"><tspan
         sodipodi:role="line"
         id="tspan4547"
         x="262.10965"
         y="354.32651"
         style="font-size:21.81999969px">Solid point projection</tspan></text>
    <rect
       style="fill:#f2f2f2;fill-opacity:1;stroke:#000000;stroke-width:1.25;stroke-linecap:round;stroke-linejoin:round;stroke-miterlimit:4;stroke-dasharray:none;stroke-dashoffset:0;stroke-opacity:1"
       id="rect2987-0"
       width="182.25002"
       height="121.50002"
       x="591.49115"
       y="203.4122" />
    <text
       xml:space="preserve"
       style="font-style:normal;font-weight:normal;font-size:162.00001526px;line-height:125%;font-family:Sans;letter-spacing:0px;word-spacing:0px;fill:#000000;fill-opacity:1;stroke:none"
       x="542.95941"
       y="354.42102"
       id="text4545-9"
       sodipodi:linespacing="125%"><tspan
         sodipodi:role="line"
         id="tspan4547-4"
         x="542.95941"
         y="354.42102"
         style="font-size:21.81999969px">Non-solid point projection</tspan></text>
    <path
       sodipodi:nodetypes="cc"
       style="fill:#008000;stroke:#008000;stroke-width:2.0250001;stroke-linecap:round;stroke-linejoin:round;stroke-miterlimit:4;stroke-dasharray:2.02500019, 6.07500057;stroke-dashoffset:6.68250084;stroke-opacity:1;marker-mid:none;marker-end:none"
       d="m 661.37595,288.53386 0.11673,30.13688"
       id="path4693"
       inkscape:connector-curvature="0" />
    <circle
       r="3.2288074"
       cy="284.41205"
       cx="361.86746"
       id="path3448"
       style="fill:#008000;fill-opacity:1;stroke:#000000;stroke-width:1.61440372;stroke-miterlimit:4;stroke-dasharray:none;stroke-opacity:0" />
    <circle
       style="fill:#008000;fill-opacity:1;stroke:#000000;stroke-width:1.64619303;stroke-miterlimit:4;stroke-dasharray:none;stroke-opacity:0"
       id="circle3450"
       cx="661.42365"
       cy="284.41205"
       r="3.2923861" />
    <circle
       r="4.0500002"
       cy="324.79358"
       cx="661.52893"
       style="fill:none;stroke:#ff0000;stroke-width:2.0250001;stroke-miterlimit:4;stroke-dasharray:none"
       id="path4543-2" />
    <g
       ns0:text="$\\mathit{distance} = 0.0$"
       ns0:preamble=""
       transform="matrix(1.4354008,0,0,1.4354008,3.7873781,108.71774)"
       style="fill:#ff0000;fill-opacity:1"
       id="g3930">
      <defs
         id="defs3932">
        <g
           id="g3934">
          <symbol
             overflow="visible"
             id="textext-ea3d7c90-0"
             style="overflow:visible">
            <path
               style="stroke:none"
               d=""
               id="path3937"
               inkscape:connector-curvature="0" />
          </symbol>
          <symbol
             overflow="visible"
             id="textext-ea3d7c90-1"
             style="overflow:visible">
            <path
               style="stroke:none"
               d="m 5.546875,-6.671875 c 0.015625,-0.03125 0.03125,-0.109375 0.03125,-0.125 0,-0.09375 -0.0625,-0.125 -0.140625,-0.125 -0.03125,0 -0.125,0.015625 -0.15625,0.03125 L 4.296875,-6.8125 c -0.125,0 -0.234375,0.015625 -0.234375,0.203125 C 4.0625,-6.5 4.171875,-6.5 4.3125,-6.5 c 0.46875,0 0.5,0.0625 0.5,0.171875 0,0.03125 -0.03125,0.15625 -0.03125,0.171875 l -0.578125,2.328125 c -0.15625,-0.3125 -0.421875,-0.578125 -0.84375,-0.578125 -1.109375,0 -2.28125,1.515625 -2.28125,2.96875 0,0.84375 0.453125,1.546875 1.203125,1.546875 0.359375,0 0.796875,-0.203125 1.203125,-0.703125 0.109375,0.5 0.46875,0.703125 0.828125,0.703125 0.359375,0 0.578125,-0.25 0.71875,-0.5625 0.1875,-0.375 0.296875,-0.953125 0.296875,-0.96875 0,-0.109375 -0.078125,-0.109375 -0.140625,-0.109375 -0.125,0 -0.140625,0.015625 -0.1875,0.234375 -0.140625,0.5625 -0.328125,1.1875 -0.671875,1.1875 -0.265625,0 -0.265625,-0.265625 -0.265625,-0.40625 0,-0.078125 0,-0.21875 0.0625,-0.46875 z M 3.53125,-1.21875 C 3.453125,-0.90625 2.84375,-0.109375 2.296875,-0.109375 1.828125,-0.109375 1.75,-0.703125 1.75,-1 1.75,-1.5 2.0625,-2.65625 2.25,-3.078125 2.5,-3.6875 2.953125,-4.1875 3.359375,-4.1875 c 0.078125,0 0.3125,0.015625 0.484375,0.296875 0.109375,0.15625 0.203125,0.4375 0.203125,0.625 0,0.03125 -0.015625,0.078125 -0.03125,0.140625 z m 0,0"
               id="path3940"
               inkscape:connector-curvature="0" />
          </symbol>
          <symbol
             overflow="visible"
             id="textext-ea3d7c90-2"
             style="overflow:visible">
            <path
               style="stroke:none"
               d="m 3.296875,-1.421875 c 0,-0.109375 -0.078125,-0.109375 -0.140625,-0.109375 -0.140625,0 -0.140625,0.03125 -0.171875,0.171875 -0.078125,0.296875 -0.359375,1.25 -0.9375,1.25 -0.078125,0 -0.21875,-0.015625 -0.21875,-0.28125 0,-0.25 0.140625,-0.59375 0.265625,-0.953125 l 0.640625,-1.703125 c 0.09375,-0.296875 0.109375,-0.375 0.109375,-0.5625 0,-0.546875 -0.375,-0.796875 -0.734375,-0.796875 -0.9375,0 -1.28125,1.484375 -1.28125,1.53125 0,0.109375 0.09375,0.109375 0.15625,0.109375 0.125,0 0.125,-0.03125 0.171875,-0.171875 0.09375,-0.328125 0.34375,-1.25 0.921875,-1.25 0.109375,0 0.21875,0.046875 0.21875,0.28125 0,0.234375 -0.109375,0.53125 -0.171875,0.71875 L 1.828125,-2.359375 C 1.6875,-2.03125 1.578125,-1.703125 1.453125,-1.375 1.3125,-1 1.28125,-0.890625 1.28125,-0.6875 c 0,0.390625 0.234375,0.796875 0.75,0.796875 0.9375,0 1.265625,-1.5 1.265625,-1.53125 z M 3.25,-6.203125 c 0,-0.25 -0.203125,-0.34375 -0.34375,-0.34375 -0.203125,0 -0.46875,0.203125 -0.46875,0.484375 0,0.25 0.1875,0.328125 0.328125,0.328125 0.203125,0 0.484375,-0.1875 0.484375,-0.46875 z m 0,0"
               id="path3943"
               inkscape:connector-curvature="0" />
          </symbol>
          <symbol
             overflow="visible"
             id="textext-ea3d7c90-3"
             style="overflow:visible">
            <path
               style="stroke:none"
               d="m 2.46875,-1.96875 c 0.4375,0.109375 0.875,0.203125 0.875,0.75 0,0.3125 -0.265625,1.109375 -1.296875,1.109375 -0.21875,0 -0.796875,-0.046875 -0.953125,-0.5625 0.515625,-0.046875 0.515625,-0.46875 0.515625,-0.484375 0,-0.1875 -0.140625,-0.3125 -0.34375,-0.3125 -0.234375,0 -0.515625,0.15625 -0.515625,0.609375 0,0.609375 0.578125,0.96875 1.296875,0.96875 1.484375,0 1.875,-1.21875 1.875,-1.671875 0,-0.875 -0.78125,-1.046875 -1.1875,-1.140625 -0.28125,-0.0625 -0.640625,-0.140625 -0.640625,-0.5625 0,-0.25 0.203125,-0.921875 1,-0.921875 0.28125,0 0.640625,0.09375 0.75,0.484375 -0.3125,0.046875 -0.390625,0.3125 -0.390625,0.40625 0,0.109375 0.0625,0.28125 0.296875,0.28125 0.171875,0 0.421875,-0.109375 0.421875,-0.546875 0,-0.453125 -0.40625,-0.84375 -1.0625,-0.84375 -1.171875,0 -1.578125,0.953125 -1.578125,1.46875 0,0.78125 0.65625,0.90625 0.9375,0.96875 z m 0,0"
               id="path3946"
               inkscape:connector-curvature="0" />
          </symbol>
          <symbol
             overflow="visible"
             id="textext-ea3d7c90-4"
             style="overflow:visible">
            <path
               style="stroke:none"
               d="m 2.59375,-3.984375 0.84375,0 c 0.171875,0 0.28125,0 0.28125,-0.1875 0,-0.125 -0.09375,-0.125 -0.25,-0.125 l -0.796875,0 0.375,-1.46875 c 0.03125,-0.140625 0.03125,-0.171875 0.03125,-0.21875 0,-0.203125 -0.171875,-0.25 -0.265625,-0.25 -0.25,0 -0.34375,0.203125 -0.390625,0.359375 l -0.390625,1.578125 -0.84375,0 c -0.171875,0 -0.28125,0 -0.28125,0.1875 0,0.125 0.09375,0.125 0.25,0.125 l 0.796875,0 L 1.234375,-1.125 C 1.21875,-1.09375 1.1875,-0.921875 1.1875,-0.78125 c 0,0.484375 0.328125,0.890625 0.84375,0.890625 1.015625,0 1.515625,-1.484375 1.515625,-1.53125 0,-0.109375 -0.078125,-0.109375 -0.140625,-0.109375 -0.125,0 -0.125,0.015625 -0.203125,0.203125 -0.1875,0.46875 -0.578125,1.21875 -1.15625,1.21875 -0.265625,0 -0.265625,-0.25 -0.265625,-0.40625 0,-0.078125 0,-0.234375 0.078125,-0.515625 z m 0,0"
               id="path3949"
               inkscape:connector-curvature="0" />
          </symbol>
          <symbol
             overflow="visible"
             id="textext-ea3d7c90-5"
             style="overflow:visible">
            <path
               style="stroke:none"
               d="m 3.484375,-0.59375 c 0.109375,0.5 0.46875,0.703125 0.828125,0.703125 0.359375,0 0.578125,-0.25 0.71875,-0.5625 0.1875,-0.375 0.296875,-0.953125 0.296875,-0.96875 0,-0.109375 -0.078125,-0.109375 -0.140625,-0.109375 -0.125,0 -0.140625,0.015625 -0.1875,0.234375 -0.140625,0.5625 -0.328125,1.1875 -0.671875,1.1875 -0.265625,0 -0.265625,-0.265625 -0.265625,-0.40625 0,-0.078125 0,-0.234375 0.078125,-0.515625 L 4.8125,-3.734375 c 0.046875,-0.140625 0.046875,-0.15625 0.046875,-0.21875 0,-0.203125 -0.171875,-0.25 -0.28125,-0.25 -0.3125,0 -0.375,0.328125 -0.390625,0.390625 C 4,-4.25 3.671875,-4.40625 3.359375,-4.40625 c -1.109375,0 -2.28125,1.515625 -2.28125,2.96875 0,0.84375 0.453125,1.546875 1.203125,1.546875 0.359375,0 0.796875,-0.203125 1.203125,-0.703125 z m 0.53125,-2.53125 -0.46875,1.890625 c -0.078125,0.3125 -0.703125,1.125 -1.25,1.125 C 1.828125,-0.109375 1.75,-0.703125 1.75,-1 1.75,-1.5 2.0625,-2.65625 2.25,-3.078125 2.5,-3.6875 2.953125,-4.1875 3.359375,-4.1875 c 0.4375,0 0.6875,0.515625 0.6875,0.9375 0,0.015625 -0.015625,0.0625 -0.03125,0.125 z m 0,0"
               id="path3952"
               inkscape:connector-curvature="0" />
          </symbol>
          <symbol
             overflow="visible"
             id="textext-ea3d7c90-6"
             style="overflow:visible">
            <path
               style="stroke:none"
               d="M 2.296875,-1.75 C 2.34375,-1.96875 2.40625,-2.171875 2.453125,-2.390625 2.578125,-2.90625 2.578125,-2.90625 2.75,-3.203125 2.890625,-3.4375 3.34375,-4.1875 4.09375,-4.1875 c 0.4375,0 0.46875,0.453125 0.46875,0.65625 0,0.625 -0.453125,1.8125 -0.578125,2.203125 -0.140625,0.34375 -0.171875,0.4375 -0.171875,0.640625 0,0.4375 0.28125,0.796875 0.765625,0.796875 0.921875,0 1.265625,-1.484375 1.265625,-1.53125 0,-0.109375 -0.078125,-0.109375 -0.15625,-0.109375 -0.125,0 -0.125,0.03125 -0.171875,0.171875 -0.078125,0.265625 -0.34375,1.25 -0.921875,1.25 -0.203125,0 -0.21875,-0.15625 -0.21875,-0.296875 0,-0.234375 0.09375,-0.5 0.1875,-0.734375 0.1875,-0.53125 0.59375,-1.65625 0.59375,-2.234375 0,-0.8125 -0.546875,-1.03125 -1.03125,-1.03125 -0.8125,0 -1.296875,0.59375 -1.421875,0.78125 C 2.625,-4.109375 2.296875,-4.40625 1.859375,-4.40625 1.5,-4.40625 1.3125,-4.171875 1.140625,-3.875 c -0.1875,0.390625 -0.3125,0.984375 -0.3125,1 0,0.109375 0.09375,0.109375 0.15625,0.109375 0.125,0 0.125,-0.015625 0.1875,-0.234375 0.171875,-0.703125 0.359375,-1.1875 0.671875,-1.1875 0.265625,0 0.265625,0.296875 0.265625,0.40625 0,0.15625 -0.03125,0.34375 -0.078125,0.5 l -0.75,2.984375 c -0.015625,0.0625 -0.03125,0.125 -0.03125,0.140625 0,0.109375 0.078125,0.265625 0.28125,0.265625 0.125,0 0.296875,-0.0625 0.359375,-0.265625 z m 0,0"
               id="path3955"
               inkscape:connector-curvature="0" />
          </symbol>
          <symbol
             overflow="visible"
             id="textext-ea3d7c90-7"
             style="overflow:visible">
            <path
               style="stroke:none"
               d="m 4.34375,-3.765625 c -0.5,0.0625 -0.5,0.46875 -0.5,0.5 0,0.15625 0.109375,0.3125 0.328125,0.3125 0.28125,0 0.515625,-0.21875 0.515625,-0.59375 0,-0.484375 -0.4375,-0.859375 -1.0625,-0.859375 -1.25,0 -2.53125,1.421875 -2.53125,2.875 0,0.984375 0.59375,1.640625 1.46875,1.640625 1.28125,0 2.109375,-1 2.109375,-1.140625 0,-0.0625 -0.09375,-0.171875 -0.171875,-0.171875 -0.03125,0 -0.046875,0.015625 -0.125,0.109375 -0.734375,0.9375 -1.625,0.984375 -1.796875,0.984375 -0.53125,0 -0.78125,-0.453125 -0.78125,-1.03125 0,-0.53125 0.265625,-1.578125 0.53125,-2.046875 0.359375,-0.65625 0.859375,-1 1.296875,-1 0.109375,0 0.5625,0.015625 0.71875,0.421875 z m 0,0"
               id="path3958"
               inkscape:connector-curvature="0" />
          </symbol>
          <symbol
             overflow="visible"
             id="textext-ea3d7c90-8"
             style="overflow:visible">
            <path
               style="stroke:none"
               d="m 2.375,-2.296875 c 0.3125,0 0.96875,-0.03125 1.453125,-0.21875 0.78125,-0.328125 0.78125,-0.96875 0.78125,-1.046875 0,-0.453125 -0.359375,-0.84375 -1,-0.84375 -1.046875,0 -2.46875,1 -2.46875,2.765625 0,0.90625 0.46875,1.75 1.421875,1.75 1.28125,0 2.109375,-1 2.109375,-1.140625 0,-0.0625 -0.09375,-0.171875 -0.171875,-0.171875 -0.03125,0 -0.046875,0.015625 -0.125,0.109375 -0.734375,0.9375 -1.625,0.984375 -1.796875,0.984375 -0.640625,0 -0.75,-0.703125 -0.75,-1.09375 0,-0.375 0.09375,-0.828125 0.171875,-1.09375 z m -0.328125,-0.21875 c 0.4375,-1.640625 1.46875,-1.671875 1.5625,-1.671875 0.390625,0 0.625,0.265625 0.625,0.609375 0,1.0625 -1.640625,1.0625 -1.96875,1.0625 z m 0,0"
               id="path3961"
               inkscape:connector-curvature="0" />
          </symbol>
          <symbol
             overflow="visible"
             id="textext-ea3d7c90-9"
             style="overflow:visible">
            <path
               style="stroke:none"
               d=""
               id="path3964"
               inkscape:connector-curvature="0" />
          </symbol>
          <symbol
             overflow="visible"
             id="textext-ea3d7c90-10"
             style="overflow:visible">
            <path
               style="stroke:none"
               d="m 6.84375,-3.265625 c 0.15625,0 0.34375,0 0.34375,-0.1875 C 7.1875,-3.65625 7,-3.65625 6.859375,-3.65625 l -5.96875,0 c -0.140625,0 -0.328125,0 -0.328125,0.203125 0,0.1875 0.1875,0.1875 0.328125,0.1875 z m 0.015625,1.9375 c 0.140625,0 0.328125,0 0.328125,-0.203125 0,-0.1875 -0.1875,-0.1875 -0.34375,-0.1875 l -5.953125,0 c -0.140625,0 -0.328125,0 -0.328125,0.1875 0,0.203125 0.1875,0.203125 0.328125,0.203125 z m 0,0"
               id="path3967"
               inkscape:connector-curvature="0" />
          </symbol>
          <symbol
             overflow="visible"
             id="textext-ea3d7c90-11"
             style="overflow:visible">
            <path
               style="stroke:none"
               d="m 4.578125,-3.1875 c 0,-0.796875 -0.046875,-1.59375 -0.390625,-2.328125 -0.453125,-0.96875 -1.28125,-1.125 -1.6875,-1.125 -0.609375,0 -1.328125,0.265625 -1.75,1.1875 -0.3125,0.6875 -0.359375,1.46875 -0.359375,2.265625 0,0.75 0.03125,1.640625 0.453125,2.40625 0.421875,0.796875 1.15625,1 1.640625,1 0.53125,0 1.296875,-0.203125 1.734375,-1.15625 0.3125,-0.6875 0.359375,-1.46875 0.359375,-2.25 z M 2.484375,0 C 2.09375,0 1.5,-0.25 1.328125,-1.203125 1.21875,-1.796875 1.21875,-2.71875 1.21875,-3.3125 c 0,-0.640625 0,-1.296875 0.078125,-1.828125 0.1875,-1.1875 0.9375,-1.28125 1.1875,-1.28125 0.328125,0 0.984375,0.1875 1.171875,1.171875 0.109375,0.5625 0.109375,1.3125 0.109375,1.9375 0,0.75 0,1.421875 -0.109375,2.0625 C 3.5,-0.296875 2.9375,0 2.484375,0 Z m 0,0"
               id="path3970"
               inkscape:connector-curvature="0" />
          </symbol>
          <symbol
             overflow="visible"
             id="textext-ea3d7c90-12"
             style="overflow:visible">
            <path
               style="stroke:none"
               d=""
               id="path3973"
               inkscape:connector-curvature="0" />
          </symbol>
          <symbol
             overflow="visible"
             id="textext-ea3d7c90-13"
             style="overflow:visible">
            <path
               style="stroke:none"
               d="m 1.90625,-0.53125 c 0,-0.28125 -0.234375,-0.53125 -0.515625,-0.53125 -0.296875,0 -0.53125,0.25 -0.53125,0.53125 C 0.859375,-0.234375 1.09375,0 1.390625,0 1.671875,0 1.90625,-0.234375 1.90625,-0.53125 Z m 0,0"
               id="path3976"
               inkscape:connector-curvature="0" />
          </symbol>
        </g>
      </defs>
      <g
         id="textext-ea3d7c90-14"
         style="fill:#ff0000;fill-opacity:1">
        <g
           style="fill:#ff0000;fill-opacity:1"
           id="g3979">
          <use
             xlink:href="#textext-ea3d7c90-1"
             x="223.43201"
             y="134.765"
             id="use3981"
             style="fill:#ff0000;fill-opacity:1"
             width="100%"
             height="100%" />
          <use
             xlink:href="#textext-ea3d7c90-2"
             x="228.52388"
             y="134.765"
             id="use3983"
             style="fill:#ff0000;fill-opacity:1"
             width="100%"
             height="100%" />
          <use
             xlink:href="#textext-ea3d7c90-3"
             x="231.57941"
             y="134.765"
             id="use3985"
             style="fill:#ff0000;fill-opacity:1"
             width="100%"
             height="100%" />
          <use
             xlink:href="#textext-ea3d7c90-4"
             x="235.65312"
             y="134.765"
             id="use3987"
             style="fill:#ff0000;fill-opacity:1"
             width="100%"
             height="100%" />
          <use
             xlink:href="#textext-ea3d7c90-5"
             x="238.96269"
             y="134.765"
             id="use3989"
             style="fill:#ff0000;fill-opacity:1"
             width="100%"
             height="100%" />
          <use
             xlink:href="#textext-ea3d7c90-6"
             x="244.05458"
             y="134.765"
             id="use3991"
             style="fill:#ff0000;fill-opacity:1"
             width="100%"
             height="100%" />
          <use
             xlink:href="#textext-ea3d7c90-7"
             x="249.65556"
             y="134.765"
             id="use3993"
             style="fill:#ff0000;fill-opacity:1"
             width="100%"
             height="100%" />
        </g>
        <g
           style="fill:#ff0000;fill-opacity:1"
           id="g3995">
          <use
             xlink:href="#textext-ea3d7c90-8"
             x="253.73026"
             y="134.765"
             id="use3997"
             style="fill:#ff0000;fill-opacity:1"
             width="100%"
             height="100%" />
        </g>
        <g
           style="fill:#ff0000;fill-opacity:1"
           id="g3999">
          <use
             xlink:href="#textext-ea3d7c90-10"
             x="261.828"
             y="134.765"
             id="use4001"
             style="fill:#ff0000;fill-opacity:1"
             width="100%"
             height="100%" />
        </g>
        <g
           style="fill:#ff0000;fill-opacity:1"
           id="g4003">
          <use
             xlink:href="#textext-ea3d7c90-11"
             x="272.34653"
             y="134.765"
             id="use4005"
             style="fill:#ff0000;fill-opacity:1"
             width="100%"
             height="100%" />
        </g>
        <g
           style="fill:#ff0000;fill-opacity:1"
           id="g4007">
          <use
             xlink:href="#textext-ea3d7c90-13"
             x="277.32501"
             y="134.765"
             id="use4009"
             style="fill:#ff0000;fill-opacity:1"
             width="100%"
             height="100%" />
        </g>
        <g
           style="fill:#ff0000;fill-opacity:1"
           id="g4011">
          <use
             xlink:href="#textext-ea3d7c90-11"
             x="280.09299"
             y="134.765"
             id="use4013"
             style="fill:#ff0000;fill-opacity:1"
             width="100%"
             height="100%" />
        </g>
      </g>
    </g>
    <g
       id="g4223"
       style="fill:#ff0000;fill-opacity:1"
       transform="matrix(1.4354008,0,0,1.4354008,345.38301,123.17677)"
       ns0:preamble=""
       ns0:text="$\\mathit{distance} = -0.7$">
      <defs
         id="defs4225">
        <g
           id="g4227">
          <symbol
             id="textext-bbcbc812-0"
             overflow="visible"
             style="overflow:visible">
            <path
               id="path4230"
               d=""
               style="stroke:none"
               inkscape:connector-curvature="0" />
          </symbol>
          <symbol
             id="textext-bbcbc812-1"
             overflow="visible"
             style="overflow:visible">
            <path
               id="path4233"
               d="m 5.546875,-6.671875 c 0.015625,-0.03125 0.03125,-0.109375 0.03125,-0.125 0,-0.09375 -0.0625,-0.125 -0.140625,-0.125 -0.03125,0 -0.125,0.015625 -0.15625,0.03125 L 4.296875,-6.8125 c -0.125,0 -0.234375,0.015625 -0.234375,0.203125 C 4.0625,-6.5 4.171875,-6.5 4.3125,-6.5 c 0.46875,0 0.5,0.0625 0.5,0.171875 0,0.03125 -0.03125,0.15625 -0.03125,0.171875 l -0.578125,2.328125 c -0.15625,-0.3125 -0.421875,-0.578125 -0.84375,-0.578125 -1.109375,0 -2.28125,1.515625 -2.28125,2.96875 0,0.84375 0.453125,1.546875 1.203125,1.546875 0.359375,0 0.796875,-0.203125 1.203125,-0.703125 0.109375,0.5 0.46875,0.703125 0.828125,0.703125 0.359375,0 0.578125,-0.25 0.71875,-0.5625 0.1875,-0.375 0.296875,-0.953125 0.296875,-0.96875 0,-0.109375 -0.078125,-0.109375 -0.140625,-0.109375 -0.125,0 -0.140625,0.015625 -0.1875,0.234375 -0.140625,0.5625 -0.328125,1.1875 -0.671875,1.1875 -0.265625,0 -0.265625,-0.265625 -0.265625,-0.40625 0,-0.078125 0,-0.21875 0.0625,-0.46875 z M 3.53125,-1.21875 C 3.453125,-0.90625 2.84375,-0.109375 2.296875,-0.109375 1.828125,-0.109375 1.75,-0.703125 1.75,-1 1.75,-1.5 2.0625,-2.65625 2.25,-3.078125 2.5,-3.6875 2.953125,-4.1875 3.359375,-4.1875 c 0.078125,0 0.3125,0.015625 0.484375,0.296875 0.109375,0.15625 0.203125,0.4375 0.203125,0.625 0,0.03125 -0.015625,0.078125 -0.03125,0.140625 z m 0,0"
               style="stroke:none"
               inkscape:connector-curvature="0" />
          </symbol>
          <symbol
             id="textext-bbcbc812-2"
             overflow="visible"
             style="overflow:visible">
            <path
               id="path4236"
               d="m 3.296875,-1.421875 c 0,-0.109375 -0.078125,-0.109375 -0.140625,-0.109375 -0.140625,0 -0.140625,0.03125 -0.171875,0.171875 -0.078125,0.296875 -0.359375,1.25 -0.9375,1.25 -0.078125,0 -0.21875,-0.015625 -0.21875,-0.28125 0,-0.25 0.140625,-0.59375 0.265625,-0.953125 l 0.640625,-1.703125 c 0.09375,-0.296875 0.109375,-0.375 0.109375,-0.5625 0,-0.546875 -0.375,-0.796875 -0.734375,-0.796875 -0.9375,0 -1.28125,1.484375 -1.28125,1.53125 0,0.109375 0.09375,0.109375 0.15625,0.109375 0.125,0 0.125,-0.03125 0.171875,-0.171875 0.09375,-0.328125 0.34375,-1.25 0.921875,-1.25 0.109375,0 0.21875,0.046875 0.21875,0.28125 0,0.234375 -0.109375,0.53125 -0.171875,0.71875 L 1.828125,-2.359375 C 1.6875,-2.03125 1.578125,-1.703125 1.453125,-1.375 1.3125,-1 1.28125,-0.890625 1.28125,-0.6875 c 0,0.390625 0.234375,0.796875 0.75,0.796875 0.9375,0 1.265625,-1.5 1.265625,-1.53125 z M 3.25,-6.203125 c 0,-0.25 -0.203125,-0.34375 -0.34375,-0.34375 -0.203125,0 -0.46875,0.203125 -0.46875,0.484375 0,0.25 0.1875,0.328125 0.328125,0.328125 0.203125,0 0.484375,-0.1875 0.484375,-0.46875 z m 0,0"
               style="stroke:none"
               inkscape:connector-curvature="0" />
          </symbol>
          <symbol
             id="textext-bbcbc812-3"
             overflow="visible"
             style="overflow:visible">
            <path
               id="path4239"
               d="m 2.46875,-1.96875 c 0.4375,0.109375 0.875,0.203125 0.875,0.75 0,0.3125 -0.265625,1.109375 -1.296875,1.109375 -0.21875,0 -0.796875,-0.046875 -0.953125,-0.5625 0.515625,-0.046875 0.515625,-0.46875 0.515625,-0.484375 0,-0.1875 -0.140625,-0.3125 -0.34375,-0.3125 -0.234375,0 -0.515625,0.15625 -0.515625,0.609375 0,0.609375 0.578125,0.96875 1.296875,0.96875 1.484375,0 1.875,-1.21875 1.875,-1.671875 0,-0.875 -0.78125,-1.046875 -1.1875,-1.140625 -0.28125,-0.0625 -0.640625,-0.140625 -0.640625,-0.5625 0,-0.25 0.203125,-0.921875 1,-0.921875 0.28125,0 0.640625,0.09375 0.75,0.484375 -0.3125,0.046875 -0.390625,0.3125 -0.390625,0.40625 0,0.109375 0.0625,0.28125 0.296875,0.28125 0.171875,0 0.421875,-0.109375 0.421875,-0.546875 0,-0.453125 -0.40625,-0.84375 -1.0625,-0.84375 -1.171875,0 -1.578125,0.953125 -1.578125,1.46875 0,0.78125 0.65625,0.90625 0.9375,0.96875 z m 0,0"
               style="stroke:none"
               inkscape:connector-curvature="0" />
          </symbol>
          <symbol
             id="textext-bbcbc812-4"
             overflow="visible"
             style="overflow:visible">
            <path
               id="path4242"
               d="m 2.59375,-3.984375 0.84375,0 c 0.171875,0 0.28125,0 0.28125,-0.1875 0,-0.125 -0.09375,-0.125 -0.25,-0.125 l -0.796875,0 0.375,-1.46875 c 0.03125,-0.140625 0.03125,-0.171875 0.03125,-0.21875 0,-0.203125 -0.171875,-0.25 -0.265625,-0.25 -0.25,0 -0.34375,0.203125 -0.390625,0.359375 l -0.390625,1.578125 -0.84375,0 c -0.171875,0 -0.28125,0 -0.28125,0.1875 0,0.125 0.09375,0.125 0.25,0.125 l 0.796875,0 L 1.234375,-1.125 C 1.21875,-1.09375 1.1875,-0.921875 1.1875,-0.78125 c 0,0.484375 0.328125,0.890625 0.84375,0.890625 1.015625,0 1.515625,-1.484375 1.515625,-1.53125 0,-0.109375 -0.078125,-0.109375 -0.140625,-0.109375 -0.125,0 -0.125,0.015625 -0.203125,0.203125 -0.1875,0.46875 -0.578125,1.21875 -1.15625,1.21875 -0.265625,0 -0.265625,-0.25 -0.265625,-0.40625 0,-0.078125 0,-0.234375 0.078125,-0.515625 z m 0,0"
               style="stroke:none"
               inkscape:connector-curvature="0" />
          </symbol>
          <symbol
             id="textext-bbcbc812-5"
             overflow="visible"
             style="overflow:visible">
            <path
               id="path4245"
               d="m 3.484375,-0.59375 c 0.109375,0.5 0.46875,0.703125 0.828125,0.703125 0.359375,0 0.578125,-0.25 0.71875,-0.5625 0.1875,-0.375 0.296875,-0.953125 0.296875,-0.96875 0,-0.109375 -0.078125,-0.109375 -0.140625,-0.109375 -0.125,0 -0.140625,0.015625 -0.1875,0.234375 -0.140625,0.5625 -0.328125,1.1875 -0.671875,1.1875 -0.265625,0 -0.265625,-0.265625 -0.265625,-0.40625 0,-0.078125 0,-0.234375 0.078125,-0.515625 L 4.8125,-3.734375 c 0.046875,-0.140625 0.046875,-0.15625 0.046875,-0.21875 0,-0.203125 -0.171875,-0.25 -0.28125,-0.25 -0.3125,0 -0.375,0.328125 -0.390625,0.390625 C 4,-4.25 3.671875,-4.40625 3.359375,-4.40625 c -1.109375,0 -2.28125,1.515625 -2.28125,2.96875 0,0.84375 0.453125,1.546875 1.203125,1.546875 0.359375,0 0.796875,-0.203125 1.203125,-0.703125 z m 0.53125,-2.53125 -0.46875,1.890625 c -0.078125,0.3125 -0.703125,1.125 -1.25,1.125 C 1.828125,-0.109375 1.75,-0.703125 1.75,-1 1.75,-1.5 2.0625,-2.65625 2.25,-3.078125 2.5,-3.6875 2.953125,-4.1875 3.359375,-4.1875 c 0.4375,0 0.6875,0.515625 0.6875,0.9375 0,0.015625 -0.015625,0.0625 -0.03125,0.125 z m 0,0"
               style="stroke:none"
               inkscape:connector-curvature="0" />
          </symbol>
          <symbol
             id="textext-bbcbc812-6"
             overflow="visible"
             style="overflow:visible">
            <path
               id="path4248"
               d="M 2.296875,-1.75 C 2.34375,-1.96875 2.40625,-2.171875 2.453125,-2.390625 2.578125,-2.90625 2.578125,-2.90625 2.75,-3.203125 2.890625,-3.4375 3.34375,-4.1875 4.09375,-4.1875 c 0.4375,0 0.46875,0.453125 0.46875,0.65625 0,0.625 -0.453125,1.8125 -0.578125,2.203125 -0.140625,0.34375 -0.171875,0.4375 -0.171875,0.640625 0,0.4375 0.28125,0.796875 0.765625,0.796875 0.921875,0 1.265625,-1.484375 1.265625,-1.53125 0,-0.109375 -0.078125,-0.109375 -0.15625,-0.109375 -0.125,0 -0.125,0.03125 -0.171875,0.171875 -0.078125,0.265625 -0.34375,1.25 -0.921875,1.25 -0.203125,0 -0.21875,-0.15625 -0.21875,-0.296875 0,-0.234375 0.09375,-0.5 0.1875,-0.734375 0.1875,-0.53125 0.59375,-1.65625 0.59375,-2.234375 0,-0.8125 -0.546875,-1.03125 -1.03125,-1.03125 -0.8125,0 -1.296875,0.59375 -1.421875,0.78125 C 2.625,-4.109375 2.296875,-4.40625 1.859375,-4.40625 1.5,-4.40625 1.3125,-4.171875 1.140625,-3.875 c -0.1875,0.390625 -0.3125,0.984375 -0.3125,1 0,0.109375 0.09375,0.109375 0.15625,0.109375 0.125,0 0.125,-0.015625 0.1875,-0.234375 0.171875,-0.703125 0.359375,-1.1875 0.671875,-1.1875 0.265625,0 0.265625,0.296875 0.265625,0.40625 0,0.15625 -0.03125,0.34375 -0.078125,0.5 l -0.75,2.984375 c -0.015625,0.0625 -0.03125,0.125 -0.03125,0.140625 0,0.109375 0.078125,0.265625 0.28125,0.265625 0.125,0 0.296875,-0.0625 0.359375,-0.265625 z m 0,0"
               style="stroke:none"
               inkscape:connector-curvature="0" />
          </symbol>
          <symbol
             id="textext-bbcbc812-7"
             overflow="visible"
             style="overflow:visible">
            <path
               id="path4251"
               d="m 4.34375,-3.765625 c -0.5,0.0625 -0.5,0.46875 -0.5,0.5 0,0.15625 0.109375,0.3125 0.328125,0.3125 0.28125,0 0.515625,-0.21875 0.515625,-0.59375 0,-0.484375 -0.4375,-0.859375 -1.0625,-0.859375 -1.25,0 -2.53125,1.421875 -2.53125,2.875 0,0.984375 0.59375,1.640625 1.46875,1.640625 1.28125,0 2.109375,-1 2.109375,-1.140625 0,-0.0625 -0.09375,-0.171875 -0.171875,-0.171875 -0.03125,0 -0.046875,0.015625 -0.125,0.109375 -0.734375,0.9375 -1.625,0.984375 -1.796875,0.984375 -0.53125,0 -0.78125,-0.453125 -0.78125,-1.03125 0,-0.53125 0.265625,-1.578125 0.53125,-2.046875 0.359375,-0.65625 0.859375,-1 1.296875,-1 0.109375,0 0.5625,0.015625 0.71875,0.421875 z m 0,0"
               style="stroke:none"
               inkscape:connector-curvature="0" />
          </symbol>
          <symbol
             id="textext-bbcbc812-8"
             overflow="visible"
             style="overflow:visible">
            <path
               id="path4254"
               d="m 2.375,-2.296875 c 0.3125,0 0.96875,-0.03125 1.453125,-0.21875 0.78125,-0.328125 0.78125,-0.96875 0.78125,-1.046875 0,-0.453125 -0.359375,-0.84375 -1,-0.84375 -1.046875,0 -2.46875,1 -2.46875,2.765625 0,0.90625 0.46875,1.75 1.421875,1.75 1.28125,0 2.109375,-1 2.109375,-1.140625 0,-0.0625 -0.09375,-0.171875 -0.171875,-0.171875 -0.03125,0 -0.046875,0.015625 -0.125,0.109375 -0.734375,0.9375 -1.625,0.984375 -1.796875,0.984375 -0.640625,0 -0.75,-0.703125 -0.75,-1.09375 0,-0.375 0.09375,-0.828125 0.171875,-1.09375 z m -0.328125,-0.21875 c 0.4375,-1.640625 1.46875,-1.671875 1.5625,-1.671875 0.390625,0 0.625,0.265625 0.625,0.609375 0,1.0625 -1.640625,1.0625 -1.96875,1.0625 z m 0,0"
               style="stroke:none"
               inkscape:connector-curvature="0" />
          </symbol>
          <symbol
             id="textext-bbcbc812-9"
             overflow="visible"
             style="overflow:visible">
            <path
               id="path4257"
               d=""
               style="stroke:none"
               inkscape:connector-curvature="0" />
          </symbol>
          <symbol
             id="textext-bbcbc812-10"
             overflow="visible"
             style="overflow:visible">
            <path
               id="path4260"
               d="m 6.84375,-3.265625 c 0.15625,0 0.34375,0 0.34375,-0.1875 C 7.1875,-3.65625 7,-3.65625 6.859375,-3.65625 l -5.96875,0 c -0.140625,0 -0.328125,0 -0.328125,0.203125 0,0.1875 0.1875,0.1875 0.328125,0.1875 z m 0.015625,1.9375 c 0.140625,0 0.328125,0 0.328125,-0.203125 0,-0.1875 -0.1875,-0.1875 -0.34375,-0.1875 l -5.953125,0 c -0.140625,0 -0.328125,0 -0.328125,0.1875 0,0.203125 0.1875,0.203125 0.328125,0.203125 z m 0,0"
               style="stroke:none"
               inkscape:connector-curvature="0" />
          </symbol>
          <symbol
             id="textext-bbcbc812-11"
             overflow="visible"
             style="overflow:visible">
            <path
               id="path4263"
               d="m 4.578125,-3.1875 c 0,-0.796875 -0.046875,-1.59375 -0.390625,-2.328125 -0.453125,-0.96875 -1.28125,-1.125 -1.6875,-1.125 -0.609375,0 -1.328125,0.265625 -1.75,1.1875 -0.3125,0.6875 -0.359375,1.46875 -0.359375,2.265625 0,0.75 0.03125,1.640625 0.453125,2.40625 0.421875,0.796875 1.15625,1 1.640625,1 0.53125,0 1.296875,-0.203125 1.734375,-1.15625 0.3125,-0.6875 0.359375,-1.46875 0.359375,-2.25 z M 2.484375,0 C 2.09375,0 1.5,-0.25 1.328125,-1.203125 1.21875,-1.796875 1.21875,-2.71875 1.21875,-3.3125 c 0,-0.640625 0,-1.296875 0.078125,-1.828125 0.1875,-1.1875 0.9375,-1.28125 1.1875,-1.28125 0.328125,0 0.984375,0.1875 1.171875,1.171875 0.109375,0.5625 0.109375,1.3125 0.109375,1.9375 0,0.75 0,1.421875 -0.109375,2.0625 C 3.5,-0.296875 2.9375,0 2.484375,0 Z m 0,0"
               style="stroke:none"
               inkscape:connector-curvature="0" />
          </symbol>
          <symbol
             id="textext-bbcbc812-12"
             overflow="visible"
             style="overflow:visible">
            <path
               id="path4266"
               d="m 4.75,-6.078125 c 0.078125,-0.109375 0.078125,-0.125 0.078125,-0.34375 l -2.421875,0 c -1.203125,0 -1.234375,-0.125 -1.265625,-0.3125 l -0.25,0 -0.328125,2.046875 0.25,0 c 0.03125,-0.15625 0.109375,-0.78125 0.25,-0.90625 0.0625,-0.0625 0.84375,-0.0625 0.96875,-0.0625 l 2.0625,0 C 3.984375,-5.5 3.203125,-4.40625 2.984375,-4.078125 2.078125,-2.734375 1.75,-1.34375 1.75,-0.328125 c 0,0.09375 0,0.546875 0.46875,0.546875 0.453125,0 0.453125,-0.453125 0.453125,-0.546875 l 0,-0.515625 c 0,-0.546875 0.03125,-1.09375 0.109375,-1.625 0.046875,-0.234375 0.171875,-1.09375 0.625,-1.703125 z m 0,0"
               style="stroke:none"
               inkscape:connector-curvature="0" />
          </symbol>
          <symbol
             id="textext-bbcbc812-13"
             overflow="visible"
             style="overflow:visible">
            <path
               id="path4269"
               d=""
               style="stroke:none"
               inkscape:connector-curvature="0" />
          </symbol>
          <symbol
             id="textext-bbcbc812-14"
             overflow="visible"
             style="overflow:visible">
            <path
               id="path4272"
               d="m 6.5625,-2.296875 c 0.171875,0 0.359375,0 0.359375,-0.203125 0,-0.1875 -0.1875,-0.1875 -0.359375,-0.1875 l -5.390625,0 c -0.171875,0 -0.34375,0 -0.34375,0.1875 0,0.203125 0.171875,0.203125 0.34375,0.203125 z m 0,0"
               style="stroke:none"
               inkscape:connector-curvature="0" />
          </symbol>
          <symbol
             id="textext-bbcbc812-15"
             overflow="visible"
             style="overflow:visible">
            <path
               id="path4275"
               d=""
               style="stroke:none"
               inkscape:connector-curvature="0" />
          </symbol>
          <symbol
             id="textext-bbcbc812-16"
             overflow="visible"
             style="overflow:visible">
            <path
               id="path4278"
               d="m 1.90625,-0.53125 c 0,-0.28125 -0.234375,-0.53125 -0.515625,-0.53125 -0.296875,0 -0.53125,0.25 -0.53125,0.53125 C 0.859375,-0.234375 1.09375,0 1.390625,0 1.671875,0 1.90625,-0.234375 1.90625,-0.53125 Z m 0,0"
               style="stroke:none"
               inkscape:connector-curvature="0" />
          </symbol>
        </g>
      </defs>
      <g
         id="textext-bbcbc812-17"
         style="fill:#ff0000;fill-opacity:1">
        <g
           id="g4281"
           style="fill:#ff0000;fill-opacity:1">
          <use
             id="use4283"
             y="134.765"
             x="223.43201"
             xlink:href="#textext-bbcbc812-1"
             style="fill:#ff0000;fill-opacity:1"
             width="100%"
             height="100%" />
          <use
             id="use4285"
             y="134.765"
             x="228.52388"
             xlink:href="#textext-bbcbc812-2"
             style="fill:#ff0000;fill-opacity:1"
             width="100%"
             height="100%" />
          <use
             id="use4287"
             y="134.765"
             x="231.57941"
             xlink:href="#textext-bbcbc812-3"
             style="fill:#ff0000;fill-opacity:1"
             width="100%"
             height="100%" />
          <use
             id="use4289"
             y="134.765"
             x="235.65312"
             xlink:href="#textext-bbcbc812-4"
             style="fill:#ff0000;fill-opacity:1"
             width="100%"
             height="100%" />
          <use
             id="use4291"
             y="134.765"
             x="238.96269"
             xlink:href="#textext-bbcbc812-5"
             style="fill:#ff0000;fill-opacity:1"
             width="100%"
             height="100%" />
          <use
             id="use4293"
             y="134.765"
             x="244.05458"
             xlink:href="#textext-bbcbc812-6"
             style="fill:#ff0000;fill-opacity:1"
             width="100%"
             height="100%" />
          <use
             id="use4295"
             y="134.765"
             x="249.65556"
             xlink:href="#textext-bbcbc812-7"
             style="fill:#ff0000;fill-opacity:1"
             width="100%"
             height="100%" />
        </g>
        <g
           id="g4297"
           style="fill:#ff0000;fill-opacity:1">
          <use
             id="use4299"
             y="134.765"
             x="253.73026"
             xlink:href="#textext-bbcbc812-8"
             style="fill:#ff0000;fill-opacity:1"
             width="100%"
             height="100%" />
        </g>
        <g
           id="g4301"
           style="fill:#ff0000;fill-opacity:1">
          <use
             id="use4303"
             y="134.765"
             x="261.828"
             xlink:href="#textext-bbcbc812-10"
             style="fill:#ff0000;fill-opacity:1"
             width="100%"
             height="100%" />
        </g>
        <g
           id="g4305"
           style="fill:#ff0000;fill-opacity:1">
          <use
             id="use4307"
             y="134.765"
             x="272.34399"
             xlink:href="#textext-bbcbc812-14"
             style="fill:#ff0000;fill-opacity:1"
             width="100%"
             height="100%" />
        </g>
        <g
           id="g4309"
           style="fill:#ff0000;fill-opacity:1">
          <use
             id="use4311"
             y="134.765"
             x="280.09299"
             xlink:href="#textext-bbcbc812-11"
             style="fill:#ff0000;fill-opacity:1"
             width="100%"
             height="100%" />
        </g>
        <g
           id="g4313"
           style="fill:#ff0000;fill-opacity:1">
          <use
             id="use4315"
             y="134.765"
             x="285.07401"
             xlink:href="#textext-bbcbc812-16"
             style="fill:#ff0000;fill-opacity:1"
             width="100%"
             height="100%" />
        </g>
        <g
           id="g4317"
           style="fill:#ff0000;fill-opacity:1">
          <use
             id="use4319"
             y="134.765"
             x="287.84201"
             xlink:href="#textext-bbcbc812-12"
             style="fill:#ff0000;fill-opacity:1"
             width="100%"
             height="100%" />
        </g>
      </g>
    </g>
  </g>
</svg>
